<?xml version="1.0" encoding="UTF-8" standalone="no"?>
<!-- Created with Inkscape (http://www.inkscape.org/) -->

<svg
   xmlns:ns2="http://ns.adobe.com/AdobeIllustrator/10.0/"
   xmlns:dc="http://purl.org/dc/elements/1.1/"
   xmlns:cc="http://creativecommons.org/ns#"
   xmlns:rdf="http://www.w3.org/1999/02/22-rdf-syntax-ns#"
   xmlns:svg="http://www.w3.org/2000/svg"
   xmlns="http://www.w3.org/2000/svg"
   xmlns:sodipodi="http://sodipodi.sourceforge.net/DTD/sodipodi-0.dtd"
   xmlns:inkscape="http://www.inkscape.org/namespaces/inkscape"
   width="7.4376283mm"
   height="7.8965173mm"
   viewBox="0 0 90.000003 95.552852"
   id="svg7148"
   version="1.1"
   inkscape:version="0.92.1 r"
   sodipodi:docname="accident_lorry.svg"
   inkscape:export-filename="/home/brunofernandes/it-git-repos/it2s-android/icsi_demonstrator/app/src/main/res/drawable-ldpi/accident_lorry.png"
   inkscape:export-xdpi="119.70931"
   inkscape:export-ydpi="119.70931">
  <defs
     id="defs7150">
    <clipPath
       clipPathUnits="userSpaceOnUse"
       id="clipPath4656">
      <rect
         style="fill:#ffffff;stroke-width:0.58628535"
         id="rect4658"
         width="19.144819"
         height="20.23105"
         x="630.8186"
         y="-1130.8098"
         transform="scale(1,-1)" />
    </clipPath>
    <clipPath
       clipPathUnits="userSpaceOnUse"
       id="clipPath4656-7">
      <rect
         style="fill:#ffffff;stroke-width:0.58628535"
         id="rect4658-5"
         width="19.144819"
         height="20.23105"
         x="630.8186"
         y="-1130.8098"
         transform="scale(1,-1)" />
    </clipPath>
  </defs>
  <sodipodi:namedview
     id="base"
     pagecolor="#ffffff"
     bordercolor="#666666"
     borderopacity="1.0"
     inkscape:pageopacity="0.0"
     inkscape:pageshadow="2"
     inkscape:zoom="2.8284271"
     inkscape:cx="133.09692"
     inkscape:cy="-4.2112437"
     inkscape:document-units="px"
     inkscape:current-layer="layer1"
     showgrid="false"
     fit-margin-top="0"
     fit-margin-left="0"
     fit-margin-right="0"
     fit-margin-bottom="0"
     inkscape:window-width="1680"
     inkscape:window-height="1021"
     inkscape:window-x="0"
     inkscape:window-y="0"
     inkscape:window-maximized="1" />
  <metadata
     id="metadata7153">
    <rdf:RDF>
      <cc:Work
         rdf:about="">
        <dc:format>image/svg+xml</dc:format>
        <dc:type
           rdf:resource="http://purl.org/dc/dcmitype/StillImage" />
        <dc:title />
      </cc:Work>
    </rdf:RDF>
  </metadata>
  <g
     inkscape:label="Layer 1"
     inkscape:groupmode="layer"
     id="layer1"
     transform="translate(-81.551079,-264.16088)">
    <g
       id="g4594">
      <g
         id="g4837"
         transform="translate(-208.21162,-9.8885344)">
        <g
           inkscape:export-ydpi="159.61241"
           inkscape:export-xdpi="159.61241"
           inkscape:export-filename="/home/brunofernandes/it-git-repos/it2s-android/icsi_demonstrator/app/src/main/res/drawable-mdpi/road_works.png"
           transform="matrix(1.220574,0,0,1.220574,-483.12695,-763.8268)"
           id="g5393-7-9">
          <g
             transform="translate(165.6091,-62.283309)"
             id="g5273-1-2-2">
            <g
               id="g5270-0-7-2">
              <polyline
                 style="fill:#ffffff;fill-opacity:1"
                 ns2:knockout="Off"
                 points="21.883,173.875 108.918,23.168 195.953,173.875 21.883,173.875 "
                 id="polyline9-2-9-2-5-4-0-8-4-4-8"
                 transform="matrix(0.37277978,0,0,0.36896641,466.11509,912.16153)" />
            </g>
            <g
               transform="translate(-135.84607,-204.52511)"
               id="g5240-3-1-9">
              <g
                 id="g5571-8-9-9-7-7"
                 transform="translate(131.16071,130.98214)">
                <g
                   id="g5664-1-5-9-36"
                   transform="translate(3.2142857)">
                  <g
                     id="g4971-4-2-6-1-2-1"
                     transform="translate(-95.27653,60.700804)">
                    <g
                       transform="translate(7.4612941,173.13848)"
                       id="g8312-0-7-7-2-3-2-2">
                      <g
                         transform="translate(-21.740359,-189.63467)"
                         id="g7499-3-7-5-9-0-8-4-9">
                        <g
                           id="g7646-4-6-1-1-0-3-3">
                          <g
                             transform="translate(-79.770404,-0.92315349)"
                             id="g5864-5-2-7-5-1-9-4-6-19">
                            <path
                               inkscape:connector-curvature="0"
                               id="path248-3-3-5-1-5-8-0-6-5-4"
                               style="fill:#ed1e24;fill-opacity:1;fill-rule:nonzero;stroke:none"
                               d="m 693.33756,957.87671 c 1.06374,-1.95625 2.8075,-1.95625 3.87375,0 l 23.59,43.31999 c 1.065,1.9562 0.11375,3.5562 -2.11376,3.5562 h -46.8275 c -2.22624,0 -3.1775,-1.6 -2.11249,-3.5562 z m 3.87375,-13.5475 c -1.06625,-1.955 -2.81001,-1.955 -3.87375,0 l -34.49375,63.34879 c -1.06625,1.9549 -0.11625,3.5562 2.11125,3.5562 h 68.63874 c 2.22626,0 3.17625,-1.6013 2.11126,-3.5562 l -34.49375,-63.34879" />
                            <path
                               inkscape:connector-curvature="0"
                               id="path250-9-0-7-6-9-0-4-2-7-78"
                               style="fill:none;fill-opacity:1;fill-rule:nonzero;stroke:none"
                               d="m 695.27381,954.32046 -27.4625,50.43244 h 54.92625 l -27.46375,-50.43244" />
                          </g>
                        </g>
                      </g>
                    </g>
                  </g>
                </g>
              </g>
            </g>
          </g>
        </g>
        <g
           id="g5240-3-1-7-4"
           transform="matrix(1.220574,0,0,-1.220574,-446.88192,1733.1379)"
           clip-path="url(#clipPath4656-7)">
          <g
             transform="translate(131.16071,130.98214)"
             id="g5571-8-9-9-7-5-5">
            <g
               transform="translate(3.2142857)"
               id="g5664-1-5-9-3-0">
              <g
                 transform="translate(-95.27653,60.700804)"
                 id="g4971-4-2-6-1-2-5-3">
                <g
                   id="g8312-0-7-7-2-3-2-6-6"
                   transform="translate(7.4612941,173.13848)">
                  <g
                     id="g7499-3-7-5-9-0-8-4-2-1"
                     transform="translate(-21.740359,-189.63467)">
                    <g
                       id="g7646-4-6-1-1-0-3-9-0">
                      <g
                         id="g5864-5-2-7-5-1-9-4-6-1-6"
                         transform="translate(-79.770404,-0.92315349)">
                        <path
                           d="m 693.33756,957.87671 c 1.06374,-1.95625 2.8075,-1.95625 3.87375,0 l 23.59,43.31999 c 1.065,1.9562 0.11375,3.5562 -2.11376,3.5562 h -46.8275 c -2.22624,0 -3.1775,-1.6 -2.11249,-3.5562 z m 3.87375,-13.5475 c -1.06625,-1.955 -2.81001,-1.955 -3.87375,0 l -34.49375,63.34879 c -1.06625,1.9549 -0.11625,3.5562 2.11125,3.5562 h 68.63874 c 2.22626,0 3.17625,-1.6013 2.11126,-3.5562 l -34.49375,-63.34879"
                           style="fill:#ed1e24;fill-opacity:1;fill-rule:nonzero;stroke:none"
                           id="path248-3-3-5-1-5-8-0-6-5-2-3"
                           inkscape:connector-curvature="0" />
                        <path
                           d="m 695.27381,954.32046 -27.4625,50.43244 h 54.92625 l -27.46375,-50.43244"
                           style="fill:none;fill-opacity:1;fill-rule:nonzero;stroke:none"
                           id="path250-9-0-7-6-9-0-4-2-7-7-2"
                           inkscape:connector-curvature="0" />
                      </g>
                    </g>
                  </g>
                </g>
              </g>
            </g>
          </g>
        </g>
      </g>
      <path
         inkscape:connector-curvature="0"
         id="path4471"
         style="fill:#000000;fill-opacity:1;fill-rule:evenodd;stroke:#000000;stroke-width:0.0178916;stroke-linecap:butt;stroke-linejoin:bevel;stroke-miterlimit:22.92558479;stroke-dasharray:none;stroke-opacity:1"
         d="m 135.87961,309.61536 c -0.0318,-0.11037 -0.10569,-0.20416 -0.20653,-0.25924 -0.10009,-0.0563 -0.21928,-0.0697 -0.32969,-0.038 l -3.2657,0.93645 -0.21926,-0.7643 3.26571,-0.93642 c 0.1104,-0.0317 0.20413,-0.10578 0.2596,-0.20644 0.0561,-0.10112 0.0694,-0.21937 0.0378,-0.3298 l -0.6575,-2.29311 c -0.0318,-0.11042 -0.10579,-0.20406 -0.20674,-0.25997 -0.0999,-0.0554 -0.21904,-0.0689 -0.32947,-0.0373 l -4.93315,1.41459 -0.19915,-0.69483 c -0.0318,-0.11083 -0.10569,-0.20416 -0.20701,-0.25984 -0.10123,-0.0562 -0.21899,-0.0693 -0.3297,-0.0377 l -6.74026,1.93273 c -0.11039,0.0317 -0.20414,0.10579 -0.25928,0.20647 -0.0561,0.10112 -0.0696,0.21924 -0.0377,0.33002 l 6.73422,23.485 c 0.0318,0.11071 0.10569,0.20405 0.20681,0.2595 0.1001,0.0565 0.21897,0.0696 0.32937,0.038 l 6.74026,-1.93272 c 0.11069,-0.0318 0.20404,-0.10579 0.2596,-0.20687 0.0564,-0.1002 0.0697,-0.21897 0.038,-0.3297 l -0.19929,-0.69492 4.93316,-1.41457 c 0.11044,-0.0317 0.20415,-0.10579 0.25964,-0.20646 0.0562,-0.10113 0.0692,-0.2194 0.0378,-0.32983 l -0.65749,-2.29312 c -0.0317,-0.1104 -0.10569,-0.20416 -0.20673,-0.25993 -0.0999,-0.0555 -0.21907,-0.0689 -0.32948,-0.0373 l -3.26571,0.93643 -0.21933,-0.76467 3.26573,-0.93642 c 0.11039,-0.0318 0.20415,-0.10569 0.25956,-0.20654 0.0561,-0.10123 0.0693,-0.21931 0.0378,-0.33001 l -0.65733,-2.29243 c -0.0318,-0.11069 -0.10579,-0.20416 -0.20675,-0.26003 -0.0998,-0.0554 -0.21917,-0.0693 -0.32958,-0.0377 l -3.26573,0.93644 -2.31108,-8.05971 3.26571,-0.93645 c 0.11041,-0.0317 0.20414,-0.10579 0.25948,-0.20692 0.0565,-0.1002 0.0694,-0.21891 0.0377,-0.32971 z m -4.57274,4.24431 0.76376,-0.21909 2.31111,8.05976 -0.76378,0.21909 z m -10.73894,-5.71874 c 0.11041,-0.0317 0.22915,-0.018 0.33006,0.0376 0.1002,0.0563 0.1744,0.14925 0.20615,0.26007 l 6.73425,23.48501 c 0.0318,0.1107 0.018,0.22912 -0.0372,0.32941 -0.0559,0.10121 -0.14954,0.17534 -0.25998,0.20697 l -7.08721,2.03223 c -0.44207,0.12675 -0.91711,0.0732 -1.31938,-0.15037 -0.40211,-0.22327 -0.69946,-0.59688 -0.82621,-1.03894 l -6.01709,-20.98405 c -0.12676,-0.44217 -0.072,-0.91654 0.15013,-1.3189 0.2228,-0.40258 0.59712,-0.69993 1.03918,-0.82669 z m 12.61459,15.6704 1.0758,3.75183 -2.2232,0.63761 -1.07579,-3.75186 z m 1.33194,1.23468 0.21933,0.76465 0.7638,-0.21908 -0.21932,-0.76467 z m -4.42605,-15.09499 0.21912,0.76419 0.76421,-0.21915 -0.21914,-0.76419 z" />
    </g>
  </g>
</svg>
