<?xml version="1.0" encoding="UTF-8" standalone="no"?>
<!-- Created with Inkscape (http://www.inkscape.org/) -->

<svg
   xmlns:ns2="http://ns.adobe.com/AdobeIllustrator/10.0/"
   xmlns:dc="http://purl.org/dc/elements/1.1/"
   xmlns:cc="http://creativecommons.org/ns#"
   xmlns:rdf="http://www.w3.org/1999/02/22-rdf-syntax-ns#"
   xmlns:svg="http://www.w3.org/2000/svg"
   xmlns="http://www.w3.org/2000/svg"
   xmlns:sodipodi="http://sodipodi.sourceforge.net/DTD/sodipodi-0.dtd"
   xmlns:inkscape="http://www.inkscape.org/namespaces/inkscape"
   width="7.4376283mm"
   height="7.8965173mm"
   viewBox="0 0 90.000004 95.552852"
   id="svg7148"
   version="1.1"
   inkscape:version="0.92.1 r"
   sodipodi:docname="accident_bus.svg"
   inkscape:export-filename="/home/brunofernandes/it-git-repos/it2s-android/icsi_demonstrator/app/src/main/res/drawable-ldpi/accident_bus.png"
   inkscape:export-xdpi="119.70931"
   inkscape:export-ydpi="119.70931">
  <defs
     id="defs7150">
    <clipPath
       clipPathUnits="userSpaceOnUse"
       id="clipPath4656">
      <rect
         style="fill:#ffffff;stroke-width:0.58628535"
         id="rect4658"
         width="19.144819"
         height="20.23105"
         x="630.8186"
         y="-1130.8098"
         transform="scale(1,-1)" />
    </clipPath>
    <clipPath
       clipPathUnits="userSpaceOnUse"
       id="clipPath4656-7">
      <rect
         style="fill:#ffffff;stroke-width:0.58628535"
         id="rect4658-5"
         width="19.144819"
         height="20.23105"
         x="630.8186"
         y="-1130.8098"
         transform="scale(1,-1)" />
    </clipPath>
  </defs>
  <sodipodi:namedview
     id="base"
     pagecolor="#ffffff"
     bordercolor="#666666"
     borderopacity="1.0"
     inkscape:pageopacity="0.0"
     inkscape:pageshadow="2"
     inkscape:zoom="2.8284271"
     inkscape:cx="175.75719"
     inkscape:cy="89.406016"
     inkscape:document-units="px"
     inkscape:current-layer="layer1"
     showgrid="false"
     fit-margin-top="0"
     fit-margin-left="0"
     fit-margin-right="0"
     fit-margin-bottom="0"
     inkscape:window-width="1680"
     inkscape:window-height="1021"
     inkscape:window-x="0"
     inkscape:window-y="0"
     inkscape:window-maximized="1" />
  <metadata
     id="metadata7153">
    <rdf:RDF>
      <cc:Work
         rdf:about="">
        <dc:format>image/svg+xml</dc:format>
        <dc:type
           rdf:resource="http://purl.org/dc/dcmitype/StillImage" />
        <dc:title />
      </cc:Work>
    </rdf:RDF>
  </metadata>
  <g
     inkscape:label="Layer 1"
     inkscape:groupmode="layer"
     id="layer1"
     transform="translate(-291.36291,-264.21301)">
    <g
       transform="translate(1.6002115,-9.8364081)"
       id="g4837">
      <g
         id="g5393-7-9"
         transform="matrix(1.220574,0,0,1.220574,-483.12695,-763.8268)"
         inkscape:export-filename="/home/brunofernandes/it-git-repos/it2s-android/icsi_demonstrator/app/src/main/res/drawable-mdpi/road_works.png"
         inkscape:export-xdpi="159.61241"
         inkscape:export-ydpi="159.61241">
        <g
           id="g5273-1-2-2"
           transform="translate(165.6091,-62.283309)">
          <g
             id="g5270-0-7-2">
            <polyline
               transform="matrix(0.37277978,0,0,0.36896641,466.11509,912.16153)"
               id="polyline9-2-9-2-5-4-0-8-4-4-8"
               points="21.883,173.875 108.918,23.168 195.953,173.875 21.883,173.875 "
               ns2:knockout="Off"
               style="fill:#ffffff;fill-opacity:1" />
          </g>
          <g
             id="g5240-3-1-9"
             transform="translate(-135.84607,-204.52511)">
            <g
               transform="translate(131.16071,130.98214)"
               id="g5571-8-9-9-7-7">
              <g
                 transform="translate(3.2142857)"
                 id="g5664-1-5-9-36">
                <g
                   transform="translate(-95.27653,60.700804)"
                   id="g4971-4-2-6-1-2-1">
                  <g
                     id="g8312-0-7-7-2-3-2-2"
                     transform="translate(7.4612941,173.13848)">
                    <g
                       id="g7499-3-7-5-9-0-8-4-9"
                       transform="translate(-21.740359,-189.63467)">
                      <g
                         id="g7646-4-6-1-1-0-3-3">
                        <g
                           id="g5864-5-2-7-5-1-9-4-6-19"
                           transform="translate(-79.770404,-0.92315349)">
                          <path
                             d="m 693.33756,957.87671 c 1.06374,-1.95625 2.8075,-1.95625 3.87375,0 l 23.59,43.31999 c 1.065,1.9562 0.11375,3.5562 -2.11376,3.5562 h -46.8275 c -2.22624,0 -3.1775,-1.6 -2.11249,-3.5562 z m 3.87375,-13.5475 c -1.06625,-1.955 -2.81001,-1.955 -3.87375,0 l -34.49375,63.34879 c -1.06625,1.9549 -0.11625,3.5562 2.11125,3.5562 h 68.63874 c 2.22626,0 3.17625,-1.6013 2.11126,-3.5562 l -34.49375,-63.34879"
                             style="fill:#ed1e24;fill-opacity:1;fill-rule:nonzero;stroke:none"
                             id="path248-3-3-5-1-5-8-0-6-5-4"
                             inkscape:connector-curvature="0" />
                          <path
                             d="m 695.27381,954.32046 -27.4625,50.43244 h 54.92625 l -27.46375,-50.43244"
                             style="fill:none;fill-opacity:1;fill-rule:nonzero;stroke:none"
                             id="path250-9-0-7-6-9-0-4-2-7-78"
                             inkscape:connector-curvature="0" />
                        </g>
                      </g>
                    </g>
                  </g>
                </g>
              </g>
            </g>
          </g>
        </g>
      </g>
      <g
         clip-path="url(#clipPath4656-7)"
         transform="matrix(1.220574,0,0,-1.220574,-446.88192,1733.1379)"
         id="g5240-3-1-7-4">
        <g
           id="g5571-8-9-9-7-5-5"
           transform="translate(131.16071,130.98214)">
          <g
             id="g5664-1-5-9-3-0"
             transform="translate(3.2142857)">
            <g
               id="g4971-4-2-6-1-2-5-3"
               transform="translate(-95.27653,60.700804)">
              <g
                 transform="translate(7.4612941,173.13848)"
                 id="g8312-0-7-7-2-3-2-6-6">
                <g
                   transform="translate(-21.740359,-189.63467)"
                   id="g7499-3-7-5-9-0-8-4-2-1">
                  <g
                     id="g7646-4-6-1-1-0-3-9-0">
                    <g
                       transform="translate(-79.770404,-0.92315349)"
                       id="g5864-5-2-7-5-1-9-4-6-1-6">
                      <path
                         inkscape:connector-curvature="0"
                         id="path248-3-3-5-1-5-8-0-6-5-2-3"
                         style="fill:#ed1e24;fill-opacity:1;fill-rule:nonzero;stroke:none"
                         d="m 693.33756,957.87671 c 1.06374,-1.95625 2.8075,-1.95625 3.87375,0 l 23.59,43.31999 c 1.065,1.9562 0.11375,3.5562 -2.11376,3.5562 h -46.8275 c -2.22624,0 -3.1775,-1.6 -2.11249,-3.5562 z m 3.87375,-13.5475 c -1.06625,-1.955 -2.81001,-1.955 -3.87375,0 l -34.49375,63.34879 c -1.06625,1.9549 -0.11625,3.5562 2.11125,3.5562 h 68.63874 c 2.22626,0 3.17625,-1.6013 2.11126,-3.5562 l -34.49375,-63.34879" />
                      <path
                         inkscape:connector-curvature="0"
                         id="path250-9-0-7-6-9-0-4-2-7-7-2"
                         style="fill:none;fill-opacity:1;fill-rule:nonzero;stroke:none"
                         d="m 695.27381,954.32046 -27.4625,50.43244 h 54.92625 l -27.46375,-50.43244" />
                    </g>
                  </g>
                </g>
              </g>
            </g>
          </g>
        </g>
      </g>
    </g>
    <g
       id="g5445"
       inkscape:export-xdpi="119"
       inkscape:export-ydpi="119"
       transform="matrix(-1,0,0,1,581.82874,1.6572815)">
      <g
         id="g41"
         transform="matrix(0.12860593,-0.03206505,-0.03206505,-0.12860593,176.36117,378.42691)">
        <g
           transform="translate(318.68124,-9.0918831)"
           id="g227">
          <g
             id="g4520">
            <circle
               cx="355.16101"
               cy="324.79001"
               r="19.186001"
               id="circle10"
               style="stroke:#000000;stroke-width:0.17640001;stroke-linecap:round;stroke-linejoin:round" />
            <circle
               cx="205.213"
               cy="324.79001"
               r="19.186001"
               id="circle12"
               style="stroke:#000000;stroke-width:0.17640001;stroke-linecap:round;stroke-linejoin:round" />
            <g
               id="g4509">
              <path
                 style="stroke:#000000;stroke-width:0.17640001;stroke-linecap:round;stroke-linejoin:round"
                 inkscape:connector-curvature="0"
                 id="path14"
                 d="m 149.453,237.329 4.08,1.27 -8.63,28.798 -4.904,2.466 -2.943,3.658 -0.844,49.394 6.462,4.805 h 38.101 c -1.106,-9.231 3.083,-18.299 10.831,-23.438 7.747,-5.141 17.729,-5.478 25.805,-0.87 8.076,4.608 12.867,13.371 12.384,22.656 H 330.58 c -0.472,-9.084 4.104,-17.688 11.901,-22.374 7.796,-4.686 17.542,-4.689 25.343,-0.01 7.8,4.68 12.384,13.279 11.919,22.364 h 53.366 V 224.734 l -0.762,-1.24 -0.588,-0.572 -0.686,-0.286 -1.042,-0.001 H 152.918 l -1.284,-0.076 -0.481,0.118 -0.562,0.703 -0.161,0.936 -0.094,1.054 -0.814,11.027" />
            </g>
            <polygon
               points="175.472,242.401 175.472,269.448 150.359,269.448 157.384,242.401 "
               id="polygon16"
               style="fill:#ffffff;stroke:#000000;stroke-width:0.17640001;stroke-linecap:round;stroke-linejoin:round" />
            <rect
               x="178.73801"
               y="242.401"
               width="54.831001"
               height="27.047001"
               id="rect18"
               style="fill:#ffffff;stroke:#000000;stroke-width:0.17640001;stroke-linecap:round;stroke-linejoin:round" />
            <rect
               x="236.83501"
               y="242.401"
               width="60.254002"
               height="27.047001"
               id="rect20"
               style="fill:#ffffff;stroke:#000000;stroke-width:0.17640001;stroke-linecap:round;stroke-linejoin:round" />
            <rect
               x="300.35699"
               y="242.401"
               width="62.018002"
               height="27.047001"
               id="rect22"
               style="fill:#ffffff;stroke:#000000;stroke-width:0.17640001;stroke-linecap:round;stroke-linejoin:round" />
            <rect
               x="365.642"
               y="242.401"
               width="57.014999"
               height="27.047001"
               id="rect24"
               style="fill:#ffffff;stroke:#000000;stroke-width:0.17640001;stroke-linecap:round;stroke-linejoin:round" />
          </g>
        </g>
      </g>
    </g>
  </g>
</svg>
