<?xml version="1.0" encoding="UTF-8" standalone="no"?>
<!-- Created with Inkscape (http://www.inkscape.org/) -->

<svg
   xmlns:ns2="http://ns.adobe.com/AdobeIllustrator/10.0/"
   xmlns:dc="http://purl.org/dc/elements/1.1/"
   xmlns:cc="http://creativecommons.org/ns#"
   xmlns:rdf="http://www.w3.org/1999/02/22-rdf-syntax-ns#"
   xmlns:svg="http://www.w3.org/2000/svg"
   xmlns="http://www.w3.org/2000/svg"
   xmlns:sodipodi="http://sodipodi.sourceforge.net/DTD/sodipodi-0.dtd"
   xmlns:inkscape="http://www.inkscape.org/namespaces/inkscape"
   width="7.4376283mm"
   height="7.8965173mm"
   viewBox="0 0 90.000003 95.5529"
   id="svg7148"
   version="1.1"
   inkscape:version="0.92.1 r"
   sodipodi:docname="accident_unsecured.svg"
   inkscape:export-filename="/home/brunofernandes/it-git-repos/it2s-android/icsi_demonstrator/app/src/main/res/drawable-xxxhdpi/road_works.png"
   inkscape:export-xdpi="639.52814"
   inkscape:export-ydpi="639.52814">
  <defs
     id="defs7150">
    <clipPath
       clipPathUnits="userSpaceOnUse"
       id="clipPath4656">
      <rect
         style="fill:#ffffff;stroke-width:0.58628535"
         id="rect4658"
         width="19.144819"
         height="20.23105"
         x="630.8186"
         y="-1130.8098"
         transform="scale(1,-1)" />
    </clipPath>
    <clipPath
       clipPathUnits="userSpaceOnUse"
       id="clipPath4656-7">
      <rect
         style="fill:#ffffff;stroke-width:0.58628535"
         id="rect4658-5"
         width="19.144819"
         height="20.23105"
         x="630.8186"
         y="-1130.8098"
         transform="scale(1,-1)" />
    </clipPath>
  </defs>
  <sodipodi:namedview
     id="base"
     pagecolor="#ffffff"
     bordercolor="#666666"
     borderopacity="1.0"
     inkscape:pageopacity="0.0"
     inkscape:pageshadow="2"
     inkscape:zoom="4"
     inkscape:cx="42.493725"
     inkscape:cy="60.139437"
     inkscape:document-units="px"
     inkscape:current-layer="g70"
     showgrid="false"
     fit-margin-top="0"
     fit-margin-left="0"
     fit-margin-right="0"
     fit-margin-bottom="0"
     inkscape:window-width="1680"
     inkscape:window-height="1021"
     inkscape:window-x="0"
     inkscape:window-y="0"
     inkscape:window-maximized="1" />
  <metadata
     id="metadata7153">
    <rdf:RDF>
      <cc:Work
         rdf:about="">
        <dc:format>image/svg+xml</dc:format>
        <dc:type
           rdf:resource="http://purl.org/dc/dcmitype/StillImage" />
        <dc:title />
      </cc:Work>
    </rdf:RDF>
  </metadata>
  <g
     inkscape:label="Layer 1"
     inkscape:groupmode="layer"
     id="layer1"
     transform="translate(-200.46583,-263.77289)">
    <g
       id="g70">
      <g
         id="g4977">
        <g
           id="g4837"
           transform="translate(-89.296871,-10.276481)">
          <g
             inkscape:export-ydpi="159.61241"
             inkscape:export-xdpi="159.61241"
             inkscape:export-filename="/home/brunofernandes/it-git-repos/it2s-android/icsi_demonstrator/app/src/main/res/drawable-mdpi/road_works.png"
             transform="matrix(1.220574,0,0,1.220574,-483.12695,-763.8268)"
             id="g5393-7-9">
            <g
               transform="translate(165.6091,-62.283309)"
               id="g5273-1-2-2">
              <g
                 id="g5270-0-7-2">
                <polyline
                   style="fill:#ffffff;fill-opacity:1"
                   ns2:knockout="Off"
                   points="21.883,173.875 108.918,23.168 195.953,173.875 21.883,173.875 "
                   id="polyline9-2-9-2-5-4-0-8-4-4-8"
                   transform="matrix(0.37277978,0,0,0.36896641,466.11509,912.16153)" />
              </g>
              <g
                 transform="translate(-135.84607,-204.52511)"
                 id="g5240-3-1-9">
                <g
                   id="g5571-8-9-9-7-7"
                   transform="translate(131.16071,130.98214)">
                  <g
                     id="g5664-1-5-9-36"
                     transform="translate(3.2142857)">
                    <g
                       id="g4971-4-2-6-1-2-1"
                       transform="translate(-95.27653,60.700804)">
                      <g
                         transform="translate(7.4612941,173.13848)"
                         id="g8312-0-7-7-2-3-2-2">
                        <g
                           transform="translate(-21.740359,-189.63467)"
                           id="g7499-3-7-5-9-0-8-4-9">
                          <g
                             id="g7646-4-6-1-1-0-3-3">
                            <g
                               transform="translate(-79.770404,-0.92315349)"
                               id="g5864-5-2-7-5-1-9-4-6-19">
                              <path
                                 inkscape:connector-curvature="0"
                                 id="path248-3-3-5-1-5-8-0-6-5-4"
                                 style="fill:#ed1e24;fill-opacity:1;fill-rule:nonzero;stroke:none"
                                 d="m 693.33756,957.87671 c 1.06374,-1.95625 2.8075,-1.95625 3.87375,0 l 23.59,43.31999 c 1.065,1.9562 0.11375,3.5562 -2.11376,3.5562 h -46.8275 c -2.22624,0 -3.1775,-1.6 -2.11249,-3.5562 z m 3.87375,-13.5475 c -1.06625,-1.955 -2.81001,-1.955 -3.87375,0 l -34.49375,63.34879 c -1.06625,1.9549 -0.11625,3.5562 2.11125,3.5562 h 68.63874 c 2.22626,0 3.17625,-1.6013 2.11126,-3.5562 l -34.49375,-63.34879" />
                              <path
                                 inkscape:connector-curvature="0"
                                 id="path250-9-0-7-6-9-0-4-2-7-78"
                                 style="fill:none;fill-opacity:1;fill-rule:nonzero;stroke:none"
                                 d="m 695.27381,954.32046 -27.4625,50.43244 h 54.92625 l -27.46375,-50.43244" />
                            </g>
                          </g>
                        </g>
                      </g>
                    </g>
                  </g>
                </g>
              </g>
            </g>
          </g>
          <g
             id="g5240-3-1-7-4"
             transform="matrix(1.220574,0,0,-1.220574,-446.88192,1733.1379)"
             clip-path="url(#clipPath4656-7)">
            <g
               transform="translate(131.16071,130.98214)"
               id="g5571-8-9-9-7-5-5">
              <g
                 transform="translate(3.2142857)"
                 id="g5664-1-5-9-3-0">
                <g
                   transform="translate(-95.27653,60.700804)"
                   id="g4971-4-2-6-1-2-5-3">
                  <g
                     id="g8312-0-7-7-2-3-2-6-6"
                     transform="translate(7.4612941,173.13848)">
                    <g
                       id="g7499-3-7-5-9-0-8-4-2-1"
                       transform="translate(-21.740359,-189.63467)">
                      <g
                         id="g7646-4-6-1-1-0-3-9-0">
                        <g
                           id="g5864-5-2-7-5-1-9-4-6-1-6"
                           transform="translate(-79.770404,-0.92315349)">
                          <path
                             d="m 693.33756,957.87671 c 1.06374,-1.95625 2.8075,-1.95625 3.87375,0 l 23.59,43.31999 c 1.065,1.9562 0.11375,3.5562 -2.11376,3.5562 h -46.8275 c -2.22624,0 -3.1775,-1.6 -2.11249,-3.5562 z m 3.87375,-13.5475 c -1.06625,-1.955 -2.81001,-1.955 -3.87375,0 l -34.49375,63.34879 c -1.06625,1.9549 -0.11625,3.5562 2.11125,3.5562 h 68.63874 c 2.22626,0 3.17625,-1.6013 2.11126,-3.5562 l -34.49375,-63.34879"
                             style="fill:#ed1e24;fill-opacity:1;fill-rule:nonzero;stroke:none"
                             id="path248-3-3-5-1-5-8-0-6-5-2-3"
                             inkscape:connector-curvature="0" />
                          <path
                             d="m 695.27381,954.32046 -27.4625,50.43244 h 54.92625 l -27.46375,-50.43244"
                             style="fill:none;fill-opacity:1;fill-rule:nonzero;stroke:none"
                             id="path250-9-0-7-6-9-0-4-2-7-7-2"
                             inkscape:connector-curvature="0" />
                        </g>
                      </g>
                    </g>
                  </g>
                </g>
              </g>
            </g>
          </g>
        </g>
        <g
           transform="translate(-4.2077994e-7,-4.8599366e-5)"
           id="g4936">
          <g
             id="g5270-0-7"
             style="fill:#f7f229;fill-opacity:1"
             transform="matrix(1.220574,0,0,1.220574,-373.0204,-850.12462)">
            <polyline
               style="fill:#f7f229;fill-opacity:1"
               ns2:knockout="Off"
               points="21.883,173.875 108.918,23.168 195.953,173.875 21.883,173.875 "
               id="polyline9-2-9-2-5-4-0-8-4-4"
               transform="matrix(0.37277978,0,0,0.36896641,466.11509,912.16153)" />
          </g>
          <g
             transform="matrix(1.220574,0,0,1.220574,-536.09584,-1099.7627)"
             id="g5240-3-1">
            <g
               id="g5571-8-9-9-7"
               transform="translate(131.16071,130.98214)">
              <g
                 id="g5664-1-5-9"
                 transform="translate(3.2142857)">
                <g
                   id="g4971-4-2-6-1-2"
                   transform="translate(-95.27653,60.700804)">
                  <g
                     transform="translate(7.4612941,173.13848)"
                     id="g8312-0-7-7-2-3-2">
                    <g
                       transform="translate(-21.740359,-189.63467)"
                       id="g7499-3-7-5-9-0-8-4">
                      <g
                         id="g7646-4-6-1-1-0-3">
                        <g
                           transform="translate(-79.770404,-0.92315349)"
                           id="g5864-5-2-7-5-1-9-4-6">
                          <path
                             inkscape:connector-curvature="0"
                             id="path248-3-3-5-1-5-8-0-6-5"
                             style="fill:#ed1e24;fill-opacity:1;fill-rule:nonzero;stroke:none"
                             d="m 693.33756,957.87671 c 1.06374,-1.95625 2.8075,-1.95625 3.87375,0 l 23.59,43.31999 c 1.065,1.9562 0.11375,3.5562 -2.11376,3.5562 h -46.8275 c -2.22624,0 -3.1775,-1.6 -2.11249,-3.5562 z m 3.87375,-13.5475 c -1.06625,-1.955 -2.81001,-1.955 -3.87375,0 l -34.49375,63.34879 c -1.06625,1.9549 -0.11625,3.5562 2.11125,3.5562 h 68.63874 c 2.22626,0 3.17625,-1.6013 2.11126,-3.5562 l -34.49375,-63.34879" />
                          <path
                             inkscape:connector-curvature="0"
                             id="path250-9-0-7-6-9-0-4-2-7"
                             style="fill:none;fill-opacity:1;fill-rule:nonzero;stroke:none"
                             d="m 695.27381,954.32046 -27.4625,50.43244 h 54.92625 l -27.46375,-50.43244" />
                        </g>
                      </g>
                    </g>
                  </g>
                </g>
              </g>
            </g>
          </g>
          <path
             style="fill:#000000;fill-opacity:1;fill-rule:evenodd;stroke:none;stroke-width:0.10344926"
             d="m 236.92506,331.66465 c 0.24949,0.87759 0.98896,1.52703 1.89144,1.66143 l 6.87876,1.02689 c 0.30745,0.0458 0.60489,0.13811 0.88214,0.27849 l 0.63728,0.32171 c 0.30389,0.15385 0.65417,0.18746 0.98171,0.0942 l 5.82264,-1.65269 c 0.3086,-0.0874 0.48783,-0.40875 0.40025,-0.71732 l -0.16057,-0.55993 3.90965,-1.11096 c 0.30861,-0.0875 0.48783,-0.4088 0.40026,-0.71735 l -0.87366,-3.07044 c -0.0874,-0.30859 -0.40881,-0.48782 -0.71731,-0.40026 l -3.90964,1.11095 -4.96617,-17.31914 3.90422,-1.12965 c 0.30805,-0.0894 0.48536,-0.41144 0.39625,-0.71959 l -0.88616,-3.06683 c -0.0894,-0.30802 -0.4115,-0.48529 -0.7196,-0.39622 l -3.90426,1.12967 -0.16054,-0.55992 c -0.0894,-0.30807 -0.41146,-0.48534 -0.7196,-0.39626 l -5.81367,1.68399 c -0.32704,0.0948 -0.60639,0.30864 -0.78257,0.60015 l -0.36995,0.6105 c -0.16075,0.26597 -0.36403,0.50189 -0.60053,0.70368 l -5.28938,4.51602 c -0.6941,0.59229 -0.97727,1.53494 -0.72358,2.41129 l 4.49258,15.66756 z m 2.01408,-1.41707 -4.04767,-14.11605 c -0.13721,-0.47473 0.0145,-0.98615 0.3903,-1.30689 l 3.54933,-3.02863 c 0.24412,-0.20811 0.60991,-0.17735 0.81805,0.0667 0.0536,0.0629 0.0926,0.13464 0.11552,0.21399 l 5.45592,19.02707 c 0.0228,0.0794 0.0276,0.16092 0.0154,0.24271 -0.0471,0.31735 -0.34108,0.53723 -0.65838,0.49011 l -4.61494,-0.68754 c -0.48873,-0.0728 -0.88853,-0.42616 -1.02355,-0.90151 z m 9.11972,-5.82088 -2.34889,-8.19149 1.48896,-0.42694 2.34889,8.19152 z"
             id="path3785"
             inkscape:connector-curvature="0"
             sodipodi:nodetypes="cccccccccccccccccccccccccccccccccccccccccccccc" />
        </g>
      </g>
    </g>
  </g>
</svg>
