<?xml version="1.0" encoding="UTF-8" standalone="no"?>
<!-- Created with Inkscape (http://www.inkscape.org/) -->

<svg
   xmlns:ns2="http://ns.adobe.com/AdobeIllustrator/10.0/"
   xmlns:dc="http://purl.org/dc/elements/1.1/"
   xmlns:cc="http://creativecommons.org/ns#"
   xmlns:rdf="http://www.w3.org/1999/02/22-rdf-syntax-ns#"
   xmlns:svg="http://www.w3.org/2000/svg"
   xmlns="http://www.w3.org/2000/svg"
   xmlns:sodipodi="http://sodipodi.sourceforge.net/DTD/sodipodi-0.dtd"
   xmlns:inkscape="http://www.inkscape.org/namespaces/inkscape"
   width="7.4376283mm"
   height="7.8965173mm"
   viewBox="0 0 90.000003 95.552852"
   id="svg6469"
   version="1.1"
   inkscape:version="0.92.1 r"
   sodipodi:docname="accident_multiple_vehicles.svg"
   inkscape:export-filename="/home/brunofernandes/it-git-repos/it2s-android/icsi_demonstrator/app/src/main/res/drawable-xxxhdpi/accident.png"
   inkscape:export-xdpi="639.52814"
   inkscape:export-ydpi="639.52814">
  <defs
     id="defs6471">
    <clipPath
       clipPathUnits="userSpaceOnUse"
       id="clipPath4656">
      <rect
         style="fill:#ffffff;stroke-width:0.58628535"
         id="rect4658"
         width="19.144819"
         height="20.23105"
         x="630.8186"
         y="-1130.8098"
         transform="scale(1,-1)" />
    </clipPath>
    <clipPath
       clipPathUnits="userSpaceOnUse"
       id="clipPath4656-7">
      <rect
         style="fill:#ffffff;stroke-width:0.58628535"
         id="rect4658-5"
         width="19.144819"
         height="20.23105"
         x="630.8186"
         y="-1130.8098"
         transform="scale(1,-1)" />
    </clipPath>
  </defs>
  <sodipodi:namedview
     id="base"
     pagecolor="#ffffff"
     bordercolor="#666666"
     borderopacity="1.0"
     inkscape:pageopacity="0.0"
     inkscape:pageshadow="2"
     inkscape:zoom="3.959798"
     inkscape:cx="125.34188"
     inkscape:cy="26.462985"
     inkscape:document-units="px"
     inkscape:current-layer="layer1"
     showgrid="false"
     fit-margin-top="0"
     fit-margin-left="0"
     fit-margin-right="0"
     fit-margin-bottom="0"
     inkscape:window-width="1680"
     inkscape:window-height="1021"
     inkscape:window-x="0"
     inkscape:window-y="0"
     inkscape:window-maximized="1" />
  <metadata
     id="metadata6474">
    <rdf:RDF>
      <cc:Work
         rdf:about="">
        <dc:format>image/svg+xml</dc:format>
        <dc:type
           rdf:resource="http://purl.org/dc/dcmitype/StillImage" />
        <dc:title />
      </cc:Work>
    </rdf:RDF>
  </metadata>
  <g
     inkscape:label="Layer 1"
     inkscape:groupmode="layer"
     id="layer1"
     transform="translate(-19.943349,-607.03475)">
    <g
       id="g4640">
      <g
         id="g4837"
         transform="translate(-269.81935,332.98533)">
        <g
           inkscape:export-ydpi="159.61241"
           inkscape:export-xdpi="159.61241"
           inkscape:export-filename="/home/brunofernandes/it-git-repos/it2s-android/icsi_demonstrator/app/src/main/res/drawable-mdpi/road_works.png"
           transform="matrix(1.220574,0,0,1.220574,-483.12695,-763.8268)"
           id="g5393-7-9">
          <g
             transform="translate(165.6091,-62.283309)"
             id="g5273-1-2-2">
            <g
               id="g5270-0-7-2">
              <polyline
                 style="fill:#ffffff;fill-opacity:1"
                 ns2:knockout="Off"
                 points="21.883,173.875 108.918,23.168 195.953,173.875 21.883,173.875 "
                 id="polyline9-2-9-2-5-4-0-8-4-4-8"
                 transform="matrix(0.37277978,0,0,0.36896641,466.11509,912.16153)" />
            </g>
            <g
               transform="translate(-135.84607,-204.52511)"
               id="g5240-3-1-9">
              <g
                 id="g5571-8-9-9-7-7"
                 transform="translate(131.16071,130.98214)">
                <g
                   id="g5664-1-5-9-36"
                   transform="translate(3.2142857)">
                  <g
                     id="g4971-4-2-6-1-2-1"
                     transform="translate(-95.27653,60.700804)">
                    <g
                       transform="translate(7.4612941,173.13848)"
                       id="g8312-0-7-7-2-3-2-2">
                      <g
                         transform="translate(-21.740359,-189.63467)"
                         id="g7499-3-7-5-9-0-8-4-9">
                        <g
                           id="g7646-4-6-1-1-0-3-3">
                          <g
                             transform="translate(-79.770404,-0.92315349)"
                             id="g5864-5-2-7-5-1-9-4-6-19">
                            <path
                               inkscape:connector-curvature="0"
                               id="path248-3-3-5-1-5-8-0-6-5-4"
                               style="fill:#ed1e24;fill-opacity:1;fill-rule:nonzero;stroke:none"
                               d="m 693.33756,957.87671 c 1.06374,-1.95625 2.8075,-1.95625 3.87375,0 l 23.59,43.31999 c 1.065,1.9562 0.11375,3.5562 -2.11376,3.5562 h -46.8275 c -2.22624,0 -3.1775,-1.6 -2.11249,-3.5562 z m 3.87375,-13.5475 c -1.06625,-1.955 -2.81001,-1.955 -3.87375,0 l -34.49375,63.34879 c -1.06625,1.9549 -0.11625,3.5562 2.11125,3.5562 h 68.63874 c 2.22626,0 3.17625,-1.6013 2.11126,-3.5562 l -34.49375,-63.34879" />
                            <path
                               inkscape:connector-curvature="0"
                               id="path250-9-0-7-6-9-0-4-2-7-78"
                               style="fill:none;fill-opacity:1;fill-rule:nonzero;stroke:none"
                               d="m 695.27381,954.32046 -27.4625,50.43244 h 54.92625 l -27.46375,-50.43244" />
                          </g>
                        </g>
                      </g>
                    </g>
                  </g>
                </g>
              </g>
            </g>
          </g>
        </g>
        <g
           id="g5240-3-1-7-4"
           transform="matrix(1.220574,0,0,-1.220574,-446.88192,1733.1379)"
           clip-path="url(#clipPath4656-7)">
          <g
             transform="translate(131.16071,130.98214)"
             id="g5571-8-9-9-7-5-5">
            <g
               transform="translate(3.2142857)"
               id="g5664-1-5-9-3-0">
              <g
                 transform="translate(-95.27653,60.700804)"
                 id="g4971-4-2-6-1-2-5-3">
                <g
                   id="g8312-0-7-7-2-3-2-6-6"
                   transform="translate(7.4612941,173.13848)">
                  <g
                     id="g7499-3-7-5-9-0-8-4-2-1"
                     transform="translate(-21.740359,-189.63467)">
                    <g
                       id="g7646-4-6-1-1-0-3-9-0">
                      <g
                         id="g5864-5-2-7-5-1-9-4-6-1-6"
                         transform="translate(-79.770404,-0.92315349)">
                        <path
                           d="m 693.33756,957.87671 c 1.06374,-1.95625 2.8075,-1.95625 3.87375,0 l 23.59,43.31999 c 1.065,1.9562 0.11375,3.5562 -2.11376,3.5562 h -46.8275 c -2.22624,0 -3.1775,-1.6 -2.11249,-3.5562 z m 3.87375,-13.5475 c -1.06625,-1.955 -2.81001,-1.955 -3.87375,0 l -34.49375,63.34879 c -1.06625,1.9549 -0.11625,3.5562 2.11125,3.5562 h 68.63874 c 2.22626,0 3.17625,-1.6013 2.11126,-3.5562 l -34.49375,-63.34879"
                           style="fill:#ed1e24;fill-opacity:1;fill-rule:nonzero;stroke:none"
                           id="path248-3-3-5-1-5-8-0-6-5-2-3"
                           inkscape:connector-curvature="0" />
                        <path
                           d="m 695.27381,954.32046 -27.4625,50.43244 h 54.92625 l -27.46375,-50.43244"
                           style="fill:none;fill-opacity:1;fill-rule:nonzero;stroke:none"
                           id="path250-9-0-7-6-9-0-4-2-7-7-2"
                           inkscape:connector-curvature="0" />
                      </g>
                    </g>
                  </g>
                </g>
              </g>
            </g>
          </g>
        </g>
      </g>
      <g
         id="g4855-9-7"
         transform="matrix(0.21968716,0,0,0.21968716,132.541,614.98402)">
        <path
           inkscape:connector-curvature="0"
           style="fill:#000000;fill-opacity:1"
           d="m 409.45898,437.75 c -1.01944,-0.0473 -2.23699,0.54238 -3.79296,1.81445 -0.59354,0.48524 -1.2573,0.88282 -1.47461,0.88282 -0.48731,0 -0.6943,0.2964 -0.42969,0.61523 0.15309,0.18446 0.045,0.35342 -0.47852,0.74414 -0.37267,0.27811 -1.73067,1.36243 -3.01758,2.41016 -1.28687,1.04772 -2.5504,2.01199 -2.80664,2.14258 -0.87828,0.44756 -3.12825,2.46964 -3.54296,3.18359 -0.57652,0.99251 -0.45895,1.98401 0.38086,3.20117 0.97754,1.41683 3.00342,3.55993 3.61914,3.82813 0.95168,0.41454 1.59756,0.30661 2.73242,-0.45704 0.58049,-0.39061 1.58311,-1.21768 2.22656,-1.83789 0.64345,-0.6202 1.93848,-1.72786 2.87891,-2.46289 0.94043,-0.73502 2.20919,-1.77174 2.81836,-2.30273 1.19411,-1.04087 1.32226,-1.10811 1.32226,-0.69531 0,0.14849 0.0653,0.26953 0.14453,0.26953 0.23974,0 0.57509,-0.41421 0.57617,-0.71094 5.6e-4,-0.15344 0.60483,-0.74354 1.3418,-1.3125 1.63784,-1.26447 2.48633,-2.42294 2.48633,-3.39258 0,-0.40402 -0.21619,-1.11726 -0.51953,-1.7168 -0.56963,-1.12582 -2.70795,-3.53269 -3.50586,-3.94531 -0.30088,-0.15559 -0.61917,-0.24204 -0.95899,-0.25781 z m -3.02148,2.91016 c 0.24136,0.008 0.53971,0.0985 0.98438,0.25 1.83702,0.62594 3.4082,2.70439 3.44335,4.55664 l 0.0195,1.00781 -1.25977,0.8457 c -0.69295,0.46551 -1.30207,0.85124 -1.35156,0.85547 -0.0495,0.004 -0.37228,-0.49603 -0.71875,-1.11133 -0.34648,-0.6153 -1.2999,-1.80335 -2.11719,-2.63867 -1.68051,-1.71757 -1.66483,-1.41691 -0.14648,-3.0332 0.50072,-0.53302 0.74422,-0.74654 1.14648,-0.73242 z m -2.10938,1.00976 c 0.0584,-10e-4 -0.13976,0.21942 -0.64257,0.75 -0.49497,0.52231 -1.60968,1.54528 -2.47657,2.27344 -0.86689,0.72815 -2.20421,1.73594 -2.9707,2.24023 l -1.39258,0.91797 1.08203,-1.04687 c 1.09318,-1.05742 4.86405,-4.13095 6.02735,-4.91211 0.21118,-0.14181 0.33803,-0.22185 0.37304,-0.22266 z m -6.2539,6.26563 0.28516,0.4375 c 0.76915,1.17876 2.42145,3.25379 2.98437,3.74804 0.3475,0.30511 0.63086,0.59077 0.63086,0.63477 0,0.044 -0.51765,0.49065 -1.15039,0.99414 -0.63274,0.50349 -1.26448,0.91602 -1.4043,0.91602 -0.43584,0 -1.8502,-0.99517 -2.45508,-1.72852 -0.54355,-0.65901 -1.30405,-2.34032 -1.27734,-2.82227 0.007,-0.12002 0.54625,-0.66002 1.19922,-1.19921 z m 11.31445,0.16992 c 0.18895,-0.005 -0.63484,0.75736 -2.45703,2.2207 -1.1914,0.95678 -2.70335,2.12224 -3.35937,2.58985 -0.65603,0.4676 -1.25395,0.8496 -1.32813,0.8496 -0.32308,0 3.186,-3.04909 4.85742,-4.2207 1.37988,-0.96724 2.14015,-1.43525 2.28711,-1.43945 z"
           transform="matrix(5.5559642,0,0,5.5559642,-2581.6794,-2243.6973)"
           id="path4166-3-0" />
        <g
           id="g4840-8-5">
          <path
             style="fill:#000000;fill-opacity:1"
             d="m -289.84667,279.16102 c -2.06073,-5.6375 -5.01557,-13.71357 -6.56631,-17.94682 -2.77567,-7.57709 -2.78794,-7.70684 -0.78893,-8.34131 1.11683,-0.35446 2.15212,-0.49089 2.30064,-0.30318 0.70768,0.89445 12.59015,34.49879 12.58506,35.59131 -0.003,0.6875 -0.85584,1.25 -1.89475,1.25 -1.48535,0 -2.68944,-2.18994 -5.63571,-10.25 z"
             id="path4156-3-4"
             inkscape:connector-curvature="0" />
          <path
             style="fill:#000000;fill-opacity:1"
             d="m -278.56121,270.60041 c -4.72843,-6.42916 -10.00356,-13.57558 -11.7225,-15.88092 -2.99011,-4.01016 -3.04153,-4.23639 -1.18839,-5.22815 1.7223,-0.92175 3.22315,0.6769 13.54351,14.42613 6.38361,8.50452 11.60656,15.67886 11.60656,15.94297 0,0.26412 -0.81946,0.91877 -1.82101,1.45479 -1.56318,0.83659 -3.03829,-0.68052 -10.41817,-10.71482 z"
             id="path4154-9-3"
             inkscape:connector-curvature="0" />
          <path
             style="fill:#000000;fill-opacity:1"
             d="m -271.82203,258.80227 c -8.25,-5.77353 -15.675,-10.89798 -16.5,-11.38767 -1.3207,-0.78392 -1.30619,-1.08665 0.12141,-2.53266 1.50076,-1.52011 2.82172,-0.81296 17.75289,9.50372 14.43804,9.97594 16.02251,11.34965 15.09341,13.08569 -0.57094,1.06682 -1.13474,1.9146 -1.25289,1.88396 -0.11815,-0.0307 -6.96482,-4.77951 -15.21482,-10.55304 z"
             id="path4152-3-0"
             inkscape:connector-curvature="0" />
          <path
             inkscape:connector-curvature="0"
             style="fill:#000000;fill-opacity:1"
             d="m 411.51172,427.38672 c -0.76289,-0.0149 -1.72647,0.38716 -3.04492,1.26367 -2.03355,1.3519 -3.43473,3.09996 -3.42969,4.27734 9.7e-4,0.22592 0.19124,0.81559 0.42383,1.31055 0.45879,0.97634 2.01719,3.13041 2.35937,3.26172 0.11634,0.0446 0.44086,-0.005 0.72071,-0.11133 l 0.50976,-0.19336 -0.47851,-0.49804 c -0.58562,-0.61126 -0.59449,-0.9437 -0.0508,-2.11133 0.80755,-1.73425 2.17069,-2.88652 3.9336,-3.32617 1.51053,-0.37671 1.91397,-0.17688 2.85156,1.41406 l 0.82422,1.39648 -1.2168,0.69336 c -1.28899,0.73496 -3.40039,2.35766 -3.40039,2.61328 0,0.0838 0.21051,0.20326 0.4668,0.26758 0.65718,0.16494 2.07443,1.64639 2.5957,2.71289 0.38344,0.78451 0.43936,1.153 0.44531,2.87891 0.004,1.08892 0.082,2.10151 0.17383,2.25 0.14202,0.22949 0.1232,0.23433 -0.125,0.0332 -0.24793,-0.20091 -0.32087,-0.18247 -0.48437,0.12305 -0.16398,0.30639 -0.0357,0.55641 0.85742,1.67773 1.24345,1.56122 1.43851,1.73277 2.32422,2.04883 0.83396,0.29759 0.87717,0.29849 1.71289,0.0664 0.65875,-0.18294 3.6847,-2.46519 4.66601,-3.51953 0.5802,-0.62338 0.86719,-1.32458 0.86719,-2.12305 0,-0.76316 -1.09182,-2.46251 -2.53125,-3.93945 -0.59886,-0.61447 -1.66523,-1.88575 -2.36914,-2.82618 -0.70391,-0.94043 -1.80651,-2.34687 -2.45117,-3.125 -1.02971,-1.24288 -1.13548,-1.43642 -0.86133,-1.58984 0.24604,-0.13769 0.26871,-0.22828 0.10156,-0.42969 -0.1166,-0.1405 -0.34474,-0.25821 -0.50586,-0.26172 -0.16111,-0.004 -0.73874,-0.62411 -1.2832,-1.3789 -1.13238,-1.56984 -2.39823,-2.65747 -3.28711,-2.82422 -0.10127,-0.019 -0.20547,-0.0291 -0.31445,-0.0312 z m 4.14453,4.79297 c 0.002,-0.032 0.0432,-0.0101 0.12891,0.0781 0.83601,0.86043 4.88298,6.13924 5.6914,7.42383 0.26477,0.42072 0.45169,0.76563 0.41602,0.76563 -0.16566,0 -2.14127,-2.22451 -3.19727,-3.59961 -1.19644,-1.55801 -3.05327,-4.44378 -3.03906,-4.66797 z m 5.17773,8.43945 0.88477,1.12891 c 1.21687,1.55421 1.19168,1.48095 0.77344,2.30078 -0.56769,1.11275 -1.54746,2.09805 -2.58008,2.59375 -0.51086,0.24523 -1.21212,0.49341 -1.55859,0.55273 -0.60857,0.1042 -0.6643,0.0639 -1.64258,-1.18554 l -1.01172,-1.29297 1.36328,-0.91211 c 0.74991,-0.50157 1.90572,-1.42373 2.56836,-2.04883 z"
             transform="matrix(5.5559642,0,0,5.5559642,-2581.6794,-2243.6973)"
             id="path4150-5-3" />
          <path
             style="fill:#000000;fill-opacity:1"
             d="m -354.32203,190.31751 c -7.975,-5.53179 -15.175,-10.44827 -16,-10.92553 -1.31633,-0.76148 -1.29677,-1.07351 0.15976,-2.54839 1.552,-1.57154 2.39597,-1.1748 13,6.11126 19.17795,13.17723 20.78058,14.44806 20.18326,16.00465 -0.30635,0.79833 -1.07135,1.44348 -1.70001,1.43366 -0.62865,-0.01 -7.66801,-4.54387 -15.64301,-10.07565 z"
             id="path4144-7-8"
             inkscape:connector-curvature="0" />
          <path
             style="fill:#000000;fill-opacity:1"
             d="m -347.90719,179.77479 c -8.73978,-11.78888 -11.26267,-15.84499 -10.25344,-16.48468 0.73623,-0.46666 1.66884,-0.85536 2.07246,-0.86378 0.40363,-0.008 5.88485,6.83878 12.18048,15.21599 8.54652,11.37233 11.17985,15.55274 10.3937,16.5 -0.57911,0.69779 -1.44628,1.2687 -1.92705,1.2687 -0.48076,0 -6.09053,-7.0363 -12.46615,-15.63623 z"
             id="path4142-6-8"
             inkscape:connector-curvature="0" />
          <path
             style="fill:#000000;fill-opacity:1"
             d="m -331.24313,190.08175 c -7.76542,-20.77664 -12.1262,-33.78518 -11.60715,-34.62502 0.56809,-0.91919 3.52825,-1.54099 3.52825,-0.74112 0,0.16752 2.925,8.30401 6.5,18.08108 3.575,9.77707 6.5,17.91252 6.5,18.07878 0,0.16626 -0.9247,0.5441 -2.05489,0.83965 -1.48099,0.38729 -2.28147,-0.0689 -2.86621,-1.63337 z"
             id="path4138-5-9"
             inkscape:connector-curvature="0" />
        </g>
      </g>
    </g>
  </g>
</svg>
