<?xml version="1.0" encoding="UTF-8" standalone="no"?>
<!-- Created with Inkscape (http://www.inkscape.org/) -->

<svg
   xmlns:dc="http://purl.org/dc/elements/1.1/"
   xmlns:cc="http://creativecommons.org/ns#"
   xmlns:rdf="http://www.w3.org/1999/02/22-rdf-syntax-ns#"
   xmlns:svg="http://www.w3.org/2000/svg"
   xmlns="http://www.w3.org/2000/svg"
   xmlns:sodipodi="http://sodipodi.sourceforge.net/DTD/sodipodi-0.dtd"
   xmlns:inkscape="http://www.inkscape.org/namespaces/inkscape"
   width="7.4376283mm"
   height="7.8965173mm"
   viewBox="0 0 105.43823 51.728313"
   id="svg7148"
   version="1.1"
   inkscape:version="0.92.2 2405546, 2018-03-11"
   sodipodi:docname="adhesion.svg"
   inkscape:export-filename="/home/brunofernandes/it-git-repos/it2s-android/icsi_demonstrator/app/src/main/res/drawable-xxxhdpi/road_works.png"
   inkscape:export-xdpi="639.52814"
   inkscape:export-ydpi="639.52814">
  <defs
     id="defs7150">
    <clipPath
       clipPathUnits="userSpaceOnUse"
       id="clipPath4656">
      <rect
         style="fill:#ffffff;stroke-width:0.58628535"
         id="rect4658"
         width="19.144819"
         height="20.23105"
         x="630.8186"
         y="-1130.8098"
         transform="scale(1,-1)" />
    </clipPath>
    <clipPath
       clipPathUnits="userSpaceOnUse"
       id="clipPath4656-7">
      <rect
         style="fill:#ffffff;stroke-width:0.58628535"
         id="rect4658-5"
         width="19.144819"
         height="20.23105"
         x="630.8186"
         y="-1130.8098"
         transform="scale(1,-1)" />
    </clipPath>
    <clipPath
       clipPathUnits="userSpaceOnUse"
       id="clipPath4656-7-3">
      <rect
         style="fill:#ffffff;stroke-width:0.58628535"
         id="rect4658-5-6"
         width="19.144819"
         height="20.23105"
         x="630.8186"
         y="-1130.8098"
         transform="scale(1,-1)" />
    </clipPath>
    <clipPath
       clipPathUnits="userSpaceOnUse"
       id="clipPath4656-7-36">
      <rect
         style="fill:#ffffff;stroke-width:0.58628535"
         id="rect4658-5-7"
         width="19.144819"
         height="20.23105"
         x="630.8186"
         y="-1130.8098"
         transform="scale(1,-1)" />
    </clipPath>
    <clipPath
       clipPathUnits="userSpaceOnUse"
       id="clipPath4656-7-367">
      <rect
         style="fill:#ffffff;stroke-width:0.58628535"
         id="rect4658-5-5"
         width="19.144819"
         height="20.23105"
         x="630.8186"
         y="-1130.8098"
         transform="scale(1,-1)" />
    </clipPath>
  </defs>
  <sodipodi:namedview
     id="base"
     pagecolor="#ffffff"
     bordercolor="#666666"
     borderopacity="1.0"
     inkscape:pageopacity="0.0"
     inkscape:pageshadow="2"
     inkscape:zoom="7.2407734"
     inkscape:cx="10.141357"
     inkscape:cy="-9.5828935"
     inkscape:document-units="px"
     inkscape:current-layer="g70"
     showgrid="false"
     fit-margin-top="0"
     fit-margin-left="0"
     fit-margin-right="0"
     fit-margin-bottom="0"
     inkscape:window-width="954"
     inkscape:window-height="1017"
     inkscape:window-x="0"
     inkscape:window-y="31"
     inkscape:window-maximized="0"
     inkscape:document-rotation="0"
     showguides="true"
     inkscape:guide-bbox="true">
    <sodipodi:guide
       position="102.94705,-18.252965"
       orientation="0,1"
       id="guide4576"
       inkscape:locked="false" />
  </sodipodi:namedview>
  <metadata
     id="metadata7153">
    <rdf:RDF>
      <cc:Work
         rdf:about="">
        <dc:format>image/svg+xml</dc:format>
        <dc:type
           rdf:resource="http://purl.org/dc/dcmitype/StillImage" />
        <dc:title></dc:title>
      </cc:Work>
    </rdf:RDF>
  </metadata>
  <g
     inkscape:label="Layer 1"
     inkscape:groupmode="layer"
     id="layer1"
     transform="translate(-435.70112,-310.97448)">
    <g
       id="g70">
      <path
         inkscape:connector-curvature="0"
         id="path248-3-3-5-1-5-8-0-6-5-4"
         style="fill:#ed1e24;fill-opacity:1;fill-rule:nonzero;stroke:none;stroke-width:1.19754624"
         d="m 486.10116,304.30292 c 1.27388,-2.3427 3.36211,-2.3427 4.63899,0 l 28.25012,51.87769 c 1.27539,2.34264 0.13622,4.25872 -2.53133,4.25872 h -56.07809 c -2.66603,0 -3.8052,-1.91608 -2.5298,-4.25872 z m 4.63899,-16.22375 c -1.27688,-2.34121 -3.36511,-2.34121 -4.63899,0 l -41.30786,75.8631 c -1.27688,2.34108 -0.13921,4.25871 2.52832,4.25871 h 82.19806 c 2.66605,0 3.80371,-1.91763 2.52833,-4.25871 l -41.30786,-75.8631" />
      <path
         inkscape:connector-curvature="0"
         id="path250-9-0-7-6-9-0-4-2-7-78"
         style="fill:none;fill-opacity:1;fill-rule:nonzero;stroke:none;stroke-width:1.19754624"
         d="m 488.41991,300.04415 -32.88761,60.39518 h 65.77672 l -32.88911,-60.39518" />
      <g
         id="g5240-3-1-7-4"
         transform="matrix(1.1975462,0,0,-1.1975462,-278.47763,1717.884)"
         clip-path="url(#clipPath4656-7-367)">
        <g
           transform="translate(131.16071,130.98214)"
           id="g5571-8-9-9-7-5-5">
          <g
             transform="translate(3.2142857)"
             id="g5664-1-5-9-3-0">
            <g
               transform="translate(-95.27653,60.700804)"
               id="g4971-4-2-6-1-2-5-3">
              <g
                 id="g8312-0-7-7-2-3-2-6-6"
                 transform="translate(7.4612941,173.13848)">
                <g
                   id="g7499-3-7-5-9-0-8-4-2-1"
                   transform="translate(-21.740359,-189.63467)">
                  <g
                     id="g7646-4-6-1-1-0-3-9-0">
                    <g
                       id="g5864-5-2-7-5-1-9-4-6-1-6"
                       transform="translate(-79.770404,-0.92315349)">
                      <path
                         d="m 693.33756,957.87671 c 1.06374,-1.95625 2.8075,-1.95625 3.87375,0 l 23.59,43.31999 c 1.065,1.9562 0.11375,3.5562 -2.11376,3.5562 h -46.8275 c -2.22624,0 -3.1775,-1.6 -2.11249,-3.5562 z m 3.87375,-13.5475 c -1.06625,-1.955 -2.81001,-1.955 -3.87375,0 l -34.49375,63.34879 c -1.06625,1.9549 -0.11625,3.5562 2.11125,3.5562 h 68.63874 c 2.22626,0 3.17625,-1.6013 2.11126,-3.5562 l -34.49375,-63.34879"
                         style="fill:#ed1e24;fill-opacity:1;fill-rule:nonzero;stroke:none"
                         id="path248-3-3-5-1-5-8-0-6-5-2-3"
                         inkscape:connector-curvature="0" />
                      <path
                         d="m 695.27381,954.32046 -27.4625,50.43244 h 54.92625 l -27.46375,-50.43244"
                         style="fill:none;fill-opacity:1;fill-rule:nonzero;stroke:none"
                         id="path250-9-0-7-6-9-0-4-2-7-7-2"
                         inkscape:connector-curvature="0" />
                    </g>
                  </g>
                </g>
              </g>
            </g>
          </g>
        </g>
      </g>
      <rect
         style="opacity:0.73000004;fill:none;stroke:none;stroke-width:0.43821755;stroke-opacity:1"
         id="rect4295"
         width="105.00001"
         height="103.12501"
         x="435.92023"
         y="285.3858" />
      <rect
         style="opacity:0.73000004;fill:none;stroke-width:0.20812503"
         id="rect4298"
         width="2.1093752"
         height="0.93750012"
         x="487.36554"
         y="336.47955" />
      <g
         transform="matrix(0.10571654,0,0,0.10571654,875.3015,967.45186)"
         id="g5926">
        <path
           sodipodi:nodetypes="cccccccccccccccssccssscccccsccsccccc"
           d="m 462.12967,387.32257 -99.08,8.571 -28.835,-7.938 c -1.828,-0.503 -3.581,-1.25 -5.21,-2.22 -10.049,-5.982 -13.347,-18.978 -7.365,-29.027 l 4.482,-7.53 -7.911,-4.709 -4.482,7.53 c -8.583,14.419 -3.851,33.065 10.567,41.647 2.338,1.392 4.852,2.463 7.476,3.185 l 4.885,1.345 -6.781,0.587 c -14.184,1.227 -24.688,13.72 -23.461,27.905 0.942,10.888 8.647,19.999 19.227,22.736 l 56.738,14.677 c 4.876,1.261 8.281,5.66 8.281,10.696 0,6.102 -4.946,11.048 -11.048,11.048 h -103.222 v 9.207 h 103.222 c 11.186,0 20.255,-9.068 20.255,-20.255 0,-9.233 -6.244,-17.297 -15.182,-19.609 l -56.738,-14.677 c -6.802,-1.759 -11.755,-7.616 -12.36,-14.616 -0.789,-9.118 5.964,-17.15 15.082,-17.939 l 31.529,-2.727 151.898,41.818 c 4.794,1.32 8.116,5.679 8.116,10.652 v 14.336 h 9.207 v -14.336 c 0,-9.116 -6.09,-17.109 -14.879,-19.528 l -127.948,-35.225 74.332,-6.43 z"
           id="path3795"
           style="clip-rule:evenodd;fill:#000000;fill-rule:evenodd;stroke:none"
           inkscape:connector-curvature="0"
           transform="matrix(1.3436199,0,0,1.3436199,-4202.3192,-6420.1367)" />
        <path
           style="fill:#000000;fill-rule:evenodd;stroke:none"
           d="m -3659.1849,-6123.9329 c -6.3944,-2.8644 -13.8654,-1.7199 -19.1111,2.9258 l -39.9974,35.3985 c -1.7874,1.5828 -3.7988,2.8767 -5.9934,3.8149 l -5.0381,2.1611 c -2.4054,1.0281 -4.3321,2.9231 -5.4006,5.3098 l -19.0203,42.413 c -1.011,2.2461 0,4.8877 2.2443,5.8957 l 4.0867,1.8195 -12.7641,28.4843 c -1.011,2.2462 0,4.8877 2.2443,5.8957 l 22.3759,10.0172 c 2.2461,1.011 4.8878,0 5.8958,-2.2443 l 12.7641,-28.4842 126.4032,56.2784 -12.627,28.5452 c -0.9927,2.2543 0.025,4.8862 2.2773,5.8831 l 22.4165,9.9258 c 2.2544,0.9928 4.8862,-0.025 5.8832,-2.2772 l 12.627,-28.5453 4.0866,1.8195 c 2.2543,0.9927 4.8862,-0.025 5.8831,-2.2772 l 18.7919,-42.5146 c 1.0545,-2.393 1.1778,-5.0909 0.3323,-7.5664 l -1.7651,-5.1901 c -0.7713,-2.2587 -1.1556,-4.6193 -1.1754,-7.0066 l -0.4573,-53.4101 c -0.058,-7.0069 -4.2054,-13.3262 -10.6135,-16.16 l -114.3491,-50.9116 z m -1.6058,18.8443 103.0254,45.8698 c 3.4709,1.5344 5.7301,4.9532 5.7618,8.7476 l 0.2963,35.831 c 0.019,2.4637 -1.9675,4.4634 -4.4308,4.4832 -0.6348,0.01 -1.2492,-0.1202 -1.8292,-0.3766 l -138.8685,-61.8283 c -0.5794,-0.2579 -1.0831,-0.632 -1.5039,-1.1073 -1.6342,-1.8441 -1.4771,-4.6586 0.367,-6.2926 l 26.8257,-23.7554 c 2.841,-2.5155 6.8932,-3.1235 10.3562,-1.5714 z m -10.7745,82.3849 59.7855,26.6182 -4.8384,10.8671 -59.7854,-26.6182 z"
           id="path3868"
           inkscape:connector-curvature="0"
           sodipodi:nodetypes="cccccccccccccccccccccccccccccccccccccccccccccc" />
      </g>
    </g>
  </g>
</svg>
