<?xml version="1.0" encoding="UTF-8" standalone="no"?>
<!-- Created with Inkscape (http://www.inkscape.org/) -->

<svg
   xmlns:ns2="http://ns.adobe.com/AdobeIllustrator/10.0/"
   xmlns:dc="http://purl.org/dc/elements/1.1/"
   xmlns:cc="http://creativecommons.org/ns#"
   xmlns:rdf="http://www.w3.org/1999/02/22-rdf-syntax-ns#"
   xmlns:svg="http://www.w3.org/2000/svg"
   xmlns="http://www.w3.org/2000/svg"
   xmlns:sodipodi="http://sodipodi.sourceforge.net/DTD/sodipodi-0.dtd"
   xmlns:inkscape="http://www.inkscape.org/namespaces/inkscape"
   width="7.4376283mm"
   height="7.8965173mm"
   viewBox="0 0 90.000003 95.552852"
   id="svg7148"
   version="1.1"
   inkscape:version="0.92.1 r"
   sodipodi:docname="animals_on_the_road_herd.svg"
   inkscape:export-filename="/home/brunofernandes/it-git-repos/it2s-android/icsi_demonstrator/app/src/main/res/drawable-xxxhdpi/road_works.png"
   inkscape:export-xdpi="639.52814"
   inkscape:export-ydpi="639.52814">
  <defs
     id="defs7150">
    <clipPath
       clipPathUnits="userSpaceOnUse"
       id="clipPath4656">
      <rect
         style="fill:#ffffff;stroke-width:0.58628535"
         id="rect4658"
         width="19.144819"
         height="20.23105"
         x="630.8186"
         y="-1130.8098"
         transform="scale(1,-1)" />
    </clipPath>
    <clipPath
       clipPathUnits="userSpaceOnUse"
       id="clipPath4656-7">
      <rect
         style="fill:#ffffff;stroke-width:0.58628535"
         id="rect4658-5"
         width="19.144819"
         height="20.23105"
         x="630.8186"
         y="-1130.8098"
         transform="scale(1,-1)" />
    </clipPath>
  </defs>
  <sodipodi:namedview
     id="base"
     pagecolor="#ffffff"
     bordercolor="#666666"
     borderopacity="1.0"
     inkscape:pageopacity="0.0"
     inkscape:pageshadow="2"
     inkscape:zoom="3.959798"
     inkscape:cx="0.74602356"
     inkscape:cy="27.461602"
     inkscape:document-units="px"
     inkscape:current-layer="layer1"
     showgrid="false"
     fit-margin-top="0"
     fit-margin-left="0"
     fit-margin-right="0"
     fit-margin-bottom="0"
     inkscape:window-width="1680"
     inkscape:window-height="1021"
     inkscape:window-x="0"
     inkscape:window-y="0"
     inkscape:window-maximized="1" />
  <metadata
     id="metadata7153">
    <rdf:RDF>
      <cc:Work
         rdf:about="">
        <dc:format>image/svg+xml</dc:format>
        <dc:type
           rdf:resource="http://purl.org/dc/dcmitype/StillImage" />
        <dc:title />
      </cc:Work>
    </rdf:RDF>
  </metadata>
  <g
     inkscape:label="Layer 1"
     inkscape:groupmode="layer"
     id="layer1"
     transform="translate(-296.33475,-263.52633)">
    <g
       id="g4623">
      <g
         id="g4594">
        <g
           transform="translate(6.5720558,-10.523083)"
           id="g4837">
          <g
             id="g5393-7-9"
             transform="matrix(1.220574,0,0,1.220574,-483.12695,-763.8268)"
             inkscape:export-filename="/home/brunofernandes/it-git-repos/it2s-android/icsi_demonstrator/app/src/main/res/drawable-mdpi/road_works.png"
             inkscape:export-xdpi="159.61241"
             inkscape:export-ydpi="159.61241">
            <g
               id="g5273-1-2-2"
               transform="translate(165.6091,-62.283309)">
              <g
                 id="g5270-0-7-2">
                <polyline
                   transform="matrix(0.37277978,0,0,0.36896641,466.11509,912.16153)"
                   id="polyline9-2-9-2-5-4-0-8-4-4-8"
                   points="21.883,173.875 108.918,23.168 195.953,173.875 21.883,173.875 "
                   ns2:knockout="Off"
                   style="fill:#ffffff;fill-opacity:1" />
              </g>
              <g
                 id="g5240-3-1-9"
                 transform="translate(-135.84607,-204.52511)">
                <g
                   transform="translate(131.16071,130.98214)"
                   id="g5571-8-9-9-7-7">
                  <g
                     transform="translate(3.2142857)"
                     id="g5664-1-5-9-36">
                    <g
                       transform="translate(-95.27653,60.700804)"
                       id="g4971-4-2-6-1-2-1">
                      <g
                         id="g8312-0-7-7-2-3-2-2"
                         transform="translate(7.4612941,173.13848)">
                        <g
                           id="g7499-3-7-5-9-0-8-4-9"
                           transform="translate(-21.740359,-189.63467)">
                          <g
                             id="g7646-4-6-1-1-0-3-3">
                            <g
                               id="g5864-5-2-7-5-1-9-4-6-19"
                               transform="translate(-79.770404,-0.92315349)">
                              <path
                                 d="m 693.33756,957.87671 c 1.06374,-1.95625 2.8075,-1.95625 3.87375,0 l 23.59,43.31999 c 1.065,1.9562 0.11375,3.5562 -2.11376,3.5562 h -46.8275 c -2.22624,0 -3.1775,-1.6 -2.11249,-3.5562 z m 3.87375,-13.5475 c -1.06625,-1.955 -2.81001,-1.955 -3.87375,0 l -34.49375,63.34879 c -1.06625,1.9549 -0.11625,3.5562 2.11125,3.5562 h 68.63874 c 2.22626,0 3.17625,-1.6013 2.11126,-3.5562 l -34.49375,-63.34879"
                                 style="fill:#ed1e24;fill-opacity:1;fill-rule:nonzero;stroke:none"
                                 id="path248-3-3-5-1-5-8-0-6-5-4"
                                 inkscape:connector-curvature="0" />
                              <path
                                 d="m 695.27381,954.32046 -27.4625,50.43244 h 54.92625 l -27.46375,-50.43244"
                                 style="fill:none;fill-opacity:1;fill-rule:nonzero;stroke:none"
                                 id="path250-9-0-7-6-9-0-4-2-7-78"
                                 inkscape:connector-curvature="0" />
                            </g>
                          </g>
                        </g>
                      </g>
                    </g>
                  </g>
                </g>
              </g>
            </g>
          </g>
          <g
             clip-path="url(#clipPath4656-7)"
             transform="matrix(1.220574,0,0,-1.220574,-446.88192,1733.1379)"
             id="g5240-3-1-7-4">
            <g
               id="g5571-8-9-9-7-5-5"
               transform="translate(131.16071,130.98214)">
              <g
                 id="g5664-1-5-9-3-0"
                 transform="translate(3.2142857)">
                <g
                   id="g4971-4-2-6-1-2-5-3"
                   transform="translate(-95.27653,60.700804)">
                  <g
                     transform="translate(7.4612941,173.13848)"
                     id="g8312-0-7-7-2-3-2-6-6">
                    <g
                       transform="translate(-21.740359,-189.63467)"
                       id="g7499-3-7-5-9-0-8-4-2-1">
                      <g
                         id="g7646-4-6-1-1-0-3-9-0">
                        <g
                           transform="translate(-79.770404,-0.92315349)"
                           id="g5864-5-2-7-5-1-9-4-6-1-6">
                          <path
                             inkscape:connector-curvature="0"
                             id="path248-3-3-5-1-5-8-0-6-5-2-3"
                             style="fill:#ed1e24;fill-opacity:1;fill-rule:nonzero;stroke:none"
                             d="m 693.33756,957.87671 c 1.06374,-1.95625 2.8075,-1.95625 3.87375,0 l 23.59,43.31999 c 1.065,1.9562 0.11375,3.5562 -2.11376,3.5562 h -46.8275 c -2.22624,0 -3.1775,-1.6 -2.11249,-3.5562 z m 3.87375,-13.5475 c -1.06625,-1.955 -2.81001,-1.955 -3.87375,0 l -34.49375,63.34879 c -1.06625,1.9549 -0.11625,3.5562 2.11125,3.5562 h 68.63874 c 2.22626,0 3.17625,-1.6013 2.11126,-3.5562 l -34.49375,-63.34879" />
                          <path
                             inkscape:connector-curvature="0"
                             id="path250-9-0-7-6-9-0-4-2-7-7-2"
                             style="fill:none;fill-opacity:1;fill-rule:nonzero;stroke:none"
                             d="m 695.27381,954.32046 -27.4625,50.43244 h 54.92625 l -27.46375,-50.43244" />
                        </g>
                      </g>
                    </g>
                  </g>
                </g>
              </g>
            </g>
          </g>
        </g>
        <path
           inkscape:connector-curvature="0"
           d="m 328.97623,318.46854 h 0.002 l 5.58088,8.19567 c 0.2528,0.37224 0.67163,0.59669 1.12149,0.6019 l 1.37285,5.32665 -1.07574,4.35043 2.46087,0.0606 0.1269,-4.79915 -0.53098,-4.8623 c 1.38679,-0.0354 2.7744,0.0208 4.15369,0.16464 2.36598,0.37892 4.76628,0.49687 7.15804,0.35224 0.19352,0.37722 0.45422,0.71695 0.76673,1.00351 0,0.40099 0.1103,0.79386 0.32147,1.1344 0.0333,0.0523 0.0896,0.0875 0.15192,0.0917 0.0624,0 0.12274,-0.0229 0.1602,-0.0708 l 0.45255,-0.56793 c 0.0291,-0.0354 0.0749,-0.0542 0.11858,-0.0458 0.0458,0 0.0832,0.0375 0.0999,0.0814 l 0.20933,0.5525 c 0.0229,0.0648 0.0812,0.11047 0.14979,0.1209 0.0688,0 0.13524,-0.0208 0.17894,-0.0708 0.23805,-0.29988 0.42094,-0.64086 0.53893,-1.0058 0.0499,-0.27821 0.20597,-0.52583 0.43735,-0.68964 0.29172,-0.25926 0.53432,-0.56961 0.71576,-0.91575 0.40781,1.11584 1.07573,2.11726 1.94858,2.9207 l -1.59985,6.29328 h 2.44087 c 0.20598,-2.78172 0.91571,-5.50321 2.09317,-8.03103 l -0.79835,-2.35988 c -0.29588,-0.87305 -0.39825,-1.80006 -0.3015,-2.71707 l 0.58447,-5.54904 1.66476,11.17787 c 0.0208,0.098 0.0832,0.17922 0.17895,0.20634 0.0957,0.0292 0.19767,0 0.26322,-0.0731 l 0.26777,-0.2997 c 0.023,-0.025 0.0416,-0.0541 0.0522,-0.0875 0.31586,-0.91493 0.51103,-1.86738 0.58028,-2.83255 0,-0.0481 0,-0.0939 -0.0291,-0.13756 l -0.33102,-0.63505 -1.94859,-10.67517 c -0.0873,-0.47871 -0.3995,-0.88471 -0.83833,-1.09167 -0.43859,-0.20842 -0.95022,-0.18963 -1.3743,0.0481 -3.5041,-0.15005 -7.01466,0.0583 -10.47778,0.62274 -2.95649,0 -5.90857,-0.24281 -8.82927,-0.7009 l -6.75022,-1.699 -1.74091,-2.30484 0.43569,2.19462 -1.20306,-0.10006 c -0.84561,-0.098 -1.69516,0.14382 -2.36306,0.67256 l -2.29127,-1.54477 c 0.22868,0.9487 0.81773,1.7707 1.64274,2.29151 -0.9247,1.50621 -1.96128,2.94031 -3.10109,4.29042 -0.13942,0.14589 -0.19974,0.34846 -0.16647,0.54645 0.0937,0.54438 0.27591,1.06854 0.54205,1.55145 0.12899,0.23426 0.38991,0.36263 0.65311,0.32283 l 1.65751,-0.25199 4.46974,-1.05582 z"
           style="fill:#000000;fill-opacity:1;fill-rule:evenodd;stroke:none;stroke-width:0.10649355"
           id="path3651" />
      </g>
    </g>
  </g>
</svg>
