<?xml version="1.0" encoding="UTF-8" standalone="no"?>
<!-- Created with Inkscape (http://www.inkscape.org/) -->

<svg
   xmlns:ns2="http://ns.adobe.com/AdobeIllustrator/10.0/"
   xmlns:dc="http://purl.org/dc/elements/1.1/"
   xmlns:cc="http://creativecommons.org/ns#"
   xmlns:rdf="http://www.w3.org/1999/02/22-rdf-syntax-ns#"
   xmlns:svg="http://www.w3.org/2000/svg"
   xmlns="http://www.w3.org/2000/svg"
   xmlns:sodipodi="http://sodipodi.sourceforge.net/DTD/sodipodi-0.dtd"
   xmlns:inkscape="http://www.inkscape.org/namespaces/inkscape"
   width="7.4376283mm"
   height="7.8965173mm"
   viewBox="0 0 90.000003 95.552852"
   id="svg7148"
   version="1.1"
   inkscape:version="0.92.1 r"
   sodipodi:docname="animals_on_the_road.svg"
   inkscape:export-filename="/home/brunofernandes/it-git-repos/it2s-android/icsi_demonstrator/app/src/main/res/drawable-xxxhdpi/road_works.png"
   inkscape:export-xdpi="639.52814"
   inkscape:export-ydpi="639.52814">
  <defs
     id="defs7150">
    <clipPath
       clipPathUnits="userSpaceOnUse"
       id="clipPath4656">
      <rect
         style="fill:#ffffff;stroke-width:0.58628535"
         id="rect4658"
         width="19.144819"
         height="20.23105"
         x="630.8186"
         y="-1130.8098"
         transform="scale(1,-1)" />
    </clipPath>
    <clipPath
       clipPathUnits="userSpaceOnUse"
       id="clipPath4656-7">
      <rect
         style="fill:#ffffff;stroke-width:0.58628535"
         id="rect4658-5"
         width="19.144819"
         height="20.23105"
         x="630.8186"
         y="-1130.8098"
         transform="scale(1,-1)" />
    </clipPath>
  </defs>
  <sodipodi:namedview
     id="base"
     pagecolor="#ffffff"
     bordercolor="#666666"
     borderopacity="1.0"
     inkscape:pageopacity="0.0"
     inkscape:pageshadow="2"
     inkscape:zoom="5.6"
     inkscape:cx="-48.576766"
     inkscape:cy="50.422801"
     inkscape:document-units="px"
     inkscape:current-layer="layer1"
     showgrid="false"
     fit-margin-top="0"
     fit-margin-left="0"
     fit-margin-right="0"
     fit-margin-bottom="0"
     inkscape:window-width="1680"
     inkscape:window-height="1021"
     inkscape:window-x="0"
     inkscape:window-y="0"
     inkscape:window-maximized="1" />
  <metadata
     id="metadata7153">
    <rdf:RDF>
      <cc:Work
         rdf:about="">
        <dc:format>image/svg+xml</dc:format>
        <dc:type
           rdf:resource="http://purl.org/dc/dcmitype/StillImage" />
        <dc:title />
      </cc:Work>
    </rdf:RDF>
  </metadata>
  <g
     inkscape:label="Layer 1"
     inkscape:groupmode="layer"
     id="layer1"
     transform="translate(-294.11538,-263.6534)">
    <g
       transform="translate(4.3526819,-10.396017)"
       id="g4837">
      <g
         id="g5393-7-9"
         transform="matrix(1.220574,0,0,1.220574,-483.12695,-763.8268)"
         inkscape:export-filename="/home/brunofernandes/it-git-repos/it2s-android/icsi_demonstrator/app/src/main/res/drawable-mdpi/road_works.png"
         inkscape:export-xdpi="159.61241"
         inkscape:export-ydpi="159.61241">
        <g
           id="g5273-1-2-2"
           transform="translate(165.6091,-62.283309)">
          <g
             id="g5270-0-7-2">
            <polyline
               transform="matrix(0.37277978,0,0,0.36896641,466.11509,912.16153)"
               id="polyline9-2-9-2-5-4-0-8-4-4-8"
               points="21.883,173.875 108.918,23.168 195.953,173.875 21.883,173.875 "
               ns2:knockout="Off"
               style="fill:#ffffff;fill-opacity:1" />
          </g>
          <g
             id="g5240-3-1-9"
             transform="translate(-135.84607,-204.52511)">
            <g
               transform="translate(131.16071,130.98214)"
               id="g5571-8-9-9-7-7">
              <g
                 transform="translate(3.2142857)"
                 id="g5664-1-5-9-36">
                <g
                   transform="translate(-95.27653,60.700804)"
                   id="g4971-4-2-6-1-2-1">
                  <g
                     id="g8312-0-7-7-2-3-2-2"
                     transform="translate(7.4612941,173.13848)">
                    <g
                       id="g7499-3-7-5-9-0-8-4-9"
                       transform="translate(-21.740359,-189.63467)">
                      <g
                         id="g7646-4-6-1-1-0-3-3">
                        <g
                           id="g5864-5-2-7-5-1-9-4-6-19"
                           transform="translate(-79.770404,-0.92315349)">
                          <path
                             d="m 693.33756,957.87671 c 1.06374,-1.95625 2.8075,-1.95625 3.87375,0 l 23.59,43.31999 c 1.065,1.9562 0.11375,3.5562 -2.11376,3.5562 h -46.8275 c -2.22624,0 -3.1775,-1.6 -2.11249,-3.5562 z m 3.87375,-13.5475 c -1.06625,-1.955 -2.81001,-1.955 -3.87375,0 l -34.49375,63.34879 c -1.06625,1.9549 -0.11625,3.5562 2.11125,3.5562 h 68.63874 c 2.22626,0 3.17625,-1.6013 2.11126,-3.5562 l -34.49375,-63.34879"
                             style="fill:#ed1e24;fill-opacity:1;fill-rule:nonzero;stroke:none"
                             id="path248-3-3-5-1-5-8-0-6-5-4"
                             inkscape:connector-curvature="0" />
                          <path
                             d="m 695.27381,954.32046 -27.4625,50.43244 h 54.92625 l -27.46375,-50.43244"
                             style="fill:none;fill-opacity:1;fill-rule:nonzero;stroke:none"
                             id="path250-9-0-7-6-9-0-4-2-7-78"
                             inkscape:connector-curvature="0" />
                        </g>
                      </g>
                    </g>
                  </g>
                </g>
              </g>
            </g>
          </g>
        </g>
      </g>
      <g
         clip-path="url(#clipPath4656-7)"
         transform="matrix(1.220574,0,0,-1.220574,-446.88192,1733.1379)"
         id="g5240-3-1-7-4">
        <g
           id="g5571-8-9-9-7-5-5"
           transform="translate(131.16071,130.98214)">
          <g
             id="g5664-1-5-9-3-0"
             transform="translate(3.2142857)">
            <g
               id="g4971-4-2-6-1-2-5-3"
               transform="translate(-95.27653,60.700804)">
              <g
                 transform="translate(7.4612941,173.13848)"
                 id="g8312-0-7-7-2-3-2-6-6">
                <g
                   transform="translate(-21.740359,-189.63467)"
                   id="g7499-3-7-5-9-0-8-4-2-1">
                  <g
                     id="g7646-4-6-1-1-0-3-9-0">
                    <g
                       transform="translate(-79.770404,-0.92315349)"
                       id="g5864-5-2-7-5-1-9-4-6-1-6">
                      <path
                         inkscape:connector-curvature="0"
                         id="path248-3-3-5-1-5-8-0-6-5-2-3"
                         style="fill:#ed1e24;fill-opacity:1;fill-rule:nonzero;stroke:none"
                         d="m 693.33756,957.87671 c 1.06374,-1.95625 2.8075,-1.95625 3.87375,0 l 23.59,43.31999 c 1.065,1.9562 0.11375,3.5562 -2.11376,3.5562 h -46.8275 c -2.22624,0 -3.1775,-1.6 -2.11249,-3.5562 z m 3.87375,-13.5475 c -1.06625,-1.955 -2.81001,-1.955 -3.87375,0 l -34.49375,63.34879 c -1.06625,1.9549 -0.11625,3.5562 2.11125,3.5562 h 68.63874 c 2.22626,0 3.17625,-1.6013 2.11126,-3.5562 l -34.49375,-63.34879" />
                      <path
                         inkscape:connector-curvature="0"
                         id="path250-9-0-7-6-9-0-4-2-7-7-2"
                         style="fill:none;fill-opacity:1;fill-rule:nonzero;stroke:none"
                         d="m 695.27381,954.32046 -27.4625,50.43244 h 54.92625 l -27.46375,-50.43244" />
                    </g>
                  </g>
                </g>
              </g>
            </g>
          </g>
        </g>
      </g>
    </g>
    <path
       id="path720"
       sodipodi:nodetypes="cccccccccccccccccccccccccccccccccccccccccccccccccccccccccccccccccccccccccscccccccccccccccc"
       style="fill:#000000;fill-rule:evenodd;stroke-width:0.1888338"
       d="m 327.55945,305.47954 c 0.59105,0.57783 0.75345,1.22554 1.05558,1.28974 0.48152,-0.0944 1.33505,-0.13595 1.82979,0.19261 0.10952,0.29459 -0.22282,0.0321 -0.79875,0.34745 0.54572,0.42676 0.77987,-0.16617 1.46344,0.65902 0.24361,0.29081 -0.10574,-0.0114 -0.59859,0.16997 0.42865,0.49474 0.59293,-0.12841 1.34827,0.21715 0.81765,0.51363 0.86863,0.78177 1.73161,0.81954 0.17938,0.0887 -0.25493,0.25681 -0.47964,0.23982 0.71946,0.31535 2.00919,1.4257 1.01592,1.21797 -0.56838,-0.42487 -0.70057,-0.31534 -1.01781,-0.17561 0.17751,0.40788 0.65525,0.11141 1.03104,0.44754 0.68923,0.31535 0.48341,0.69491 1.59374,0.75534 0.69492,0.13029 -0.15861,0.36066 -0.29646,0.57217 0.68547,0.0982 1.34261,0.87618 1.04048,0.87051 -0.53441,-0.3078 -1.0367,0.0698 -1.60131,-0.41732 0.71189,0.74212 2.01863,1.27651 3.13464,1.16888 1.2954,0.15674 2.73431,-0.22849 4.01083,-0.81764 1.98086,-0.85165 3.17241,-1.34073 4.72651,-1.51823 1.73539,-0.0963 2.93258,0.29269 4.24309,1.21608 0.54762,-0.16239 0.82331,-0.30024 1.66741,-0.35689 1.67307,-0.0604 3.1573,0.64392 4.17701,1.96955 0.98948,0.86296 1.60697,2.90992 1.66928,3.7219 0.25682,0.99138 0.25871,1.95822 1.65796,3.50477 0.96117,1.09146 2.33399,1.61074 2.13571,3.35934 0.0397,0.43621 -0.13784,1.0046 -0.78743,0.66281 -0.47398,-0.0812 -2.13571,-1.61264 -2.51905,-2.19614 -0.89318,-1.28406 -1.99975,-2.85327 -2.65123,-4.46402 -0.4834,-1.09903 -0.56649,-1.32562 -0.86296,-2.90427 -0.24737,-1.10091 -1.25198,-2.33211 -3.04401,-1.97142 0.24171,0.23226 0.34746,0.41165 0.59483,0.81575 1.0858,2.33777 0.47019,4.13924 -0.35501,5.04187 0.0434,1.31617 1.14056,1.84491 2.05452,1.82036 0.71946,-0.0264 1.88834,-0.11331 1.9582,1.18965 0.1133,1.30673 -0.27946,1.7335 -0.17373,3.70492 0.0303,0.67036 0.97817,2.65501 0.0623,3.15162 -0.004,0.34937 0.76289,0.2134 1.07825,0.24549 0.62125,-0.0793 1.07445,0.0756 1.08579,0.84977 0.14351,0.54761 0.79121,1.26896 0.67791,1.83356 -1.5711,-0.18883 -3.12898,-0.75154 -4.12791,-2.12437 -0.50797,-1.25574 -0.49285,-3.87675 -0.63071,-5.59327 -0.31345,-1.20286 -1.99219,-0.58915 -2.80039,-0.57026 -0.95739,-0.0208 -1.6032,-0.46454 -2.49073,-0.24549 0.33047,0.49285 0.41166,0.64392 0.89696,1.29351 0.61937,0.80822 1.00272,1.68818 -0.11896,2.12437 -1.47102,0.54574 -2.47183,1.39361 -3.56707,2.43218 -1.33695,1.49179 -1.6353,2.81365 -1.90722,2.71922 -0.33235,0.26248 -0.90829,-0.16807 -0.93662,0.60992 0.0415,0.82711 -1.15755,0.82331 -1.58998,1.15001 -0.33423,-0.0208 -1.19343,0.6005 -1.09335,-0.23225 -0.24171,-1.53901 1.4899,-2.43031 2.27545,-3.48212 1.18777,-1.28028 2.29055,-2.30376 3.60673,-3.43488 0.41354,-0.34745 0.43998,-0.95361 -0.0171,-1.27275 -1.47668,-1.19719 -1.60887,-2.86648 -2.76453,-3.91074 -0.79877,0.21338 -1.75993,0.85353 -2.81174,1.12545 -1.5862,0.4041 -3.14596,1.15944 -4.82092,1.02159 -1.16323,-0.0887 0.64015,2.22069 0.81387,3.24228 -0.25492,1.05181 -0.0623,2.87404 0.20017,3.8522 0.63825,1.1821 0.90262,1.94688 1.65229,2.92881 0.60427,1.14056 -1.39737,0.67037 -0.98571,1.62965 0.40033,0.52684 0.13974,0.60238 -0.4532,0.85164 -0.67036,0.19639 -1.58432,0.74023 -2.24712,0.90829 -0.88375,-0.97439 1.53333,-2.07152 1.35583,-3.15354 0.10386,-1.08578 -0.55517,-2.01862 -0.74402,-3.06099 -0.72889,-1.61453 -1.5352,-3.09875 -2.18292,-4.75105 -0.53062,-0.96682 -0.87429,-2.21879 -1.77502,-2.87404 -1.09902,-0.49852 -2.75132,0.49096 -4.04672,1.0178 -0.39843,0.13974 -1.74672,0.41167 -1.27651,0.92907 1.34638,0.5174 2.47371,1.75803 3.84088,2.19991 0.39654,0.0453 0.56273,0.13785 0.55516,0.76667 0.65716,0.12839 0.97628,-0.57218 1.55978,-0.80255 0.75911,0.19827 1.42569,1.25385 1.67306,1.86568 0.33991,0.44375 -1.28407,0.54006 -1.68251,0.49851 -0.92151,-0.002 -1.50689,-0.13219 -1.91477,-0.26624 -0.65903,-0.24361 -1.25009,-0.86297 -1.78638,-1.11224 -1.51066,-0.87241 -3.42922,-1.98653 -4.68684,-3.20828 -0.43433,-0.44755 -0.74589,-1.1028 0.0642,-1.57488 0.73833,-0.65714 1.95631,-1.43892 3.02512,-1.92988 0.59483,-0.38522 0.72701,-0.33613 1.49368,-0.89507 -0.50419,-0.62882 -0.62316,-2.21125 -0.69681,-2.96092 -0.79121,-1.21987 -1.10845,-2.82306 -1.78826,-4.43382 -0.71,0.24926 -1.78823,0.39466 -2.52659,0.25493 -1.23686,-0.034 -1.89022,1.73727 -3.20828,0.83087 -0.89508,-0.81199 1.0839,-0.79688 0.86863,-1.21609 -0.50229,-0.59482 -1.11977,0.60804 -1.58243,0.47585 -0.58349,-0.24548 -0.47585,-1.33883 0.2417,-1.75237 0.7459,-0.78366 2.4813,-1.99976 2.66634,-2.39819 0.26626,-0.88375 2.94771,-2.3793 3.60296,-2.95525 0.30213,-0.60993 0.0359,-1.18776 0.29646,-1.77316 0.15863,-0.1454 0.52873,-0.17937 0.7138,0.0227 z"
       inkscape:connector-curvature="0" />
  </g>
</svg>
