<?xml version="1.0" encoding="UTF-8" standalone="no"?>
<!-- Created with Inkscape (http://www.inkscape.org/) -->

<svg
   xmlns:ns2="http://ns.adobe.com/AdobeIllustrator/10.0/"
   xmlns:dc="http://purl.org/dc/elements/1.1/"
   xmlns:cc="http://creativecommons.org/ns#"
   xmlns:rdf="http://www.w3.org/1999/02/22-rdf-syntax-ns#"
   xmlns:svg="http://www.w3.org/2000/svg"
   xmlns="http://www.w3.org/2000/svg"
   xmlns:sodipodi="http://sodipodi.sourceforge.net/DTD/sodipodi-0.dtd"
   xmlns:inkscape="http://www.inkscape.org/namespaces/inkscape"
   width="7.4376283mm"
   height="7.8965173mm"
   viewBox="0 0 90.000003 95.552852"
   id="svg7148"
   version="1.1"
   inkscape:version="0.92.1 r"
   sodipodi:docname="animals_on_the_road_small_2.svg"
   inkscape:export-filename="/home/brunofernandes/it-git-repos/it2s-android/icsi_demonstrator/app/src/main/res/drawable-xxxhdpi/road_works.png"
   inkscape:export-xdpi="639.52814"
   inkscape:export-ydpi="639.52814">
  <defs
     id="defs7150">
    <clipPath
       clipPathUnits="userSpaceOnUse"
       id="clipPath4656">
      <rect
         style="fill:#ffffff;stroke-width:0.58628535"
         id="rect4658"
         width="19.144819"
         height="20.23105"
         x="630.8186"
         y="-1130.8098"
         transform="scale(1,-1)" />
    </clipPath>
    <clipPath
       clipPathUnits="userSpaceOnUse"
       id="clipPath4656-7">
      <rect
         style="fill:#ffffff;stroke-width:0.58628535"
         id="rect4658-5"
         width="19.144819"
         height="20.23105"
         x="630.8186"
         y="-1130.8098"
         transform="scale(1,-1)" />
    </clipPath>
  </defs>
  <sodipodi:namedview
     id="base"
     pagecolor="#ffffff"
     bordercolor="#666666"
     borderopacity="1.0"
     inkscape:pageopacity="0.0"
     inkscape:pageshadow="2"
     inkscape:zoom="2.8284271"
     inkscape:cx="473.85879"
     inkscape:cy="7.6153811"
     inkscape:document-units="px"
     inkscape:current-layer="layer1"
     showgrid="false"
     fit-margin-top="0"
     fit-margin-left="0"
     fit-margin-right="0"
     fit-margin-bottom="0"
     inkscape:window-width="1680"
     inkscape:window-height="1021"
     inkscape:window-x="0"
     inkscape:window-y="0"
     inkscape:window-maximized="1" />
  <metadata
     id="metadata7153">
    <rdf:RDF>
      <cc:Work
         rdf:about="">
        <dc:format>image/svg+xml</dc:format>
        <dc:type
           rdf:resource="http://purl.org/dc/dcmitype/StillImage" />
        <dc:title />
      </cc:Work>
    </rdf:RDF>
  </metadata>
  <g
     inkscape:label="Layer 1"
     inkscape:groupmode="layer"
     id="layer1"
     transform="translate(50.037071,-252.472)">
    <g
       id="g4594">
      <g
         id="g4837"
         transform="translate(-339.79977,-21.57742)">
        <g
           inkscape:export-ydpi="159.61241"
           inkscape:export-xdpi="159.61241"
           inkscape:export-filename="/home/brunofernandes/it-git-repos/it2s-android/icsi_demonstrator/app/src/main/res/drawable-mdpi/road_works.png"
           transform="matrix(1.220574,0,0,1.220574,-483.12695,-763.8268)"
           id="g5393-7-9">
          <g
             transform="translate(165.6091,-62.283309)"
             id="g5273-1-2-2">
            <g
               id="g5270-0-7-2">
              <polyline
                 style="fill:#ffffff;fill-opacity:1"
                 ns2:knockout="Off"
                 points="21.883,173.875 108.918,23.168 195.953,173.875 21.883,173.875 "
                 id="polyline9-2-9-2-5-4-0-8-4-4-8"
                 transform="matrix(0.37277978,0,0,0.36896641,466.11509,912.16153)" />
            </g>
            <g
               transform="translate(-135.84607,-204.52511)"
               id="g5240-3-1-9">
              <g
                 id="g5571-8-9-9-7-7"
                 transform="translate(131.16071,130.98214)">
                <g
                   id="g5664-1-5-9-36"
                   transform="translate(3.2142857)">
                  <g
                     id="g4971-4-2-6-1-2-1"
                     transform="translate(-95.27653,60.700804)">
                    <g
                       transform="translate(7.4612941,173.13848)"
                       id="g8312-0-7-7-2-3-2-2">
                      <g
                         transform="translate(-21.740359,-189.63467)"
                         id="g7499-3-7-5-9-0-8-4-9">
                        <g
                           id="g7646-4-6-1-1-0-3-3">
                          <g
                             transform="translate(-79.770404,-0.92315349)"
                             id="g5864-5-2-7-5-1-9-4-6-19">
                            <path
                               inkscape:connector-curvature="0"
                               id="path248-3-3-5-1-5-8-0-6-5-4"
                               style="fill:#ed1e24;fill-opacity:1;fill-rule:nonzero;stroke:none"
                               d="m 693.33756,957.87671 c 1.06374,-1.95625 2.8075,-1.95625 3.87375,0 l 23.59,43.31999 c 1.065,1.9562 0.11375,3.5562 -2.11376,3.5562 h -46.8275 c -2.22624,0 -3.1775,-1.6 -2.11249,-3.5562 z m 3.87375,-13.5475 c -1.06625,-1.955 -2.81001,-1.955 -3.87375,0 l -34.49375,63.34879 c -1.06625,1.9549 -0.11625,3.5562 2.11125,3.5562 h 68.63874 c 2.22626,0 3.17625,-1.6013 2.11126,-3.5562 l -34.49375,-63.34879" />
                            <path
                               inkscape:connector-curvature="0"
                               id="path250-9-0-7-6-9-0-4-2-7-78"
                               style="fill:none;fill-opacity:1;fill-rule:nonzero;stroke:none"
                               d="m 695.27381,954.32046 -27.4625,50.43244 h 54.92625 l -27.46375,-50.43244" />
                          </g>
                        </g>
                      </g>
                    </g>
                  </g>
                </g>
              </g>
            </g>
          </g>
        </g>
        <g
           id="g5240-3-1-7-4"
           transform="matrix(1.220574,0,0,-1.220574,-446.88192,1733.1379)"
           clip-path="url(#clipPath4656-7)">
          <g
             transform="translate(131.16071,130.98214)"
             id="g5571-8-9-9-7-5-5">
            <g
               transform="translate(3.2142857)"
               id="g5664-1-5-9-3-0">
              <g
                 transform="translate(-95.27653,60.700804)"
                 id="g4971-4-2-6-1-2-5-3">
                <g
                   id="g8312-0-7-7-2-3-2-6-6"
                   transform="translate(7.4612941,173.13848)">
                  <g
                     id="g7499-3-7-5-9-0-8-4-2-1"
                     transform="translate(-21.740359,-189.63467)">
                    <g
                       id="g7646-4-6-1-1-0-3-9-0">
                      <g
                         id="g5864-5-2-7-5-1-9-4-6-1-6"
                         transform="translate(-79.770404,-0.92315349)">
                        <path
                           d="m 693.33756,957.87671 c 1.06374,-1.95625 2.8075,-1.95625 3.87375,0 l 23.59,43.31999 c 1.065,1.9562 0.11375,3.5562 -2.11376,3.5562 h -46.8275 c -2.22624,0 -3.1775,-1.6 -2.11249,-3.5562 z m 3.87375,-13.5475 c -1.06625,-1.955 -2.81001,-1.955 -3.87375,0 l -34.49375,63.34879 c -1.06625,1.9549 -0.11625,3.5562 2.11125,3.5562 h 68.63874 c 2.22626,0 3.17625,-1.6013 2.11126,-3.5562 l -34.49375,-63.34879"
                           style="fill:#ed1e24;fill-opacity:1;fill-rule:nonzero;stroke:none"
                           id="path248-3-3-5-1-5-8-0-6-5-2-3"
                           inkscape:connector-curvature="0" />
                        <path
                           d="m 695.27381,954.32046 -27.4625,50.43244 h 54.92625 l -27.46375,-50.43244"
                           style="fill:none;fill-opacity:1;fill-rule:nonzero;stroke:none"
                           id="path250-9-0-7-6-9-0-4-2-7-7-2"
                           inkscape:connector-curvature="0" />
                      </g>
                    </g>
                  </g>
                </g>
              </g>
            </g>
          </g>
        </g>
      </g>
      <path
         sodipodi:nodetypes="ccccccccccccccccccccccccccccccccccccccccccccccccccccccccccccccc"
         d="m -10.466187,320.43176 c -0.29174,-1.11767 -0.92937,-1.36298 -1.32687,-1.28466 -0.26464,0.0521 -0.32244,0.1951 -0.26412,0.45779 0.23812,1.06373 -2.54766,2.76094 -3.22654,3.40586 0,0 -0.7713,0.5471 -0.6469,1.39359 -0.0995,0.22483 0.32381,2.14026 -0.94604,1.79276 -0.27399,0.39946 -1.89236,0.9937 -1.34442,-0.84699 0.14505,-0.43973 0.31516,-0.75468 0.39815,-1.54408 0,0 -0.17948,-1.08789 0.89204,-1.762 l 1.64296,-2.05968 c 0,0 0.47191,-0.34746 0.42219,-1.6399 0,0 0.12408,-0.6961 -0.4724,-0.97107 -0.44851,-0.3246 -1.04326,-0.6464 -0.99401,-2.68396 0,0 0.14927,-1.41672 -0.49676,-2.21108 0,0 -0.84502,-0.74527 -1.83922,-2.5845 0,0 -0.59648,-1.21741 -2.63459,-0.89429 -0.27402,0.075 -2.88354,1.04535 -2.9334,-1.46637 0.025,0.025 -0.43439,-0.13811 -0.44693,-1.01986 0,0 0.11239,-0.89575 0.94527,-0.89606 0,0 1.71334,0.17641 2.23605,-0.99336 0,0 0.57283,-1.69016 2.66061,-1.79 0,0 3.45378,-0.4212 4.44797,1.76594 0,0 1.71459,1.73915 3.60351,2.33565 0.25687,0.0857 0.59783,0.16536 0.9909302,0.23668 1.61865,0.29421 3.90979,0.6472 5.54612,0.58384 0,0 6.38787,-1.04386 7.6803,1.44157 0.0998,0.0749 0.37085,0.9183 2.90763,0.29825 0,0 5.3685498,-3.08197 8.1521998,-2.68425 0,0 0.59654,0.19884 -0.24852,0.84503 0,0 -2.48545,1.14331 -3.13164,1.83922 0,0 -4.2252498,3.23104 -6.0147398,2.38602 0,0 1.54094,0.94447 1.44159,3.67842 0,0 -7e-5,1.7398 1.04379,2.38605 0,0 1.09361,0.44733 1.04391,3.38018 0,0 0.19881,0.54677 0.34794,0.94444 0,0 0.3977,1.19301 0.0995,2.18723 0,0 0.64624,1.88886 -0.79538,1.69006 0,0 -1.39182,0.54679 -1.4415,-0.59652 0,0 -0.24857,-0.59649 0.44737,-0.99415 0,0 0.89471,-0.99419 -0.14915,-2.88308 0,0 -0.5468,-2.08778 -2.28658,-2.88314 -1.73982,-0.79533 -2.13533,-0.43566 -3.42992,-2.23686 0,0 -1.46576002,0.993 -1.96284002,2.43455 0,0 -0.47288998,0.89587 -0.12493,1.29357 0,0 0.79537,0.79463 -0.24853,1.80249 l -2.08774998,3.16839 c 0,0 -0.5965,0.69588 -1.44154,0.74563 -0.36357,0.0301 -0.71383,0.0195 -1.04391,-0.0497 -0.31435,-0.0659 -0.86554,-0.60154 -0.34408,-0.90175 0.0827,-0.0474 0.15123,-0.0276 0.26511,-0.0401 0.23429,-0.0258 0.67875,-0.17983 1.12286,-0.89734 l 0.84503,-1.193 c 0,0 0.99419,-1.14327 0.39768,-3.18134 l -0.54679,-1.49127 c 0,0 -0.0497,-1.64038 -1.98834,-0.79537 0,0 -1.83921,0.99418 -2.88314,1.24276 0,0 -0.0989,0.91908 0.49711,1.88888 l 1.04388,2.63457 c 0,0 0.99418,2.03808 -0.39769,2.734 0,0 -0.69593,0.79532 -1.64037,0.54681 0,0 -1.4912702,-0.0497 -0.39767,-0.9445 0,0 1.83921,-0.99418 0.49705,-2.23689 0,0 -1.1929802,-1.8392 -1.4415002,-2.88306 z"
         style="fill:#231f20;fill-opacity:1;fill-rule:evenodd;stroke:none;stroke-width:0.0807017"
         id="path34"
         inkscape:connector-curvature="0" />
    </g>
  </g>
</svg>
