<?xml version="1.0" encoding="UTF-8" standalone="no"?>
<!-- Created with Inkscape (http://www.inkscape.org/) -->

<svg
   xmlns:ns2="http://ns.adobe.com/AdobeIllustrator/10.0/"
   xmlns:dc="http://purl.org/dc/elements/1.1/"
   xmlns:cc="http://creativecommons.org/ns#"
   xmlns:rdf="http://www.w3.org/1999/02/22-rdf-syntax-ns#"
   xmlns:svg="http://www.w3.org/2000/svg"
   xmlns="http://www.w3.org/2000/svg"
   xmlns:sodipodi="http://sodipodi.sourceforge.net/DTD/sodipodi-0.dtd"
   xmlns:inkscape="http://www.inkscape.org/namespaces/inkscape"
   width="7.4376283mm"
   height="7.8965173mm"
   viewBox="0 0 90.000003 95.552852"
   id="svg7148"
   version="1.1"
   inkscape:version="0.92.1 r"
   sodipodi:docname="animals_on_the_road_large.svg"
   inkscape:export-filename="/home/brunofernandes/it-git-repos/it2s-android/icsi_demonstrator/app/src/main/res/drawable-xxxhdpi/road_works.png"
   inkscape:export-xdpi="639.52814"
   inkscape:export-ydpi="639.52814">
  <defs
     id="defs7150">
    <clipPath
       clipPathUnits="userSpaceOnUse"
       id="clipPath4656">
      <rect
         style="fill:#ffffff;stroke-width:0.58628535"
         id="rect4658"
         width="19.144819"
         height="20.23105"
         x="630.8186"
         y="-1130.8098"
         transform="scale(1,-1)" />
    </clipPath>
    <clipPath
       clipPathUnits="userSpaceOnUse"
       id="clipPath4656-7">
      <rect
         style="fill:#ffffff;stroke-width:0.58628535"
         id="rect4658-5"
         width="19.144819"
         height="20.23105"
         x="630.8186"
         y="-1130.8098"
         transform="scale(1,-1)" />
    </clipPath>
  </defs>
  <sodipodi:namedview
     id="base"
     pagecolor="#ffffff"
     bordercolor="#666666"
     borderopacity="1.0"
     inkscape:pageopacity="0.0"
     inkscape:pageshadow="2"
     inkscape:zoom="5.6"
     inkscape:cx="775.70404"
     inkscape:cy="-7.0920326"
     inkscape:document-units="px"
     inkscape:current-layer="layer1"
     showgrid="false"
     fit-margin-top="0"
     fit-margin-left="0"
     fit-margin-right="0"
     fit-margin-bottom="0"
     inkscape:window-width="1680"
     inkscape:window-height="1021"
     inkscape:window-x="0"
     inkscape:window-y="0"
     inkscape:window-maximized="1" />
  <metadata
     id="metadata7153">
    <rdf:RDF>
      <cc:Work
         rdf:about="">
        <dc:format>image/svg+xml</dc:format>
        <dc:type
           rdf:resource="http://purl.org/dc/dcmitype/StillImage" />
        <dc:title />
      </cc:Work>
    </rdf:RDF>
  </metadata>
  <g
     inkscape:label="Layer 1"
     inkscape:groupmode="layer"
     id="layer1"
     transform="translate(-101.39217,-263.26819)">
    <g
       id="g4594">
      <g
         id="g4837"
         transform="translate(-188.37053,-10.781229)">
        <g
           inkscape:export-ydpi="159.61241"
           inkscape:export-xdpi="159.61241"
           inkscape:export-filename="/home/brunofernandes/it-git-repos/it2s-android/icsi_demonstrator/app/src/main/res/drawable-mdpi/road_works.png"
           transform="matrix(1.220574,0,0,1.220574,-483.12695,-763.8268)"
           id="g5393-7-9">
          <g
             transform="translate(165.6091,-62.283309)"
             id="g5273-1-2-2">
            <g
               id="g5270-0-7-2">
              <polyline
                 style="fill:#ffffff;fill-opacity:1"
                 ns2:knockout="Off"
                 points="21.883,173.875 108.918,23.168 195.953,173.875 21.883,173.875 "
                 id="polyline9-2-9-2-5-4-0-8-4-4-8"
                 transform="matrix(0.37277978,0,0,0.36896641,466.11509,912.16153)" />
            </g>
            <g
               transform="translate(-135.84607,-204.52511)"
               id="g5240-3-1-9">
              <g
                 id="g5571-8-9-9-7-7"
                 transform="translate(131.16071,130.98214)">
                <g
                   id="g5664-1-5-9-36"
                   transform="translate(3.2142857)">
                  <g
                     id="g4971-4-2-6-1-2-1"
                     transform="translate(-95.27653,60.700804)">
                    <g
                       transform="translate(7.4612941,173.13848)"
                       id="g8312-0-7-7-2-3-2-2">
                      <g
                         transform="translate(-21.740359,-189.63467)"
                         id="g7499-3-7-5-9-0-8-4-9">
                        <g
                           id="g7646-4-6-1-1-0-3-3">
                          <g
                             transform="translate(-79.770404,-0.92315349)"
                             id="g5864-5-2-7-5-1-9-4-6-19">
                            <path
                               inkscape:connector-curvature="0"
                               id="path248-3-3-5-1-5-8-0-6-5-4"
                               style="fill:#ed1e24;fill-opacity:1;fill-rule:nonzero;stroke:none"
                               d="m 693.33756,957.87671 c 1.06374,-1.95625 2.8075,-1.95625 3.87375,0 l 23.59,43.31999 c 1.065,1.9562 0.11375,3.5562 -2.11376,3.5562 h -46.8275 c -2.22624,0 -3.1775,-1.6 -2.11249,-3.5562 z m 3.87375,-13.5475 c -1.06625,-1.955 -2.81001,-1.955 -3.87375,0 l -34.49375,63.34879 c -1.06625,1.9549 -0.11625,3.5562 2.11125,3.5562 h 68.63874 c 2.22626,0 3.17625,-1.6013 2.11126,-3.5562 l -34.49375,-63.34879" />
                            <path
                               inkscape:connector-curvature="0"
                               id="path250-9-0-7-6-9-0-4-2-7-78"
                               style="fill:none;fill-opacity:1;fill-rule:nonzero;stroke:none"
                               d="m 695.27381,954.32046 -27.4625,50.43244 h 54.92625 l -27.46375,-50.43244" />
                          </g>
                        </g>
                      </g>
                    </g>
                  </g>
                </g>
              </g>
            </g>
          </g>
        </g>
        <g
           id="g5240-3-1-7-4"
           transform="matrix(1.220574,0,0,-1.220574,-446.88192,1733.1379)"
           clip-path="url(#clipPath4656-7)">
          <g
             transform="translate(131.16071,130.98214)"
             id="g5571-8-9-9-7-5-5">
            <g
               transform="translate(3.2142857)"
               id="g5664-1-5-9-3-0">
              <g
                 transform="translate(-95.27653,60.700804)"
                 id="g4971-4-2-6-1-2-5-3">
                <g
                   id="g8312-0-7-7-2-3-2-6-6"
                   transform="translate(7.4612941,173.13848)">
                  <g
                     id="g7499-3-7-5-9-0-8-4-2-1"
                     transform="translate(-21.740359,-189.63467)">
                    <g
                       id="g7646-4-6-1-1-0-3-9-0">
                      <g
                         id="g5864-5-2-7-5-1-9-4-6-1-6"
                         transform="translate(-79.770404,-0.92315349)">
                        <path
                           d="m 693.33756,957.87671 c 1.06374,-1.95625 2.8075,-1.95625 3.87375,0 l 23.59,43.31999 c 1.065,1.9562 0.11375,3.5562 -2.11376,3.5562 h -46.8275 c -2.22624,0 -3.1775,-1.6 -2.11249,-3.5562 z m 3.87375,-13.5475 c -1.06625,-1.955 -2.81001,-1.955 -3.87375,0 l -34.49375,63.34879 c -1.06625,1.9549 -0.11625,3.5562 2.11125,3.5562 h 68.63874 c 2.22626,0 3.17625,-1.6013 2.11126,-3.5562 l -34.49375,-63.34879"
                           style="fill:#ed1e24;fill-opacity:1;fill-rule:nonzero;stroke:none"
                           id="path248-3-3-5-1-5-8-0-6-5-2-3"
                           inkscape:connector-curvature="0" />
                        <path
                           d="m 695.27381,954.32046 -27.4625,50.43244 h 54.92625 l -27.46375,-50.43244"
                           style="fill:none;fill-opacity:1;fill-rule:nonzero;stroke:none"
                           id="path250-9-0-7-6-9-0-4-2-7-7-2"
                           inkscape:connector-curvature="0" />
                      </g>
                    </g>
                  </g>
                </g>
              </g>
            </g>
          </g>
        </g>
      </g>
      <path
         style="fill:#000000;stroke-width:0.03864278"
         inkscape:connector-curvature="0"
         id="path2"
         d="m 127.11382,319.84898 c 0.79218,-0.54873 1.65778,-2.21037 1.65778,-2.21037 0.24345,-0.3671 0.0889,-0.53327 0.0889,-0.53327 -0.26277,-0.0425 0.83468,-1.68482 0.83468,-1.68482 0.0811,-0.12366 1.07814,-1.27908 1.07814,-1.27908 0.14297,-0.26277 -0.14298,-0.71103 -0.14298,-0.71103 -0.54873,-0.67238 -0.58737,-1.52252 -0.58737,-1.52252 0.0541,-1.02017 0.72648,-0.49077 0.72648,-0.49077 0.0618,0.38643 1.19793,0.83469 1.19793,0.83469 0.73035,0.1623 0.77672,0.8115 0.77672,0.8115 0.0155,0 0.0425,0 0.0773,0 0.18162,0 0.24345,-0.25505 0.24345,-0.25505 0.12366,0.14298 0,0.38257 0,0.38257 0.22413,0 0.36711,-0.28596 0.36711,-0.28596 0,0 0.27823,0.26277 0.12366,0.36711 0,0 0.35937,-0.18162 0.76899,-0.20867 0,0 -0.23186,0.20094 -0.10047,0.27822 0,0 1.25202,-0.6917 1.6114,-0.74194 l -0.20481,0.25505 c 0,0 0.79604,0 1.27135,-0.23186 0.0773,-0.0348 0.17776,-0.0773 0.27823,-0.12752 v 0.27436 c 0,0 1.22498,-0.25504 1.37568,-0.68784 l -0.11979,0.4328 c 0,0 0.73808,-0.14684 1.03176,-0.60669 v 0.32846 c 0,0 0.43667,-0.0464 0.68011,-0.42893 v 0.38256 c 0,0 0.37484,-0.30528 1.37569,-0.35551 0,0 -0.72262,0.17775 -0.72262,0.40961 0,0 0.2048,-0.19708 0.67625,-0.15844 l -0.085,0.23186 c 0.63761,-0.40961 1.87418,-0.15457 1.87418,-0.15457 -0.20481,0.0271 -0.29369,0.30914 -0.29369,0.30914 0.45985,-0.15457 0.81923,-0.10047 0.81923,-0.10047 l -0.10434,0.28209 c 0.5951,-0.15457 1.1361,-0.0502 1.1361,-0.0502 l -0.29368,0.14684 c -0.17776,0.39029 2.32629,-0.004 2.32629,-0.004 1.07427,-0.25505 6.85523,0.13525 6.85523,0.13525 2.94072,-0.10047 5.16654,0.61442 5.16654,0.61442 5.75778,1.99396 6.60405,6.34128 6.60405,6.34128 1.15156,2.89048 -0.25504,6.72771 -0.25504,6.72771 -0.0773,0.30527 0,1.04722 0,1.04722 l -0.23185,-0.0773 c -0.0271,0.51008 0.30527,1.48388 0.30527,1.48388 -0.23186,0 -0.25504,-0.10047 -0.25504,-0.10047 -0.0773,1.20179 0.68784,2.3804 0.68784,2.3804 -0.23186,0.17775 -0.45985,0.027 -0.45985,0.027 0.20867,0.9197 0.69557,1.60754 0.69557,1.60754 -0.25504,0.15457 -0.28209,0.0502 -0.28209,0.0502 0.10047,0.51395 0.39029,0.69171 0.39029,0.69171 0.0309,0.30528 -0.44052,0.0425 -0.44052,0.0425 0.0773,0.2048 0.43666,0.3671 0.43666,0.3671 0.0502,0.81923 -0.23186,0.94675 -0.23186,0.94675 -0.6917,2.0983 -1.30613,2.30311 -1.30613,2.30311 -0.6376,0.56418 -0.75739,0.16616 -0.76512,0.13139 0.0502,0.22799 0.20481,0.35551 0.20481,0.35551 -0.15458,0.17776 -0.43667,-0.0502 -0.43667,-0.0502 0.20481,0.69171 -2.22582,0.40962 -2.22582,0.40962 -0.71489,0.0773 -1.27908,-0.61442 -1.27908,-0.61442 0.0271,0.30527 -0.20481,0.2048 -0.20481,0.2048 -0.15457,-0.19707 -0.0811,-0.68011 -0.058,-0.8115 -0.0386,0.1623 -0.17389,0.27437 -0.17389,0.27437 -0.2821,-0.0271 -0.0464,-0.74194 -0.0464,-0.74194 0.53713,-0.58737 2.39971,-0.15457 2.39971,-0.15457 0.76899,-0.027 0.58737,-0.81923 0.58737,-0.81923 -0.38256,-0.28209 -1.1786,-1.30613 -1.1786,-1.30613 0.10047,0.25505 0,0.2821 0,0.2821 -0.40962,-0.35938 -0.60283,-0.7033 -0.60283,-0.7033 -0.9622,0.62601 -2.69727,0.39802 -2.69727,0.39802 -0.66465,0.15457 -1.00857,-0.26277 -1.00857,-0.26277 -0.30528,0.40961 -0.42894,-0.0966 -0.42894,-0.0966 0,-0.30528 0.54873,-0.79218 0.54873,-0.79218 0.17776,-0.51008 1.76984,-0.49463 1.76984,-0.49463 0.63374,0 0,-0.42507 0,-0.42507 -0.58351,0.10048 -2.56588,-1.20179 -2.56588,-1.20179 0.30528,-0.2048 0.10047,-0.17775 0.10047,-0.17775 -1.35636,-0.38257 -3.21121,-2.65863 -3.21121,-2.65863 -0.81923,-1.30612 -1.18247,-0.91969 -1.18247,-0.91969 -0.84242,-0.79218 -0.87333,-0.2821 -0.87333,-0.2821 -1.07427,-0.9738 -1.25589,0.12752 -1.25589,0.12752 -0.0502,0.43667 0.30528,0.0271 0.30528,0.0271 0,0.51009 -0.25505,1.30613 -0.25505,1.30613 0.10048,0 0.25505,-0.25504 0.25505,-0.25504 0,0.84241 -0.45985,1.81621 -0.45985,1.81621 0.17775,-0.0271 0.23185,-0.25504 0.23185,-0.25504 0.0502,1.30612 -0.33232,1.84326 -0.33232,1.84326 0.25504,0.2048 0.25504,0.74194 0.25504,0.74194 0.0502,0.30528 -0.0502,0.84241 -0.0502,0.84241 -0.2048,-0.0502 -0.30527,-0.33233 -0.30527,-0.33233 0.15457,0.58737 0.43666,0.66466 0.43666,0.66466 -0.12752,0.0773 -0.33233,0.20481 -0.33233,0.20481 0.23186,0.48689 -0.25504,0.91969 -0.25504,0.91969 -0.58737,0.69171 -1.37955,0.79218 -1.37955,0.79218 0.17776,0.15457 0,0.33233 0,0.33233 -0.61442,-0.23186 -0.99698,-0.66466 -0.99698,-0.66466 -0.17003,-0.0502 -0.39029,0.10047 -0.39029,0.10047 0.17775,0.20481 0,0.25505 0,0.25505 -0.31688,-0.16617 -0.40962,-0.35938 -0.43667,-0.4869 0,0 -0.35551,0.11979 -0.18935,-0.60283 0.0657,-0.55646 0.88106,-0.64533 0.88106,-0.64533 0.53713,-0.56419 -0.35165,-2.48087 -0.35165,-2.48087 -0.84628,-0.84241 -2.41131,-3.58992 -2.41131,-3.58992 l -0.0348,0.34393 c -0.19321,-1.32932 -1.10905,-2.24129 -1.10905,-2.24129 v 0.29755 c -0.4869,-0.74194 -0.99698,-0.4869 -0.99698,-0.4869 -0.8656,4.4362 -4.01885,6.02441 -4.01885,6.02441 0.12752,0.0502 0.23958,0.10048 0.23958,0.10048 -0.74194,0.76899 -2.38812,1.10131 -2.38812,1.10131 0.10047,0.10048 0.63761,0.12753 0.63761,0.12753 -0.68785,0.61442 -1.36023,0.71489 -1.36023,0.71489 0.0502,0.25504 0.51008,0.30528 0.51008,0.30528 -0.53713,0.33232 -1.32931,0.0502 -1.32931,0.0502 0.0271,0.40961 0.17776,0.35938 0.17776,0.35938 -0.30528,0.15457 -0.86946,0.0464 -0.86946,0.0464 -0.51009,0.30141 -1.63846,-0.0734 -1.63846,-0.0734 -0.89651,0.30528 -2.02101,-0.45985 -2.02101,-0.45985 -0.17776,0.0773 -0.61442,-0.25504 -0.61442,-0.25504 -0.25505,0 -0.4869,-0.38257 -0.4869,-0.38257 -0.17776,0.0502 -0.2821,0 -0.2821,0 0.15458,-0.25504 0.61442,-0.45985 0.61442,-0.45985 l -0.0502,-0.2048 c -0.38256,0.0773 -0.38256,-0.0502 -0.38256,-0.0502 0.71489,-0.61442 2.71272,-0.13138 2.71272,-0.13138 1.07427,0.30527 1.66164,-0.56419 1.66164,-0.56419 0.28209,-0.23185 0.99698,-1.98624 0.99698,-1.98624 0.23186,-0.64147 1.61913,-3.26531 1.61913,-3.26531 h -0.18934 l 0.59896,-1.18634 -0.20481,-0.0154 c 0.20481,-0.0502 0.53327,-0.49849 0.53327,-0.49849 h -0.25118 c 0.25505,-0.24345 0.23959,-1.48002 0.23959,-1.48002 l 0.008,-0.1082 c 0.0773,-0.81923 -0.13912,-0.39416 -0.13912,-0.39416 0,-0.40961 0.228,-0.85014 0.228,-0.85014 0.35937,-0.66466 0,-0.59123 0,-0.59123 -0.25505,0.0502 -0.61442,-0.15458 -0.61442,-0.15458 -0.53714,-0.2048 -0.38257,0.0773 -0.38257,0.0773 -0.2048,0.0502 -0.4869,-0.12752 -0.4869,-0.12752 -0.56418,0.0502 -0.2048,0.30528 -0.2048,0.30528 -0.40962,0.15457 -1.10132,-0.0271 -1.10132,-0.0271 -0.40962,0.35937 -0.9197,0.12752 -0.9197,0.12752 -0.28209,-0.027 -0.10047,0.40961 -0.10047,0.40961 -0.17776,0 -0.45212,-0.17776 -0.45212,-0.17776 -0.12366,0.0618 -0.1623,0.38257 -0.1623,0.38257 -0.58737,-0.39029 -0.4869,-0.13912 -0.4869,-0.13912 -0.26277,-0.0618 -0.56805,-0.28595 -0.56805,-0.28595 l -0.0618,0.12365 c -0.18162,-0.28595 -0.52941,-0.18162 -0.52941,-0.18162 -0.12365,0.10047 -0.43666,0.1623 -0.43666,0.1623 -0.29755,-0.0425 -0.6376,0.20481 -0.6376,0.20481 -0.9738,0.3246 -1.36023,-0.12366 -1.36023,-0.12366 -0.36711,-0.0193 -0.67239,-0.44825 -0.67239,-0.44825 -0.18162,-0.10048 -0.54872,-0.75354 -0.54872,-0.75354 -0.45212,-0.28209 0.2589,-0.85014 0.2589,-0.85014 z" />
    </g>
  </g>
</svg>
