<?xml version="1.0" encoding="UTF-8" standalone="no"?>
<!-- Generator: Adobe Illustrator 19.0.0, SVG Export Plug-In . SVG Version: 6.00 Build 0)  -->

<svg
   xmlns:dc="http://purl.org/dc/elements/1.1/"
   xmlns:cc="http://creativecommons.org/ns#"
   xmlns:rdf="http://www.w3.org/1999/02/22-rdf-syntax-ns#"
   xmlns:svg="http://www.w3.org/2000/svg"
   xmlns="http://www.w3.org/2000/svg"
   xmlns:sodipodi="http://sodipodi.sourceforge.net/DTD/sodipodi-0.dtd"
   xmlns:inkscape="http://www.inkscape.org/namespaces/inkscape"
   version="1.1"
   id="Layer_1"
   x="0px"
   y="0px"
   viewBox="0 0 251.69039 409.60158"
   xml:space="preserve"
   sodipodi:docname="antenna.svg"
   inkscape:version="0.92.1 r"
   width="15mm"
   height="12mm"><metadata
     id="metadata57"><rdf:RDF><cc:Work
         rdf:about=""><dc:format>image/svg+xml</dc:format><dc:type
           rdf:resource="http://purl.org/dc/dcmitype/StillImage" /></cc:Work></rdf:RDF></metadata><defs
     id="defs55" /><sodipodi:namedview
     pagecolor="#ffffff"
     bordercolor="#666666"
     borderopacity="1"
     objecttolerance="10"
     gridtolerance="10"
     guidetolerance="10"
     inkscape:pageopacity="0"
     inkscape:pageshadow="2"
     inkscape:window-width="1920"
     inkscape:window-height="1020"
     id="namedview53"
     showgrid="false"
     inkscape:zoom="0.46093569"
     inkscape:window-x="0"
     inkscape:window-y="31"
     inkscape:window-maximized="1"
     inkscape:current-layer="Layer_1"
     inkscape:cx="-759.31082"
     inkscape:cy="196.12304" /><g
     id="g18"
     transform="matrix(0.8,0,0,0.8,-78.9556,-2e-4)"><g
       id="g16"><path
         id="path2"
         d="m 266.556,126.65 c -1.427,-4.632 -5.708,-7.793 -10.555,-7.793 -4.847,0 -9.128,3.161 -10.555,7.793 L 131.149,497.707 c -1.387,4.502 0.234,9.387 4.038,12.168 3.804,2.781 8.951,2.839 12.819,0.152 l 107.996,-75.053 107.996,75.053 c 1.897,1.318 4.101,1.975 6.303,1.975 2.289,0 4.579,-0.711 6.516,-2.127 3.805,-2.78 5.426,-7.666 4.039,-12.168 z m 26.749,161.864 -21.861,-23.807 10.88,-11.841 z m -37.302,-121.097 18.79,61.001 -18.343,19.962 -19.011,-20.703 z m -26.096,84.713 11.544,12.572 -23.191,25.239 z m 26.538,28.9 51.532,55.823 H 205.15 Z m -94.767,192.598 26.438,-85.831 48.534,33.728 z m 33.264,-107.987 2.064,-6.701 h 117.993 l 2.064,6.701 -61.061,42.434 z m 80.412,55.884 48.534,-33.728 26.438,85.831 z"
         inkscape:connector-curvature="0" /><path
         id="path4"
         d="m 149.295,213.416 c 2.827,0 5.652,-1.078 7.809,-3.235 4.313,-4.313 4.313,-11.306 0,-15.619 -48.443,-48.443 -48.443,-127.265 0,-175.708 4.313,-4.313 4.313,-11.306 0,-15.619 -4.314,-4.313 -11.305,-4.313 -15.619,0 -57.054,57.055 -57.054,149.89 0,206.945 2.157,2.158 4.983,3.236 7.81,3.236 z"
         inkscape:connector-curvature="0" /><path
         id="path6"
         d="m 354.899,194.562 c -4.313,4.313 -4.313,11.306 0,15.619 2.157,2.157 4.983,3.235 7.809,3.235 2.826,0 5.652,-1.078 7.809,-3.235 57.054,-57.055 57.054,-149.89 0,-206.945 -4.314,-4.313 -11.305,-4.313 -15.619,0 -4.313,4.313 -4.313,11.306 0,15.619 48.445,48.443 48.445,127.264 10e-4,175.707 z"
         inkscape:connector-curvature="0" /><path
         id="path8"
         d="m 172.722,178.944 c 2.157,2.157 4.983,3.235 7.809,3.235 2.826,0 5.652,-1.079 7.809,-3.235 4.313,-4.313 4.313,-11.306 0,-15.618 -31.219,-31.219 -31.219,-82.015 0,-113.234 4.313,-4.313 4.313,-11.306 0,-15.618 -4.314,-4.313 -11.305,-4.313 -15.619,0 -39.828,39.83 -39.828,104.64 0.001,144.47 z"
         inkscape:connector-curvature="0" /><path
         id="path10"
         d="m 323.662,163.326 c -4.313,4.313 -4.313,11.306 0,15.619 2.157,2.157 4.983,3.235 7.809,3.235 2.826,0 5.652,-1.078 7.809,-3.235 19.267,-19.267 29.878,-44.921 29.878,-72.236 0,-27.315 -10.61,-52.968 -29.878,-72.236 -4.314,-4.313 -11.305,-4.313 -15.619,0 -4.313,4.313 -4.313,11.306 0,15.619 31.22,31.219 31.22,82.015 10e-4,113.234 z"
         inkscape:connector-curvature="0" /><path
         id="path12"
         d="m 203.961,147.708 c 2.157,2.157 4.983,3.235 7.809,3.235 2.826,0 5.652,-1.079 7.809,-3.235 4.313,-4.313 4.313,-11.306 0,-15.618 -6.78,-6.779 -10.514,-15.793 -10.514,-25.38 0,-9.587 3.734,-18.6 10.514,-25.379 4.313,-4.313 4.313,-11.306 0,-15.618 -4.312,-4.313 -11.302,-4.313 -15.619,0 -10.951,10.951 -16.982,25.511 -16.982,40.998 0,15.485 6.031,30.045 16.983,40.997 z"
         inkscape:connector-curvature="0" /><path
         id="path14"
         d="m 302.938,106.707 c 0,9.587 -3.734,18.601 -10.514,25.38 -4.312,4.315 -4.312,11.308 0.001,15.62 2.157,2.157 4.983,3.235 7.809,3.235 2.826,0 5.652,-1.079 7.809,-3.235 10.951,-10.951 16.982,-25.511 16.982,-40.999 0,-15.487 -6.031,-30.047 -16.982,-40.998 -4.314,-4.313 -11.305,-4.313 -15.619,0 -4.313,4.313 -4.313,11.306 0,15.618 6.78,6.779 10.514,15.793 10.514,25.379 z"
         inkscape:connector-curvature="0" /></g></g><g
     id="g22"
     transform="translate(-130.1558,-51.200451)" /><g
     id="g24"
     transform="translate(-130.1558,-51.200451)" /><g
     id="g26"
     transform="translate(-130.1558,-51.200451)" /><g
     id="g28"
     transform="translate(-130.1558,-51.200451)" /><g
     id="g30"
     transform="translate(-130.1558,-51.200451)" /><g
     id="g32"
     transform="translate(-130.1558,-51.200451)" /><g
     id="g34"
     transform="translate(-130.1558,-51.200451)" /><g
     id="g36"
     transform="translate(-130.1558,-51.200451)" /><g
     id="g38"
     transform="translate(-130.1558,-51.200451)" /><g
     id="g40"
     transform="translate(-130.1558,-51.200451)" /><g
     id="g42"
     transform="translate(-130.1558,-51.200451)" /><g
     id="g44"
     transform="translate(-130.1558,-51.200451)" /><g
     id="g46"
     transform="translate(-130.1558,-51.200451)" /><g
     id="g48"
     transform="translate(-130.1558,-51.200451)" /><g
     id="g50"
     transform="translate(-130.1558,-51.200451)" /></svg>