<?xml version="1.0" encoding="UTF-8" standalone="no"?>
<!-- Generator: Adobe Illustrator 19.1.0, SVG Export Plug-In . SVG Version: 6.00 Build 0)  -->

<svg
   xmlns:dc="http://purl.org/dc/elements/1.1/"
   xmlns:cc="http://creativecommons.org/ns#"
   xmlns:rdf="http://www.w3.org/1999/02/22-rdf-syntax-ns#"
   xmlns:svg="http://www.w3.org/2000/svg"
   xmlns="http://www.w3.org/2000/svg"
   xmlns:sodipodi="http://sodipodi.sourceforge.net/DTD/sodipodi-0.dtd"
   xmlns:inkscape="http://www.inkscape.org/namespaces/inkscape"
   version="1.1"
   id="Capa_1"
   x="0px"
   y="0px"
   viewBox="0 0 28.26 28.260314"
   xml:space="preserve"
   sodipodi:docname="car.svg"
   inkscape:version="0.92.2 2405546, 2018-03-11"
   width="28.26"
   height="28.260315"><metadata
     id="metadata45"><rdf:RDF><cc:Work
         rdf:about=""><dc:format>image/svg+xml</dc:format><dc:type
           rdf:resource="http://purl.org/dc/dcmitype/StillImage" /></cc:Work></rdf:RDF></metadata><defs
     id="defs43"><marker
       inkscape:stockid="Arrow1Lstart"
       orient="auto"
       refY="0"
       refX="0"
       id="Arrow1Lstart"
       style="overflow:visible"
       inkscape:isstock="true"><path
         id="path5223"
         d="M 0,0 5,-5 -12.5,0 5,5 Z"
         style="fill:#e41408;fill-opacity:1;fill-rule:evenodd;stroke:none;stroke-width:1.00000003pt;stroke-opacity:1"
         transform="matrix(0.8,0,0,0.8,10,0)"
         inkscape:connector-curvature="0" /></marker></defs><sodipodi:namedview
     pagecolor="#ffffff"
     bordercolor="#666666"
     borderopacity="1"
     objecttolerance="10"
     gridtolerance="10"
     guidetolerance="10"
     inkscape:pageopacity="0"
     inkscape:pageshadow="2"
     inkscape:window-width="1920"
     inkscape:window-height="1020"
     id="namedview41"
     showgrid="false"
     inkscape:zoom="4.3388794"
     inkscape:cx="-74.444131"
     inkscape:cy="-42.132042"
     inkscape:window-x="0"
     inkscape:window-y="31"
     inkscape:window-maximized="1"
     inkscape:current-layer="g8" /><g
     id="g8"
     transform="translate(-322.84968,-300.00137)"><circle
       style="fill:#ffffff;fill-opacity:1;stroke:none;stroke-width:4.62334728;stroke-miterlimit:4;stroke-dasharray:none;stroke-dashoffset:0;stroke-opacity:1"
       id="path4516"
       cx="337.06555"
       cy="308.64386"
       r="7.5" /><path
       style="opacity:0.91199993;fill:#006680;fill-opacity:1;stroke-width:0.04500289"
       d="m 336.97989,302.01458 c 3.79868,0 6.88855,3.09168 6.88855,6.88986 0,3.79818 -3.09073,6.88725 -6.88855,6.88725 -3.80053,0 -6.89121,-3.08947 -6.89121,-6.88725 0,-3.79777 3.09077,-6.88986 6.89121,-6.88986 m 0,-2.01321 c -4.91775,0 -8.90423,3.98507 -8.90423,8.90262 0,4.9158 8.90423,19.3577 8.90423,19.3577 0,0 8.90377,-14.44185 8.90377,-19.3577 4.5e-4,-4.91755 -3.98603,-8.90262 -8.90377,-8.90262 z"
       id="path2"
       inkscape:connector-curvature="0"
       sodipodi:nodetypes="csssczsccz" /><path
       inkscape:connector-curvature="0"
       d="m 339.5866,305.49011 c 0.38568,0 0.43293,0.28215 0.43293,0.28215 0,0 0.60224,1.67566 0.59306,1.67566 0.67776,0.027 0.62106,0.44191 0.62106,0.44191 0,0 0.009,0.90409 0,0.90409 0.0571,0.405 -0.0752,0.47043 -0.0752,0.47966 -0.12286,0.15119 0.0752,0.35775 0.0752,0.35775 0.17911,0.31995 -0.0752,0.45166 -0.0752,0.45166 0,0 -0.26372,0.0846 -0.26372,0.094 -0.17912,0.0468 -0.15977,0.15975 -0.15977,0.15975 0,0 0,0.96962 0,0.9788 0,0.15975 -0.14131,0.1413 -0.14131,0.1413 0,0 -0.92258,0.009 -0.93135,0 -0.16967,0 -0.15076,-0.15075 -0.15076,-0.15075 0,0 0,-1.01633 0,-1.02591 0,-0.15075 -0.15077,-0.15075 -0.15077,-0.15075 h -4.76338 c 0,0 -0.15031,0 -0.15031,0.15075 0,0.009 0,1.02591 0,1.02591 0,0 0.018,0.15075 -0.15076,0.15075 -0.009,0.009 -0.93176,0 -0.93176,0 0,0 -0.14131,0.018 -0.14131,-0.1413 0,-0.009 0,-0.9788 0,-0.9788 0,0 0.018,-0.11295 -0.15977,-0.15975 0,-0.009 -0.26417,-0.094 -0.26417,-0.094 0,0 -0.25382,-0.13185 -0.0747,-0.45166 0,0 0.19757,-0.207 0.0747,-0.35775 0,-0.009 -0.13141,-0.0752 -0.0747,-0.47966 -0.009,0 0,-0.90409 0,-0.90409 0,0 -0.0572,-0.414 0.62106,-0.44191 -0.009,0 0.59265,-1.67566 0.59265,-1.67566 0,0 0.0477,-0.28215 0.43339,-0.28215 0,-0.009 5.21468,-0.009 5.21468,0"
       id="path3284"
       style="fill:#000000;stroke-width:0.39936259" /><path
       inkscape:connector-curvature="0"
       d="m 333.57193,308.77853 c 0,-0.24975 0.20207,-0.45248 0.4517,-0.45248 0.24977,0 0.45171,0.20295 0.45171,0.45248 0,0.24885 -0.20207,0.45166 -0.45171,0.45166 -0.24977,0 -0.4517,-0.2025 -0.4517,-0.45166"
       id="path3286"
       style="fill:#ffffff;stroke-width:0.39936259" /><path
       inkscape:connector-curvature="0"
       d="m 339.48277,308.77853 c 0,-0.24975 0.20252,-0.45248 0.45207,-0.45248 0.24977,0 0.4517,0.20295 0.4517,0.45248 0,0.24885 -0.20207,0.45166 -0.4517,0.45166 -0.24978,0 -0.45207,-0.2025 -0.45207,-0.45166"
       id="path3288"
       style="fill:#ffffff;stroke-width:0.39936259" /><path
       d="m 334.4378,305.8138 c 0,0 -0.17911,-0.036 -0.26372,0.1791 0,-0.018 -0.39558,1.39333 -0.39558,1.39333 0,0 1.23288,-0.1413 3.2094,-0.1413 1.97733,0 3.19144,0.1413 3.19144,0.1413 0,0 -0.39558,-1.4121 -0.39558,-1.39333 -0.0851,-0.2169 -0.26372,-0.1791 -0.26372,-0.1791 h -5.08291"
       id="path3290"
       style="fill:#ffffff;stroke-width:0.39936259"
       inkscape:connector-curvature="0" /></g><g
     id="g10"
     transform="translate(-322.84968,-300.00137)" /><g
     id="g12"
     transform="translate(-322.84968,-300.00137)" /><g
     id="g14"
     transform="translate(-322.84968,-300.00137)" /><g
     id="g16"
     transform="translate(-322.84968,-300.00137)" /><g
     id="g18"
     transform="translate(-322.84968,-300.00137)" /><g
     id="g20"
     transform="translate(-322.84968,-300.00137)" /><g
     id="g22"
     transform="translate(-322.84968,-300.00137)" /><g
     id="g24"
     transform="translate(-322.84968,-300.00137)" /><g
     id="g26"
     transform="translate(-322.84968,-300.00137)" /><g
     id="g28"
     transform="translate(-322.84968,-300.00137)" /><g
     id="g30"
     transform="translate(-322.84968,-300.00137)" /><g
     id="g32"
     transform="translate(-322.84968,-300.00137)" /><g
     id="g34"
     transform="translate(-322.84968,-300.00137)" /><g
     id="g36"
     transform="translate(-322.84968,-300.00137)" /><g
     id="g38"
     transform="translate(-322.84968,-300.00137)" /></svg>