<?xml version="1.0" encoding="UTF-8" standalone="no"?>
<!-- Created with Inkscape (http://www.inkscape.org/) -->

<svg
   xmlns:ns2="http://ns.adobe.com/AdobeIllustrator/10.0/"
   xmlns:dc="http://purl.org/dc/elements/1.1/"
   xmlns:cc="http://creativecommons.org/ns#"
   xmlns:rdf="http://www.w3.org/1999/02/22-rdf-syntax-ns#"
   xmlns:svg="http://www.w3.org/2000/svg"
   xmlns="http://www.w3.org/2000/svg"
   xmlns:sodipodi="http://sodipodi.sourceforge.net/DTD/sodipodi-0.dtd"
   xmlns:inkscape="http://www.inkscape.org/namespaces/inkscape"
   width="7.4376283mm"
   height="7.8965173mm"
   viewBox="0 0 90.000003 95.552852"
   id="svg7148"
   version="1.1"
   inkscape:version="0.92.1 r"
   sodipodi:docname="electronic_break.svg"
   inkscape:export-filename="/home/brunofernandes/it-git-repos/it2s-android/icsi_demonstrator/app/src/main/res/drawable-xxxhdpi/road_works.png"
   inkscape:export-xdpi="639.52814"
   inkscape:export-ydpi="639.52814">
  <defs
     id="defs7150">
    <clipPath
       clipPathUnits="userSpaceOnUse"
       id="clipPath4656">
      <rect
         style="fill:#ffffff;stroke-width:0.58628535"
         id="rect4658"
         width="19.144819"
         height="20.23105"
         x="630.8186"
         y="-1130.8098"
         transform="scale(1,-1)" />
    </clipPath>
    <clipPath
       clipPathUnits="userSpaceOnUse"
       id="clipPath4656-7">
      <rect
         style="fill:#ffffff;stroke-width:0.58628535"
         id="rect4658-5"
         width="19.144819"
         height="20.23105"
         x="630.8186"
         y="-1130.8098"
         transform="scale(1,-1)" />
    </clipPath>
  </defs>
  <sodipodi:namedview
     id="base"
     pagecolor="#ffffff"
     bordercolor="#666666"
     borderopacity="1.0"
     inkscape:pageopacity="0.0"
     inkscape:pageshadow="2"
     inkscape:zoom="4"
     inkscape:cx="98.539755"
     inkscape:cy="39.533989"
     inkscape:document-units="px"
     inkscape:current-layer="layer1"
     showgrid="false"
     fit-margin-top="0"
     fit-margin-left="0"
     fit-margin-right="0"
     fit-margin-bottom="0"
     inkscape:window-width="1680"
     inkscape:window-height="1021"
     inkscape:window-x="0"
     inkscape:window-y="0"
     inkscape:window-maximized="1" />
  <metadata
     id="metadata7153">
    <rdf:RDF>
      <cc:Work
         rdf:about="">
        <dc:format>image/svg+xml</dc:format>
        <dc:type
           rdf:resource="http://purl.org/dc/dcmitype/StillImage" />
        <dc:title />
      </cc:Work>
    </rdf:RDF>
  </metadata>
  <g
     inkscape:label="Layer 1"
     inkscape:groupmode="layer"
     id="layer1"
     transform="translate(-199.60579,-262.23589)">
    <g
       id="g5445">
      <g
         id="g41"
         transform="matrix(0.12860593,-0.03206505,-0.03206505,-0.12860593,176.36117,378.42691)" />
    </g>
    <g
       transform="translate(-90.15691,-11.813526)"
       id="g4837">
      <g
         id="g5393-7-9"
         transform="matrix(1.220574,0,0,1.220574,-483.12695,-763.8268)"
         inkscape:export-filename="/home/brunofernandes/it-git-repos/it2s-android/icsi_demonstrator/app/src/main/res/drawable-mdpi/road_works.png"
         inkscape:export-xdpi="159.61241"
         inkscape:export-ydpi="159.61241">
        <g
           id="g5273-1-2-2"
           transform="translate(165.6091,-62.283309)">
          <g
             id="g5270-0-7-2">
            <polyline
               transform="matrix(0.37277978,0,0,0.36896641,466.11509,912.16153)"
               id="polyline9-2-9-2-5-4-0-8-4-4-8"
               points="21.883,173.875 108.918,23.168 195.953,173.875 21.883,173.875 "
               ns2:knockout="Off"
               style="fill:#ffffff;fill-opacity:1" />
          </g>
          <g
             id="g5240-3-1-9"
             transform="translate(-135.84607,-204.52511)">
            <g
               transform="translate(131.16071,130.98214)"
               id="g5571-8-9-9-7-7">
              <g
                 transform="translate(3.2142857)"
                 id="g5664-1-5-9-36">
                <g
                   transform="translate(-95.27653,60.700804)"
                   id="g4971-4-2-6-1-2-1">
                  <g
                     id="g8312-0-7-7-2-3-2-2"
                     transform="translate(7.4612941,173.13848)">
                    <g
                       id="g7499-3-7-5-9-0-8-4-9"
                       transform="translate(-21.740359,-189.63467)">
                      <g
                         id="g7646-4-6-1-1-0-3-3">
                        <g
                           id="g5864-5-2-7-5-1-9-4-6-19"
                           transform="translate(-79.770404,-0.92315349)">
                          <path
                             d="m 693.33756,957.87671 c 1.06374,-1.95625 2.8075,-1.95625 3.87375,0 l 23.59,43.31999 c 1.065,1.9562 0.11375,3.5562 -2.11376,3.5562 h -46.8275 c -2.22624,0 -3.1775,-1.6 -2.11249,-3.5562 z m 3.87375,-13.5475 c -1.06625,-1.955 -2.81001,-1.955 -3.87375,0 l -34.49375,63.34879 c -1.06625,1.9549 -0.11625,3.5562 2.11125,3.5562 h 68.63874 c 2.22626,0 3.17625,-1.6013 2.11126,-3.5562 l -34.49375,-63.34879"
                             style="fill:#ed1e24;fill-opacity:1;fill-rule:nonzero;stroke:none"
                             id="path248-3-3-5-1-5-8-0-6-5-4"
                             inkscape:connector-curvature="0" />
                          <path
                             d="m 695.27381,954.32046 -27.4625,50.43244 h 54.92625 l -27.46375,-50.43244"
                             style="fill:none;fill-opacity:1;fill-rule:nonzero;stroke:none"
                             id="path250-9-0-7-6-9-0-4-2-7-78"
                             inkscape:connector-curvature="0" />
                        </g>
                      </g>
                    </g>
                  </g>
                </g>
              </g>
            </g>
          </g>
        </g>
      </g>
      <g
         clip-path="url(#clipPath4656-7)"
         transform="matrix(1.220574,0,0,-1.220574,-446.88192,1733.1379)"
         id="g5240-3-1-7-4">
        <g
           id="g5571-8-9-9-7-5-5"
           transform="translate(131.16071,130.98214)">
          <g
             id="g5664-1-5-9-3-0"
             transform="translate(3.2142857)">
            <g
               id="g4971-4-2-6-1-2-5-3"
               transform="translate(-95.27653,60.700804)">
              <g
                 transform="translate(7.4612941,173.13848)"
                 id="g8312-0-7-7-2-3-2-6-6">
                <g
                   transform="translate(-21.740359,-189.63467)"
                   id="g7499-3-7-5-9-0-8-4-2-1">
                  <g
                     id="g7646-4-6-1-1-0-3-9-0">
                    <g
                       transform="translate(-79.770404,-0.92315349)"
                       id="g5864-5-2-7-5-1-9-4-6-1-6">
                      <path
                         inkscape:connector-curvature="0"
                         id="path248-3-3-5-1-5-8-0-6-5-2-3"
                         style="fill:#ed1e24;fill-opacity:1;fill-rule:nonzero;stroke:none"
                         d="m 693.33756,957.87671 c 1.06374,-1.95625 2.8075,-1.95625 3.87375,0 l 23.59,43.31999 c 1.065,1.9562 0.11375,3.5562 -2.11376,3.5562 h -46.8275 c -2.22624,0 -3.1775,-1.6 -2.11249,-3.5562 z m 3.87375,-13.5475 c -1.06625,-1.955 -2.81001,-1.955 -3.87375,0 l -34.49375,63.34879 c -1.06625,1.9549 -0.11625,3.5562 2.11125,3.5562 h 68.63874 c 2.22626,0 3.17625,-1.6013 2.11126,-3.5562 l -34.49375,-63.34879" />
                      <path
                         inkscape:connector-curvature="0"
                         id="path250-9-0-7-6-9-0-4-2-7-7-2"
                         style="fill:none;fill-opacity:1;fill-rule:nonzero;stroke:none"
                         d="m 695.27381,954.32046 -27.4625,50.43244 h 54.92625 l -27.46375,-50.43244" />
                    </g>
                  </g>
                </g>
              </g>
            </g>
          </g>
        </g>
      </g>
    </g>
    <g
       id="g4751"
       transform="translate(-0.86003942,-1.5370452)">
      <g
         transform="matrix(1.220574,0,0,1.220574,-370.28566,-850.12462)"
         id="g5270-0-7">
        <polyline
           style="fill:#000000;fill-opacity:1"
           ns2:knockout="Off"
           points="21.883,173.875 108.918,23.168 195.953,173.875 21.883,173.875 "
           id="polyline9-2-9-2-5-4-0-8-4-4"
           transform="matrix(0.37277978,0,0,0.36896641,463.87455,910.43595)" />
      </g>
      <g
         transform="matrix(1.220574,0,0,1.220574,-536.09584,-1099.7627)"
         id="g5240-3-1">
        <g
           id="g5571-8-9-9-7"
           transform="translate(131.16071,130.98214)">
          <g
             id="g5664-1-5-9"
             transform="translate(3.2142857)">
            <g
               id="g4971-4-2-6-1-2"
               transform="translate(-95.27653,60.700804)">
              <g
                 transform="translate(7.4612941,173.13848)"
                 id="g8312-0-7-7-2-3-2">
                <g
                   transform="translate(-21.740359,-189.63467)"
                   id="g7499-3-7-5-9-0-8-4">
                  <g
                     id="g7646-4-6-1-1-0-3">
                    <g
                       transform="translate(-79.770404,-0.92315349)"
                       id="g5864-5-2-7-5-1-9-4-6">
                      <path
                         inkscape:connector-curvature="0"
                         id="path248-3-3-5-1-5-8-0-6-5"
                         style="fill:#ed1e24;fill-opacity:1;fill-rule:nonzero;stroke:none"
                         d="m 693.33756,957.87671 c 1.06374,-1.95625 2.8075,-1.95625 3.87375,0 l 23.59,43.31999 c 1.065,1.9562 0.11375,3.5562 -2.11376,3.5562 h -46.8275 c -2.22624,0 -3.1775,-1.6 -2.11249,-3.5562 z m 3.87375,-13.5475 c -1.06625,-1.955 -2.81001,-1.955 -3.87375,0 l -34.49375,63.34879 c -1.06625,1.9549 -0.11625,3.5562 2.11125,3.5562 h 68.63874 c 2.22626,0 3.17625,-1.6013 2.11126,-3.5562 l -34.49375,-63.34879" />
                      <path
                         inkscape:connector-curvature="0"
                         id="path250-9-0-7-6-9-0-4-2-7"
                         style="fill:none;fill-opacity:1;fill-rule:nonzero;stroke:none"
                         d="m 695.27381,954.32046 -27.4625,50.43244 h 54.92625 l -27.46375,-50.43244" />
                    </g>
                  </g>
                </g>
              </g>
            </g>
          </g>
        </g>
      </g>
      <g
         id="g4557"
         transform="matrix(0.10396191,0,0,0.10396191,146.87982,312.85168)">
        <g
           id="g4590"
           style="fill:#ed1e24;fill-opacity:1">
          <path
             inkscape:connector-curvature="0"
             id="path4539"
             d="M 813.18108,223.25318 C 788.78209,188.99936 774.43916,155.08284 769.2958,119.4783 c -2.30144,-15.93159 -1.59135,-46.128411 1.43712,-61.114091 5.48262,-27.12942 16.00394,-52.4552598 31.27916,-75.29197 6.15995,-9.20922 15.9918,-21.67282 19.76593,-25.05678 l 2.166,-1.94209 10.95901,10.92503 c 6.02746,6.00877 10.95901,11.31561 10.95901,11.79298 0,0.47737 -2.77605,4.31005 -6.16901,8.51705 -34.45517,42.72181 -47.03529,93.47532 -35.358,142.649111 5.94342,25.02809 19.46001,53.01535 36.94465,76.49707 3.0703,4.12338 5.58236,8.05217 5.58236,8.73064 0,1.5051 -21.50917,18.65389 -23.91629,19.06793 -1.19995,0.2064 -4.14752,-3.11408 -9.76466,-11 z"
             style="fill:#ed1e24;fill-opacity:1" />
          <path
             inkscape:connector-curvature="0"
             id="path4537"
             d="m 835.01947,223.67996 10.65744,-8.38344 -6.75243,-9.32277 c -18.38703,-25.38619 -30.18951,-50.50317 -36.69679,-78.09484 -2.63763,-11.18387 -2.81106,-13.28237 -2.80339,-33.921371 0.007,-18.94948 0.31091,-23.35312 2.19147,-31.75851 6.14193,-27.4522 19.22988,-54.5750598 36.43231,-75.50061 l 5.96756,-7.25912 -3.00167,-3.74088 c -1.65092,-2.05748 -6.21581,-6.89088 -10.14421,-10.74088 l -7.14254,-7 -3.4887,4 c -13.0231,14.93174 -22.90145,30.0826102 -31.94794,49 -12.33782,25.79997 -17.98097,48.09651 -19.1087,75.5 -1.86827,45.398401 13.56711,91.600751 45.4916,136.168841 4.20319,5.86786 8.10261,10.39168 8.66536,10.05293 0.56276,-0.33875 5.81904,-4.38845 11.68063,-8.99935 z"
             style="fill:#ed1e24;fill-opacity:1" />
        </g>
        <g
           id="g4586"
           style="fill:#ed1e24;fill-opacity:1">
          <path
             inkscape:connector-curvature="0"
             id="path4535"
             d="m 1060.8661,225.46625 c -6.3228,-4.94142 -11.6289,-9.38322 -11.7914,-9.87066 -0.1625,-0.48745 0.8817,-2.28514 2.3203,-3.99488 6.4007,-7.60678 20.2349,-29.75489 26.0112,-41.64317 21.301,-43.83976 24.7318,-83.099511 10.9382,-125.169681 -6.837,-20.85238 -19.5755,-43.85308984 -32.282,-58.28849 -2.8602,-3.24933 -5.2004,-6.44724 -5.2004,-7.10647 0,-1.51375 19.96,-22.31221 21.6509,-22.56038 0.6891,-0.10114 4.5027,3.71062 8.4746,8.47057 23.2902,27.9106902 39.5971,63.07463 45.5182,98.15445 2.0598,12.2032 2.7859,35.67105 1.4933,48.264111 -3.9447,38.43228 -18.7012,75.17406 -44.9716,111.97351 -4.216,5.90569 -8.3404,10.74164 -9.1654,10.74655 -0.825,0.005 -6.6731,-4.03404 -12.9959,-8.97546 z"
             style="fill:#ed1e24;fill-opacity:1" />
          <path
             inkscape:connector-curvature="0"
             id="path4533"
             d="m 1087.9986,213.45754 c 10.2565,-15.38318 23.1282,-40.73402 28.2204,-55.58035 7.9456,-23.16523 11.0688,-41.75498 10.9909,-65.419651 -0.059,-17.78399 -1.5622,-29.40257 -6.0176,-46.5 -7.7418,-29.70921 -24.824,-61.50824 -44.7506,-83.30483 l -3.9355,-4.30484 -10.2548,10.21991 -10.2548,10.21992 5.8249,7.08492 c 18.2503,22.1978602 31.6623,50.21973 37.2646,77.85716 3.2373,15.97036 3.1958,45.327511 -0.086,60.607371 -6.5679,30.58292 -20.0279,58.8043 -41.8802,87.80945 l -2.4026,3.18906 11.3222,9.03122 11.3222,9.03122 2.8178,-3.22028 c 1.5499,-1.77115 6.8683,-9.29528 11.8188,-16.72028 z"
             style="fill:#ed1e24;fill-opacity:1" />
        </g>
        <path
           style="fill:#ed1e24;fill-opacity:1"
           d="m 930.36203,218.06304 c -28.3725,-4.70128 -51.77409,-17.24718 -71.5,-38.33208 -30.83353,-32.95777 -41.02321,-80.604261 -26.49416,-123.885541 9.28508,-27.65978 28.74255,-51.5447598 54.58993,-67.01179 31.46865,-18.83078 73.37807,-22.21529 107.40423,-8.67374 16.71457,6.65198 28.39067,14.2030802 41.33367,26.7311602 22.0129,21.3071598 33.9327,46.2208298 37.1723,77.6944898 2.5412,24.687701 -3.6021,52.419211 -16.3207,73.673711 -18.2653,30.52365 -47.0002,51.1655 -81.84764,58.79555 -9.87322,2.1618 -34.05694,2.71174 -44.33763,1.00824 z"
           id="path4531"
           inkscape:connector-curvature="0" />
        <g
           id="g4593">
          <path
             inkscape:connector-curvature="0"
             id="path4529"
             d="m 964.86203,216.98309 c 26.90737,-3.67839 49.51557,-14.4635 68.65887,-32.75331 45.5396,-43.50943 51.3317,-111.980311 13.7127,-162.104751 -35.7687,-47.65904 -100.55614,-62.39143 -153.69059,-34.94856 -36.96553,19.0919402 -61.50856,55.62756 -65.82355,97.98724 -4.09604,40.210351 14.94477,82.943541 48.06789,107.878521 26.0833,19.63542 57.93877,28.19731 89.07468,23.94086 z"
             style="fill:#ed1e24;fill-opacity:1;stroke:#c27e80;stroke-opacity:0.20962686" />
        </g>
        <path
           style="fill:#ed1e24;fill-opacity:1"
           d="m 933.2036,187.04621 c -19.93863,-3.80785 -36.98212,-13.04407 -50.48695,-27.35991 -8.25842,-8.75435 -11.88796,-14.01388 -16.88603,-24.46935 -6.52902,-13.65806 -8.27432,-21.87431 -8.33949,-39.259411 -0.0474,-12.63601 0.30602,-16.33952 2.24233,-23.4995 5.53355,-20.46171 17.06381,-37.85553 33.35284,-50.31401 36.01068,-27.5423498 86.90919,-25.0934998 119.5443,5.75157 13.1653,12.44313 20.4053,23.84388 25.5952,40.30417 4.7531,15.07512 5.1816,35.411641 1.0871,51.591601 -2.363,9.33807 -10.6496,25.52684 -17.441,34.07304 -11.6551,14.66683 -31.17004,27.25737 -49.00987,31.62003 -10.98364,2.68601 -29.87604,3.43 -39.65843,1.56177 z"
           id="path4527"
           inkscape:connector-curvature="0" />
        <path
           style="fill:#000000;fill-opacity:1"
           d="m 970.73902,184.37883 c 26.5993,-6.17309 50.69708,-26.06165 62.13088,-51.27831 9.1394,-20.15656 10.4908,-45.083351 3.5493,-65.466291 -9.7034,-28.4931 -30.2482,-49.03826 -58.73386,-58.7348998 -20.38817,-6.94023 -45.31066,-5.58863 -65.46629,3.5503698 -25.35851,11.49809 -44.7986,35.14104 -51.49736,62.63085 -2.64101,10.83793 -2.90985,28.317081 -0.5982,38.893511 9.64012,44.10614 49.63268,75.16732 93.73854,72.80428 4.675,-0.25047 12.26965,-1.33025 16.87699,-2.39951 z"
           id="path4525"
           inkscape:connector-curvature="0" />
        <g
           id="g4600"
           style="fill:#ed1e24;fill-opacity:1">
          <g
             id="g4582"
             style="fill:#ed1e24;fill-opacity:1">
            <path
               style="fill:#ed1e24;fill-opacity:1"
               d="m 943.13172,166.97495 c -9.55914,-4.15562 -9.79625,-21.09104 -0.36357,-25.96886 9.23896,-4.77766 19.08172,1.83917 19.09014,12.83342 0.008,10.92133 -9.10892,17.3165 -18.72657,13.13544 z"
               id="path4523"
               inkscape:connector-curvature="0" />
            <path
               style="fill:#ed1e24;fill-opacity:1"
               d="m 955.71855,163.92481 c 6.01293,-5.05954 6.52154,-13.93536 1.10871,-19.34819 -4.0157,-4.0157 -8.06101,-4.78441 -12.64876,-2.40357 -6.34802,3.29433 -8.99953,11.12914 -5.83645,17.24585 3.70366,7.1621 11.74246,9.24665 17.3765,4.50591 z"
               id="path4521"
               inkscape:connector-curvature="0" />
            <path
               style="fill:#ed1e24;fill-opacity:1"
               d="m 943.95843,132.24671 c -1.32198,-0.70904 -3.34698,-2.55986 -4.5,-4.11293 -2.05167,-2.76352 -2.0964,-3.73428 -2.0964,-45.500001 v -42.67624 l 2.30023,-3.22491 c 2.54322,-3.56558 8.49149,-5.92066 12.4467,-4.92796 4.00145,1.0043 7.62006,4.51298 8.71305,8.44836 1.34574,4.84543 1.38177,78.434151 0.0408,83.261361 -2.04447,7.35947 -10.91782,11.9432 -16.90435,8.73232 z"
               id="path4519"
               inkscape:connector-curvature="0" />
            <path
               style="fill:#ed1e24;fill-opacity:1"
               d="m 956.09625,128.54035 3.26578,-2.91719 0.28235,-41.797611 c 0.20412,-30.21796 -0.0418,-42.58026 -0.88782,-44.62264 -1.60256,-3.86893 -4.61285,-5.74537 -9.21704,-5.74537 -3.07636,0 -4.57996,0.70247 -7.27749,3.4 l -3.4,3.4 v 41.64966 c 0,44.109771 0.16565,45.800101 4.74998,48.470231 3.53389,2.0583 9.02855,1.24975 12.48424,-1.83708 z"
               id="path4487"
               inkscape:connector-curvature="0" />
          </g>
        </g>
      </g>
    </g>
  </g>
</svg>
