<?xml version="1.0" encoding="UTF-8" standalone="no"?>
<!-- Generator: Adobe Illustrator 16.0.0, SVG Export Plug-In . SVG Version: 6.00 Build 0)  -->

<svg
   xmlns:dc="http://purl.org/dc/elements/1.1/"
   xmlns:cc="http://creativecommons.org/ns#"
   xmlns:rdf="http://www.w3.org/1999/02/22-rdf-syntax-ns#"
   xmlns:svg="http://www.w3.org/2000/svg"
   xmlns="http://www.w3.org/2000/svg"
   xmlns:sodipodi="http://sodipodi.sourceforge.net/DTD/sodipodi-0.dtd"
   xmlns:inkscape="http://www.inkscape.org/namespaces/inkscape"
   version="1.1"
   id="Capa_1"
   x="0px"
   y="0px"
   width="15mm"
   height="12mm"
   viewBox="0 0 27.218125 34.988008"
   xml:space="preserve"
   sodipodi:docname="hand-with-smartphone-and-wireless-internet.svg"
   inkscape:version="0.92.1 r"><metadata
     id="metadata41"><rdf:RDF><cc:Work
         rdf:about=""><dc:format>image/svg+xml</dc:format><dc:type
           rdf:resource="http://purl.org/dc/dcmitype/StillImage" /></cc:Work></rdf:RDF></metadata><defs
     id="defs39" /><sodipodi:namedview
     pagecolor="#ffffff"
     bordercolor="#666666"
     borderopacity="1"
     objecttolerance="10"
     gridtolerance="10"
     guidetolerance="10"
     inkscape:pageopacity="0"
     inkscape:pageshadow="2"
     inkscape:window-width="848"
     inkscape:window-height="480"
     id="namedview37"
     showgrid="false"
     inkscape:zoom="3.372585"
     inkscape:cx="13.560745"
     inkscape:cy="1.2056781"
     inkscape:window-x="0"
     inkscape:window-y="31"
     inkscape:window-maximized="0"
     inkscape:current-layer="Capa_1" /><g
     id="g4"
     transform="translate(-3.8845,-4.9993508e-4)"><path
       d="M 8.945,2.921 8.189,2.167 c 2.887,-2.888 7.586,-2.889 10.473,-10e-4 L 17.906,2.923 C 15.435,0.452 11.415,0.452 8.945,2.921 Z m 8.41,0.553 C 15.187,1.308 11.662,1.308 9.496,3.475 L 10.253,4.23 C 12.001,2.48 14.85,2.48 16.6,4.229 Z M 11.604,5.58 c 1.004,-1.006 2.641,-1.006 3.646,0 L 16.006,4.823 C 14.584,3.4 12.27,3.4 10.846,4.824 Z m 9.039,9.937 -0.24,0.24 c -0.535,0.535 -0.535,1.402 0.002,1.937 l 0.105,0.105 c 0.535,0.536 1.399,0.536 1.936,0.001 l 1.81,-1.808 0.237,-0.239 c 0.535,-0.535 0.535,-1.403 0,-1.938 l -0.107,-0.106 c -0.532,-0.535 -1.399,-0.535 -1.937,0 z m 3.984,0.849 -1.809,1.809 c -0.532,0.533 -0.532,1.401 0,1.936 l 0.104,0.106 c 0.535,0.534 1.401,0.534 1.937,0 l 0.24,-0.241 1.567,-1.565 0.237,-0.24 c 0.537,-0.535 0.535,-1.4 0.002,-1.938 L 26.8,16.128 c -0.534,-0.534 -1.399,-0.537 -1.937,-0.001 z m 5.971,8.792 -8.08,8.081 c -0.674,0.674 -1.777,0.674 -2.449,0.001 l -1.391,-1.392 -1.472,1.47 c 0,0 -2.191,2.176 -5.16,1.561 C 12.023,34.874 11.999,34.871 11.977,34.866 11.848,34.838 11.716,34.8 11.585,34.761 11.478,34.729 11.366,34.691 11.257,34.651 11.15,34.611 11.042,34.575 10.933,34.526 10.714,34.431 10.495,34.323 10.272,34.193 10.207,34.154 10.138,34.106 10.071,34.064 9.884,33.949 9.696,33.818 9.507,33.674 9.434,33.618 9.36,33.562 9.284,33.501 9.032,33.298 8.779,33.079 8.524,32.823 5.663,29.962 5.788,27.413 6.323,26.126 6.325,26.122 6.761,24.516 7.29,22.602 7.439,22.058 7.598,21.492 7.753,20.925 L 4.39,17.561 c -0.674,-0.673 -0.674,-1.775 0,-2.45 l 8.08,-8.079 c 0.674,-0.674 1.777,-0.674 2.449,0 l 4.688,4.686 0.426,-0.427 c 0.535,-0.535 1.402,-0.533 1.938,0 l 0.105,0.107 c 0.535,0.534 0.535,1.4 0,1.936 l -0.239,0.241 -1.565,1.566 -0.242,0.24 c -0.532,0.533 -1.396,0.536 -1.935,0 l -0.104,-0.104 c -0.534,-0.536 -0.534,-1.403 0,-1.938 l 0.238,-0.24 v -10e-4 l 0.528,-0.528 -3.97,-3.969 -8.828,8.825 2.168,2.166 C 8.496,18.272 8.826,17.121 9,16.573 c 0.549,-1.739 1.935,-1.675 2.594,-0.617 0.513,0.815 0.115,2.672 -0.151,4.774 -0.053,0.415 -0.192,1.097 -0.354,1.821 l 8.793,8.792 8.823,-8.825 -0.655,-0.655 -0.77,0.77 c -0.534,0.535 -1.4,0.533 -1.936,0 l -0.107,-0.107 c -0.534,-0.533 -0.534,-1.398 0,-1.936 l 0.24,-0.24 1.567,-1.566 0.237,-0.24 c 0.535,-0.534 1.4,-0.535 1.938,-0.001 l 0.104,0.105 c 0.537,0.535 0.535,1.401 0,1.938 l -0.237,0.238 0.002,0.002 -0.188,0.186 1.697,1.697 c 0.674,0.673 0.674,1.774 10e-4,2.449 z M 8.021,13.544 c 0.08,0.082 0.215,0.08 0.295,-0.001 l 2.586,-2.586 c 0.082,-0.081 0.082,-0.214 0,-0.295 C 10.82,10.58 10.687,10.58 10.607,10.661 l -2.586,2.586 c -0.082,0.082 -0.082,0.214 0,0.297 z m 17.924,13.818 c -0.338,-0.339 -0.887,-0.339 -1.225,0 -0.338,0.339 -0.336,0.887 0,1.225 0.34,0.339 0.887,0.339 1.225,0.001 0.337,-0.339 0.337,-0.886 0,-1.226 z"
       id="path2"
       inkscape:connector-curvature="0" /></g><g
     id="g6"
     transform="translate(-3.8845,-4.9993508e-4)" /><g
     id="g8"
     transform="translate(-3.8845,-4.9993508e-4)" /><g
     id="g10"
     transform="translate(-3.8845,-4.9993508e-4)" /><g
     id="g12"
     transform="translate(-3.8845,-4.9993508e-4)" /><g
     id="g14"
     transform="translate(-3.8845,-4.9993508e-4)" /><g
     id="g16"
     transform="translate(-3.8845,-4.9993508e-4)" /><g
     id="g18"
     transform="translate(-3.8845,-4.9993508e-4)" /><g
     id="g20"
     transform="translate(-3.8845,-4.9993508e-4)" /><g
     id="g22"
     transform="translate(-3.8845,-4.9993508e-4)" /><g
     id="g24"
     transform="translate(-3.8845,-4.9993508e-4)" /><g
     id="g26"
     transform="translate(-3.8845,-4.9993508e-4)" /><g
     id="g28"
     transform="translate(-3.8845,-4.9993508e-4)" /><g
     id="g30"
     transform="translate(-3.8845,-4.9993508e-4)" /><g
     id="g32"
     transform="translate(-3.8845,-4.9993508e-4)" /><g
     id="g34"
     transform="translate(-3.8845,-4.9993508e-4)" /></svg>