<?xml version="1.0" encoding="UTF-8" standalone="no"?>
<!-- Created with Inkscape (http://www.inkscape.org/) -->

<svg
   xmlns:dc="http://purl.org/dc/elements/1.1/"
   xmlns:cc="http://creativecommons.org/ns#"
   xmlns:rdf="http://www.w3.org/1999/02/22-rdf-syntax-ns#"
   xmlns:svg="http://www.w3.org/2000/svg"
   xmlns="http://www.w3.org/2000/svg"
   xmlns:sodipodi="http://sodipodi.sourceforge.net/DTD/sodipodi-0.dtd"
   xmlns:inkscape="http://www.inkscape.org/namespaces/inkscape"
   width="7.4376283mm"
   height="7.8965173mm"
   viewBox="0 0 90.000003 95.552852"
   id="svg7148"
   version="1.1"
   inkscape:version="0.92+devel 15657 custom"
   sodipodi:docname="human_on_the_road.svg"
   inkscape:export-filename="/home/brunofernandes/it-git-repos/it2s-android/icsi_demonstrator/app/src/main/res/drawable-xxxhdpi/road_works.png"
   inkscape:export-xdpi="639.52814"
   inkscape:export-ydpi="639.52814">
  <defs
     id="defs7150">
    <clipPath
       clipPathUnits="userSpaceOnUse"
       id="clipPath4656">
      <rect
         style="fill:#ffffff;stroke-width:0.58628535"
         id="rect4658"
         width="19.144819"
         height="20.23105"
         x="630.8186"
         y="-1130.8098"
         transform="scale(1,-1)" />
    </clipPath>
    <clipPath
       clipPathUnits="userSpaceOnUse"
       id="clipPath4656-7">
      <rect
         style="fill:#ffffff;stroke-width:0.58628535"
         id="rect4658-5"
         width="19.144819"
         height="20.23105"
         x="630.8186"
         y="-1130.8098"
         transform="scale(1,-1)" />
    </clipPath>
  </defs>
  <sodipodi:namedview
     id="base"
     pagecolor="#ffffff"
     bordercolor="#666666"
     borderopacity="1.0"
     inkscape:pageopacity="0.0"
     inkscape:pageshadow="2"
     inkscape:zoom="16"
     inkscape:cx="17.762571"
     inkscape:cy="16.941482"
     inkscape:document-units="px"
     inkscape:current-layer="layer1"
     showgrid="false"
     fit-margin-top="0"
     fit-margin-left="0"
     fit-margin-right="0"
     fit-margin-bottom="0"
     inkscape:window-width="2560"
     inkscape:window-height="1021"
     inkscape:window-x="0"
     inkscape:window-y="0"
     inkscape:window-maximized="1"
     inkscape:document-rotation="0" />
  <metadata
     id="metadata7153">
    <rdf:RDF>
      <cc:Work
         rdf:about="">
        <dc:format>image/svg+xml</dc:format>
        <dc:type
           rdf:resource="http://purl.org/dc/dcmitype/StillImage" />
        <dc:title />
      </cc:Work>
    </rdf:RDF>
  </metadata>
  <g
     inkscape:label="Layer 1"
     inkscape:groupmode="layer"
     id="layer1"
     transform="translate(-64.311409,-262.33072)">
    <g
       id="g4411">
      <g
         id="g5240-3-1-9"
         transform="matrix(1.220574,0,0,1.220574,-672.25026,-1101.2049)">
        <g
           transform="translate(131.16071,130.98214)"
           id="g5571-8-9-9-7-7">
          <g
             transform="translate(3.2142857)"
             id="g5664-1-5-9-36">
            <g
               transform="translate(-95.27653,60.700804)"
               id="g4971-4-2-6-1-2-1">
              <g
                 id="g8312-0-7-7-2-3-2-2"
                 transform="translate(7.4612941,173.13848)">
                <g
                   id="g7499-3-7-5-9-0-8-4-9"
                   transform="translate(-21.740359,-189.63467)">
                  <g
                     id="g7646-4-6-1-1-0-3-3">
                    <g
                       id="g5864-5-2-7-5-1-9-4-6-19"
                       transform="translate(-79.770404,-0.92315349)">
                      <path
                         d="m 693.33756,957.87671 c 1.06374,-1.95625 2.8075,-1.95625 3.87375,0 l 23.59,43.31999 c 1.065,1.9562 0.11375,3.5562 -2.11376,3.5562 h -46.8275 c -2.22624,0 -3.1775,-1.6 -2.11249,-3.5562 z m 3.87375,-13.5475 c -1.06625,-1.955 -2.81001,-1.955 -3.87375,0 l -34.49375,63.34879 c -1.06625,1.9549 -0.11625,3.5562 2.11125,3.5562 h 68.63874 c 2.22626,0 3.17625,-1.6013 2.11126,-3.5562 l -34.49375,-63.34879"
                         style="fill:#ed1e24;fill-opacity:1;fill-rule:nonzero;stroke:none"
                         id="path248-3-3-5-1-5-8-0-6-5-4"
                         inkscape:connector-curvature="0" />
                      <path
                         d="m 695.27381,954.32046 -27.4625,50.43244 h 54.92625 l -27.46375,-50.43244"
                         style="fill:none;fill-opacity:1;fill-rule:nonzero;stroke:none"
                         id="path250-9-0-7-6-9-0-4-2-7-78"
                         inkscape:connector-curvature="0" />
                    </g>
                  </g>
                </g>
              </g>
            </g>
          </g>
        </g>
      </g>
      <g
         clip-path="url(#clipPath4656-7)"
         transform="matrix(1.220574,0,0,-1.220574,-672.33321,1721.4192)"
         id="g5240-3-1-7-4">
        <g
           id="g5571-8-9-9-7-5-5"
           transform="translate(131.16071,130.98214)">
          <g
             id="g5664-1-5-9-3-0"
             transform="translate(3.2142857)">
            <g
               id="g4971-4-2-6-1-2-5-3"
               transform="translate(-95.27653,60.700804)">
              <g
                 transform="translate(7.4612941,173.13848)"
                 id="g8312-0-7-7-2-3-2-6-6">
                <g
                   transform="translate(-21.740359,-189.63467)"
                   id="g7499-3-7-5-9-0-8-4-2-1">
                  <g
                     id="g7646-4-6-1-1-0-3-9-0">
                    <g
                       transform="translate(-79.770404,-0.92315349)"
                       id="g5864-5-2-7-5-1-9-4-6-1-6">
                      <path
                         inkscape:connector-curvature="0"
                         id="path248-3-3-5-1-5-8-0-6-5-2-3"
                         style="fill:#ed1e24;fill-opacity:1;fill-rule:nonzero;stroke:none"
                         d="m 693.33756,957.87671 c 1.06374,-1.95625 2.8075,-1.95625 3.87375,0 l 23.59,43.31999 c 1.065,1.9562 0.11375,3.5562 -2.11376,3.5562 h -46.8275 c -2.22624,0 -3.1775,-1.6 -2.11249,-3.5562 z m 3.87375,-13.5475 c -1.06625,-1.955 -2.81001,-1.955 -3.87375,0 l -34.49375,63.34879 c -1.06625,1.9549 -0.11625,3.5562 2.11125,3.5562 h 68.63874 c 2.22626,0 3.17625,-1.6013 2.11126,-3.5562 l -34.49375,-63.34879" />
                      <path
                         inkscape:connector-curvature="0"
                         id="path250-9-0-7-6-9-0-4-2-7-7-2"
                         style="fill:none;fill-opacity:1;fill-rule:nonzero;stroke:none"
                         d="m 695.27381,954.32046 -27.4625,50.43244 h 54.92625 l -27.46375,-50.43244" />
                    </g>
                  </g>
                </g>
              </g>
            </g>
          </g>
        </g>
      </g>
      <path
         inkscape:connector-curvature="0"
         id="path4487"
         style="fill:#000000;fill-opacity:1;fill-rule:evenodd;stroke:none;stroke-width:0.09280878"
         d="m 113.40734,294.48331 c 0,-2.14091 -1.73596,-3.87714 -3.87744,-3.87714 -2.14147,0 -3.87714,1.73623 -3.87714,3.87714 0,2.14105 1.73567,3.877 3.87714,3.877 2.14148,0 3.87744,-1.73595 3.87744,-3.877 z m -6.55197,31.4947 4.04851,-7.61209 2.08413,9.14306 4.61338,8.87346 c 0.32291,0.61762 0.95086,1.01547 1.64748,1.04379 0.69619,0.0293 1.35527,-0.3169 1.72716,-0.90691 0.37189,-0.58887 0.4044,-1.32511 0.0796,-1.94164 l -4.40158,-8.42398 -1.88945,-8.21242 v -4.44078 h -7.75444 v 3.9186 l -3.88955,7.31208 -1.64986,10.50712 c -0.16606,1.05915 0.55721,2.05243 1.61622,2.21919 1.06027,0.16592 2.05314,-0.55791 2.21963,-1.61706 l 1.54923,-9.86242 z m 7.90877,-13.44665 v -7.57889 l 3.83989,3.49033 v 4.54558 c 0,0.80238 0.65112,1.45351 1.45379,1.45351 0.80337,0 1.45476,-0.65113 1.45476,-1.45351 v -6.15008 l -5.89302,-6.09915 c -1.18223,-1.22381 -2.84117,-1.86851 -4.53971,-1.76357 -1.69842,0.10465 -3.26622,0.94723 -4.28924,2.30642 l -8.892709,11.81214 c -0.33937,0.43707 -0.41403,1.02345 -0.19438,1.53083 0.21993,0.50738 0.69857,0.8543 1.24893,0.90579 0.55093,0.0516 1.02497,-0.12001 1.334059,-0.57799 l 6.7232,-8.64363 v 6.22222 z" />
    </g>
  </g>
</svg>
