<?xml version="1.0" encoding="UTF-8" standalone="no"?>
<!-- Generator: Adobe Illustrator 19.0.0, SVG Export Plug-In . SVG Version: 6.00 Build 0)  -->

<svg
   xmlns:dc="http://purl.org/dc/elements/1.1/"
   xmlns:cc="http://creativecommons.org/ns#"
   xmlns:rdf="http://www.w3.org/1999/02/22-rdf-syntax-ns#"
   xmlns:svg="http://www.w3.org/2000/svg"
   xmlns="http://www.w3.org/2000/svg"
   xmlns:sodipodi="http://sodipodi.sourceforge.net/DTD/sodipodi-0.dtd"
   xmlns:inkscape="http://www.inkscape.org/namespaces/inkscape"
   version="1.1"
   id="Layer_1"
   x="0px"
   y="0px"
   viewBox="0 0 518.46485 309.27628"
   xml:space="preserve"
   sodipodi:docname="jcar.svg"
   width="15mm"
   height="12mm"
   inkscape:version="0.92.1 r"><metadata
     id="metadata85"><rdf:RDF><cc:Work
         rdf:about=""><dc:format>image/svg+xml</dc:format><dc:type
           rdf:resource="http://purl.org/dc/dcmitype/StillImage" /></cc:Work></rdf:RDF></metadata><defs
     id="defs83" /><sodipodi:namedview
     pagecolor="#ffffff"
     bordercolor="#666666"
     borderopacity="1"
     objecttolerance="10"
     gridtolerance="10"
     guidetolerance="10"
     inkscape:pageopacity="0"
     inkscape:pageshadow="2"
     inkscape:window-width="1920"
     inkscape:window-height="1020"
     id="namedview81"
     showgrid="false"
     inkscape:zoom="5.214933"
     inkscape:cx="33.97704"
     inkscape:cy="-22.585517"
     inkscape:window-x="0"
     inkscape:window-y="31"
     inkscape:window-maximized="1"
     inkscape:current-layer="Layer_1" /><g
     id="g4586"
     transform="translate(3.232924,-117.7578)"
     style="fill:#000000;stroke:#000000;stroke-width:6.46584797;stroke-miterlimit:4;stroke-dasharray:none;stroke-opacity:1"><g
       id="g6"
       style="fill:#000000;stroke:#000000;stroke-width:6.46584797;stroke-miterlimit:4;stroke-dasharray:none;stroke-opacity:1"><g
         id="g4"
         style="fill:#000000;stroke:#000000;stroke-width:6.46584797;stroke-miterlimit:4;stroke-dasharray:none;stroke-opacity:1"><path
           id="path2"
           d="m 104.912,375.269 c -15.248,0 -27.653,12.405 -27.653,27.653 0,15.25 12.405,27.654 27.653,27.654 15.248,0 27.654,-12.406 27.654,-27.654 0,-15.248 -12.405,-27.653 -27.654,-27.653 z m 0,40.1 c -6.863,0 -12.445,-5.583 -12.445,-12.446 0,-6.863 5.582,-12.445 12.445,-12.445 6.863,0 12.446,5.582 12.446,12.445 10e-4,6.863 -5.583,12.446 -12.446,12.446 z"
           inkscape:connector-curvature="0"
           style="fill:#000000;stroke:#000000;stroke-width:6.46584797;stroke-miterlimit:4;stroke-dasharray:none;stroke-opacity:1" /></g></g><g
       id="g12"
       style="fill:#000000;stroke:#000000;stroke-width:6.46584797;stroke-miterlimit:4;stroke-dasharray:none;stroke-opacity:1"><g
         id="g10"
         style="fill:#000000;stroke:#000000;stroke-width:6.46584797;stroke-miterlimit:4;stroke-dasharray:none;stroke-opacity:1"><path
           id="path8"
           d="m 404.138,375.27 c -15.248,0 -27.654,12.405 -27.654,27.653 0,15.248 12.406,27.654 27.654,27.654 15.247,0 27.652,-12.406 27.652,-27.654 0,-15.248 -12.404,-27.653 -27.652,-27.653 z m 0,40.098 c -6.863,0 -12.446,-5.583 -12.446,-12.446 0,-6.863 5.583,-12.445 12.446,-12.445 6.862,0 12.444,5.582 12.444,12.445 0,6.864 -5.582,12.446 -12.444,12.446 z"
           inkscape:connector-curvature="0"
           style="fill:#000000;stroke:#000000;stroke-width:6.46584797;stroke-miterlimit:4;stroke-dasharray:none;stroke-opacity:1" /></g></g><g
       id="g18"
       style="fill:#000000;stroke:#000000;stroke-width:6.46584797;stroke-miterlimit:4;stroke-dasharray:none;stroke-opacity:1"><g
         id="g16"
         style="fill:#000000;stroke:#000000;stroke-width:6.46584797;stroke-miterlimit:4;stroke-dasharray:none;stroke-opacity:1"><path
           id="path14"
           d="m 476.244,311.675 c -4.135,-0.738 -8.085,2.015 -8.823,6.149 l -4.448,24.914 c -0.738,4.135 2.015,8.085 6.149,8.823 0.452,0.08 0.901,0.12 1.345,0.12 3.613,0 6.819,-2.587 7.477,-6.269 l 4.448,-24.914 c 0.739,-4.135 -2.013,-8.085 -6.148,-8.823 z"
           inkscape:connector-curvature="0"
           style="fill:#000000;stroke:#000000;stroke-width:6.46584797;stroke-miterlimit:4;stroke-dasharray:none;stroke-opacity:1" /></g></g><g
       id="g24"
       style="fill:#000000;stroke:#000000;stroke-width:6.46584797;stroke-miterlimit:4;stroke-dasharray:none;stroke-opacity:1"><g
         id="g22"
         style="fill:#000000;stroke:#000000;stroke-width:6.46584797;stroke-miterlimit:4;stroke-dasharray:none;stroke-opacity:1"><path
           id="path20"
           d="m 504.396,371.062 h -5.62 l 8.222,-46.081 c 2.197,-12.29 -0.933,-24.996 -8.587,-34.86 -7.658,-9.866 -19.192,-16.052 -31.647,-16.975 L 387.828,267.301 376.971,234.76 C 363.707,194.954 326.601,168.208 284.64,168.208 H 148.835 c -20.243,0 -40.025,7.055 -55.704,19.867 -3.252,2.657 -3.734,7.448 -1.077,10.699 2.657,3.251 7.448,3.735 10.699,1.077 11.023,-9.006 24.498,-14.558 38.572,-16.028 v 83.082 h -71.67 c 1.098,-2.296 1.999,-4.685 2.673,-7.134 l 6.299,-22.854 c 1.682,-6.113 4.148,-11.975 7.329,-17.422 2.118,-3.627 0.895,-8.283 -2.73,-10.401 -3.626,-2.118 -8.284,-0.895 -10.401,2.73 -3.848,6.588 -6.828,13.672 -8.859,21.055 l -6.299,22.855 c -1.121,4.077 -3.193,7.907 -5.978,11.06 -0.69,0.778 -1.351,1.449 -2.071,2.098 -2.44,2.238 -5.193,3.996 -8.195,5.232 -16.185,6.7 -26.643,22.349 -26.643,39.868 v 57.067 H 7.604 c -4.199,0 -7.604,3.405 -7.604,7.604 0,4.199 3.405,7.604 7.604,7.604 h 7.174 v 19.827 c 0,4.199 3.405,7.604 7.604,7.604 h 27.096 c 5.064,26.132 28.156,45.703 55.438,45.703 27.276,0 50.363,-19.57 55.426,-45.703 h 127.669 c 4.199,0 7.604,-3.405 7.604,-7.604 0,-4.199 -3.405,-7.604 -7.604,-7.604 H 161.199 c -2.267,-29.076 -26.635,-52.047 -56.283,-52.047 -19.332,0 -36.421,9.766 -46.608,24.616 H 29.986 v -57.067 c 0,-11.344 6.772,-21.478 17.239,-25.811 3.71,-1.528 7.169,-3.576 10.305,-6.069 h 324.406 l 83.704,6.198 c 8.169,0.604 15.734,4.663 20.756,11.132 5.094,6.563 7.094,14.681 5.631,22.862 l -8.7,48.755 h -32.19 c -0.13,0 -0.255,0.013 -0.384,0.019 -10.183,-14.862 -27.275,-24.635 -46.612,-24.635 -29.654,0 -54.027,22.97 -56.295,52.047 h -29.544 c -4.199,0 -7.604,3.405 -7.604,7.604 0,4.199 3.405,7.604 7.604,7.604 h 30.401 c 5.064,26.132 28.156,45.703 55.438,45.703 27.276,0 50.363,-19.57 55.426,-45.703 H 484.8 c 3.684,0 6.839,-2.641 7.485,-6.269 l 3.776,-21.162 h 8.334 c 4.199,0 7.604,-3.405 7.604,-7.604 0,-4.199 -3.404,-7.601 -7.603,-7.601 z m -399.481,-9.408 c 22.753,0 41.265,18.511 41.265,41.265 0,0.899 -0.029,1.802 -0.086,2.682 l -0.001,0.01 c -1.386,21.636 -19.473,38.585 -41.177,38.585 -21.711,0 -39.802,-16.949 -41.189,-38.592 -0.058,-0.888 -0.087,-1.792 -0.087,-2.685 0,-22.754 18.516,-41.265 41.275,-41.265 z M 50.939,386.27 c -1.21,3.909 -1.989,8.004 -2.318,12.223 H 29.986 V 386.27 Z M 245.62,266.907 h -89.085 v -83.49 0 h 89.085 z m 15.208,0 v -83.49 h 23.811 c 35.405,0 66.712,22.566 77.904,56.154 l 9.121,27.336 z m 184.491,138.697 v 0.007 c -1.386,21.636 -19.473,38.585 -41.177,38.585 -21.711,0 -39.802,-16.949 -41.189,-38.595 -0.058,-0.88 -0.086,-1.781 -0.086,-2.682 0,-22.753 18.516,-41.265 41.276,-41.265 22.753,0 41.265,18.511 41.265,41.265 -0.001,0.893 -0.031,1.797 -0.089,2.685 z m 33.114,-7.111 h -18.008 c -0.328,-4.219 -1.109,-8.313 -2.318,-12.223 h 22.507 z"
           inkscape:connector-curvature="0"
           style="fill:#000000;stroke:#000000;stroke-width:6.46584797;stroke-miterlimit:4;stroke-dasharray:none;stroke-opacity:1" /></g></g><g
       id="g30"
       style="fill:#000000;stroke:#000000;stroke-width:6.46584797;stroke-miterlimit:4;stroke-dasharray:none;stroke-opacity:1"><g
         id="g28"
         style="fill:#000000;stroke:#000000;stroke-width:6.46584797;stroke-miterlimit:4;stroke-dasharray:none;stroke-opacity:1"><path
           id="path26"
           d="m 343.327,52.598 c -4.199,0 -7.604,3.405 -7.604,7.604 0,4.199 3.405,7.604 7.604,7.604 69.984,0 126.92,56.936 126.92,126.921 0,4.199 3.405,7.604 7.604,7.604 4.199,0 7.604,-3.405 7.604,-7.604 0,-78.37 -63.759,-142.129 -142.128,-142.129 z"
           inkscape:connector-curvature="0"
           style="fill:#000000;stroke:#000000;stroke-width:6.46584797;stroke-miterlimit:4;stroke-dasharray:none;stroke-opacity:1" /></g></g><g
       id="g36"
       style="fill:#000000;stroke:#000000;stroke-width:6.46584797;stroke-miterlimit:4;stroke-dasharray:none;stroke-opacity:1"><g
         id="g34"
         style="fill:#000000;stroke:#000000;stroke-width:6.46584797;stroke-miterlimit:4;stroke-dasharray:none;stroke-opacity:1"><path
           id="path32"
           d="m 433.18,156.789 c -1.637,-3.867 -6.1,-5.674 -9.967,-4.035 -3.867,1.638 -5.674,6.101 -4.035,9.968 4.297,10.142 6.476,20.91 6.476,32.005 0,4.199 3.405,7.604 7.604,7.604 4.199,0 7.604,-3.405 7.604,-7.604 -0.001,-13.145 -2.585,-25.908 -7.682,-37.938 z"
           inkscape:connector-curvature="0"
           style="fill:#000000;stroke:#000000;stroke-width:6.46584797;stroke-miterlimit:4;stroke-dasharray:none;stroke-opacity:1" /></g></g><g
       id="g42"
       style="fill:#000000;stroke:#000000;stroke-width:6.46584797;stroke-miterlimit:4;stroke-dasharray:none;stroke-opacity:1"><g
         id="g40"
         style="fill:#000000;stroke:#000000;stroke-width:6.46584797;stroke-miterlimit:4;stroke-dasharray:none;stroke-opacity:1"><path
           id="path38"
           d="m 415.732,129.439 c -18.496,-20.493 -44.886,-32.248 -72.406,-32.248 -4.199,0 -7.604,3.405 -7.604,7.604 0,4.199 3.406,7.605 7.605,7.605 23.223,0 45.498,9.925 61.116,27.228 1.502,1.664 3.57,2.509 5.647,2.509 1.816,0 3.638,-0.647 5.092,-1.959 3.117,-2.812 3.363,-7.621 0.55,-10.739 z"
           inkscape:connector-curvature="0"
           style="fill:#000000;stroke:#000000;stroke-width:6.46584797;stroke-miterlimit:4;stroke-dasharray:none;stroke-opacity:1" /></g></g><g
       id="g48"
       style="fill:#000000;stroke:#000000;stroke-width:6.46584797;stroke-miterlimit:4;stroke-dasharray:none;stroke-opacity:1"><g
         id="g46"
         style="fill:#000000;stroke:#000000;stroke-width:6.46584797;stroke-miterlimit:4;stroke-dasharray:none;stroke-opacity:1"><path
           id="path44"
           d="m 343.327,141.786 c -4.199,0 -7.604,3.405 -7.604,7.604 0,4.199 3.405,7.604 7.604,7.604 20.805,0 37.733,16.927 37.733,37.733 0,4.199 3.405,7.604 7.604,7.604 4.199,0 7.604,-3.405 7.604,-7.604 0,-29.191 -23.749,-52.941 -52.941,-52.941 z"
           inkscape:connector-curvature="0"
           style="fill:#000000;stroke:#000000;stroke-width:6.46584797;stroke-miterlimit:4;stroke-dasharray:none;stroke-opacity:1" /></g></g></g><g
     id="g50"
     transform="translate(3.232924,-117.7578)" /><g
     id="g52"
     transform="translate(3.232924,-117.7578)" /><g
     id="g54"
     transform="translate(3.232924,-117.7578)" /><g
     id="g56"
     transform="translate(3.232924,-117.7578)" /><g
     id="g58"
     transform="translate(3.232924,-117.7578)" /><g
     id="g60"
     transform="translate(3.232924,-117.7578)" /><g
     id="g62"
     transform="translate(3.232924,-117.7578)" /><g
     id="g64"
     transform="translate(3.232924,-117.7578)" /><g
     id="g66"
     transform="translate(3.232924,-117.7578)" /><g
     id="g68"
     transform="translate(3.232924,-117.7578)" /><g
     id="g70"
     transform="translate(3.232924,-117.7578)" /><g
     id="g72"
     transform="translate(3.232924,-117.7578)" /><g
     id="g74"
     transform="translate(3.232924,-117.7578)" /><g
     id="g76"
     transform="translate(3.232924,-117.7578)" /><g
     id="g78"
     transform="translate(3.232924,-117.7578)" /></svg>