<?xml version="1.0" encoding="UTF-8" standalone="no"?>
<!-- Created with Inkscape (http://www.inkscape.org/) -->

<svg
   xmlns:ns2="http://ns.adobe.com/AdobeIllustrator/10.0/"
   xmlns:dc="http://purl.org/dc/elements/1.1/"
   xmlns:cc="http://creativecommons.org/ns#"
   xmlns:rdf="http://www.w3.org/1999/02/22-rdf-syntax-ns#"
   xmlns:svg="http://www.w3.org/2000/svg"
   xmlns="http://www.w3.org/2000/svg"
   xmlns:sodipodi="http://sodipodi.sourceforge.net/DTD/sodipodi-0.dtd"
   xmlns:inkscape="http://www.inkscape.org/namespaces/inkscape"
   width="7.4376283mm"
   height="7.8965173mm"
   viewBox="0 0 90.000003 95.552852"
   id="svg7148"
   version="1.1"
   inkscape:version="0.92.1 r"
   sodipodi:docname="obstacle.svg"
   inkscape:export-filename="/home/brunofernandes/it-git-repos/it2s-android/icsi_demonstrator/app/src/main/res/drawable-xxxhdpi/road_works.png"
   inkscape:export-xdpi="639.52814"
   inkscape:export-ydpi="639.52814">
  <defs
     id="defs7150">
    <clipPath
       clipPathUnits="userSpaceOnUse"
       id="clipPath4656">
      <rect
         style="fill:#ffffff;stroke-width:0.58628535"
         id="rect4658"
         width="19.144819"
         height="20.23105"
         x="630.8186"
         y="-1130.8098"
         transform="scale(1,-1)" />
    </clipPath>
    <clipPath
       clipPathUnits="userSpaceOnUse"
       id="clipPath4656-7">
      <rect
         style="fill:#ffffff;stroke-width:0.58628535"
         id="rect4658-5"
         width="19.144819"
         height="20.23105"
         x="630.8186"
         y="-1130.8098"
         transform="scale(1,-1)" />
    </clipPath>
  </defs>
  <sodipodi:namedview
     id="base"
     pagecolor="#ffffff"
     bordercolor="#666666"
     borderopacity="1.0"
     inkscape:pageopacity="0.0"
     inkscape:pageshadow="2"
     inkscape:zoom="4"
     inkscape:cx="317.76784"
     inkscape:cy="44.461521"
     inkscape:document-units="px"
     inkscape:current-layer="layer1"
     showgrid="false"
     fit-margin-top="0"
     fit-margin-left="0"
     fit-margin-right="0"
     fit-margin-bottom="0"
     inkscape:window-width="1680"
     inkscape:window-height="1021"
     inkscape:window-x="0"
     inkscape:window-y="0"
     inkscape:window-maximized="1" />
  <metadata
     id="metadata7153">
    <rdf:RDF>
      <cc:Work
         rdf:about="">
        <dc:format>image/svg+xml</dc:format>
        <dc:type
           rdf:resource="http://purl.org/dc/dcmitype/StillImage" />
        <dc:title />
      </cc:Work>
    </rdf:RDF>
  </metadata>
  <g
     inkscape:label="Layer 1"
     inkscape:groupmode="layer"
     id="layer1"
     transform="translate(-83.663909,-265.28966)">
    <g
       id="g4624">
      <g
         id="g4837"
         transform="translate(-206.09879,-8.7597511)">
        <g
           inkscape:export-ydpi="159.61241"
           inkscape:export-xdpi="159.61241"
           inkscape:export-filename="/home/brunofernandes/it-git-repos/it2s-android/icsi_demonstrator/app/src/main/res/drawable-mdpi/road_works.png"
           transform="matrix(1.220574,0,0,1.220574,-483.12695,-763.8268)"
           id="g5393-7-9">
          <g
             transform="translate(165.6091,-62.283309)"
             id="g5273-1-2-2">
            <g
               id="g5270-0-7-2">
              <polyline
                 style="fill:#ffffff;fill-opacity:1"
                 ns2:knockout="Off"
                 points="21.883,173.875 108.918,23.168 195.953,173.875 21.883,173.875 "
                 id="polyline9-2-9-2-5-4-0-8-4-4-8"
                 transform="matrix(0.37277978,0,0,0.36896641,466.11509,912.16153)" />
            </g>
            <g
               transform="translate(-135.84607,-204.52511)"
               id="g5240-3-1-9">
              <g
                 id="g5571-8-9-9-7-7"
                 transform="translate(131.16071,130.98214)">
                <g
                   id="g5664-1-5-9-36"
                   transform="translate(3.2142857)">
                  <g
                     id="g4971-4-2-6-1-2-1"
                     transform="translate(-95.27653,60.700804)">
                    <g
                       transform="translate(7.4612941,173.13848)"
                       id="g8312-0-7-7-2-3-2-2">
                      <g
                         transform="translate(-21.740359,-189.63467)"
                         id="g7499-3-7-5-9-0-8-4-9">
                        <g
                           id="g7646-4-6-1-1-0-3-3">
                          <g
                             transform="translate(-79.770404,-0.92315349)"
                             id="g5864-5-2-7-5-1-9-4-6-19">
                            <path
                               inkscape:connector-curvature="0"
                               id="path248-3-3-5-1-5-8-0-6-5-4"
                               style="fill:#ed1e24;fill-opacity:1;fill-rule:nonzero;stroke:none"
                               d="m 693.33756,957.87671 c 1.06374,-1.95625 2.8075,-1.95625 3.87375,0 l 23.59,43.31999 c 1.065,1.9562 0.11375,3.5562 -2.11376,3.5562 h -46.8275 c -2.22624,0 -3.1775,-1.6 -2.11249,-3.5562 z m 3.87375,-13.5475 c -1.06625,-1.955 -2.81001,-1.955 -3.87375,0 l -34.49375,63.34879 c -1.06625,1.9549 -0.11625,3.5562 2.11125,3.5562 h 68.63874 c 2.22626,0 3.17625,-1.6013 2.11126,-3.5562 l -34.49375,-63.34879" />
                            <path
                               inkscape:connector-curvature="0"
                               id="path250-9-0-7-6-9-0-4-2-7-78"
                               style="fill:none;fill-opacity:1;fill-rule:nonzero;stroke:none"
                               d="m 695.27381,954.32046 -27.4625,50.43244 h 54.92625 l -27.46375,-50.43244" />
                          </g>
                        </g>
                      </g>
                    </g>
                  </g>
                </g>
              </g>
            </g>
          </g>
        </g>
        <g
           id="g5240-3-1-7-4"
           transform="matrix(1.220574,0,0,-1.220574,-446.88192,1733.1379)"
           clip-path="url(#clipPath4656-7)">
          <g
             transform="translate(131.16071,130.98214)"
             id="g5571-8-9-9-7-5-5">
            <g
               transform="translate(3.2142857)"
               id="g5664-1-5-9-3-0">
              <g
                 transform="translate(-95.27653,60.700804)"
                 id="g4971-4-2-6-1-2-5-3">
                <g
                   id="g8312-0-7-7-2-3-2-6-6"
                   transform="translate(7.4612941,173.13848)">
                  <g
                     id="g7499-3-7-5-9-0-8-4-2-1"
                     transform="translate(-21.740359,-189.63467)">
                    <g
                       id="g7646-4-6-1-1-0-3-9-0">
                      <g
                         id="g5864-5-2-7-5-1-9-4-6-1-6"
                         transform="translate(-79.770404,-0.92315349)">
                        <path
                           d="m 693.33756,957.87671 c 1.06374,-1.95625 2.8075,-1.95625 3.87375,0 l 23.59,43.31999 c 1.065,1.9562 0.11375,3.5562 -2.11376,3.5562 h -46.8275 c -2.22624,0 -3.1775,-1.6 -2.11249,-3.5562 z m 3.87375,-13.5475 c -1.06625,-1.955 -2.81001,-1.955 -3.87375,0 l -34.49375,63.34879 c -1.06625,1.9549 -0.11625,3.5562 2.11125,3.5562 h 68.63874 c 2.22626,0 3.17625,-1.6013 2.11126,-3.5562 l -34.49375,-63.34879"
                           style="fill:#ed1e24;fill-opacity:1;fill-rule:nonzero;stroke:none"
                           id="path248-3-3-5-1-5-8-0-6-5-2-3"
                           inkscape:connector-curvature="0" />
                        <path
                           d="m 695.27381,954.32046 -27.4625,50.43244 h 54.92625 l -27.46375,-50.43244"
                           style="fill:none;fill-opacity:1;fill-rule:nonzero;stroke:none"
                           id="path250-9-0-7-6-9-0-4-2-7-7-2"
                           inkscape:connector-curvature="0" />
                      </g>
                    </g>
                  </g>
                </g>
              </g>
            </g>
          </g>
        </g>
      </g>
      <g
         id="g38"
         transform="matrix(2.1735484,0,0,2.1735484,106.96006,298.03693)">
        <path
           d="m 17.499,14.789 c 0.021,0.339 0.038,0.588 0.034,0.913 -0.002,0.423 -0.094,0.547 -0.279,0.664 -1.083,0.691 -3.105,1.932 -4.293,2.614 C 12.4,19.302 10.557,20.182 7.791,19.3 5.027,18.419 3.988,18.032 3.023,17.656 2.656,17.514 2.399,17.336 2.442,16.56 c 0.026,-0.483 0.021,-0.932 0.17,-1.025 0.437,-0.276 0.82,0.315 1.312,0.479 0.595,0.198 5.71,1.924 6.794,1.563 1.081,-0.36 6.781,-2.788 6.781,-2.788 z"
           id="path2"
           inkscape:connector-curvature="0"
           style="fill:#000000" />
        <path
           d="m 14.726,13.69 c 0.891,0.285 2.946,0.618 2.764,1.203 -1.073,0.764 -2.276,1.457 -3.513,2.205 -0.744,0.454 -2.217,1.16 -4.061,1.2 -1.843,0.04 -5.531,-1.443 -6.251,-1.684 -0.722,-0.24 -1.882,-0.996 -0.36,-1.561 1.116,-0.418 1.748,-0.658 2.243,-0.868 0.709,-0.3 9.178,-0.495 9.178,-0.495 z"
           id="path4"
           inkscape:connector-curvature="0"
           style="fill:#ffffff" />
        <path
           d="m 8.922,0 h 1.503 c 0.153,1 4.179,13.078 4.66,14.561 0.12,0.719 -1.964,2.204 -4.649,2.27 C 8.833,16.872 6.068,16.552 5.186,15.309 5.507,13.664 8.922,0 8.922,0 Z"
           id="path6"
           inkscape:connector-curvature="0"
           style="fill:#000000" />
        <path
           d="m 6.547,9.484 c 0.618,0.685 5.559,0.726 6.887,-0.01 0.26,0.802 0.703,2.14 0.983,3.06 -1.513,1.042 -7.923,0.861 -8.573,-0.065 0.361,-1.644 0.703,-2.985 0.703,-2.985 z"
           id="path8"
           inkscape:connector-curvature="0"
           style="fill:#ffffff" />
        <path
           d="m 8.094,3.266 c 0.733,0.176 2.49,0.202 3.313,0.031 0.222,0.684 0.723,2.164 1.047,3.234 C 11.24,6.845 8.793,6.824 7.298,6.484 7.704,4.828 8.094,3.266 8.094,3.266 Z"
           id="path10"
           inkscape:connector-curvature="0"
           style="fill:#ffffff" />
      </g>
    </g>
  </g>
</svg>
