<?xml version="1.0" encoding="UTF-8" standalone="no"?>
<!-- Generator: Adobe Illustrator 19.0.0, SVG Export Plug-In . SVG Version: 6.00 Build 0)  -->

<svg
   xmlns:dc="http://purl.org/dc/elements/1.1/"
   xmlns:cc="http://creativecommons.org/ns#"
   xmlns:rdf="http://www.w3.org/1999/02/22-rdf-syntax-ns#"
   xmlns:svg="http://www.w3.org/2000/svg"
   xmlns="http://www.w3.org/2000/svg"
   xmlns:sodipodi="http://sodipodi.sourceforge.net/DTD/sodipodi-0.dtd"
   xmlns:inkscape="http://www.inkscape.org/namespaces/inkscape"
   version="1.1"
   id="Layer_1"
   x="0px"
   y="0px"
   viewBox="0 0 512 580.79975"
   xml:space="preserve"
   sodipodi:docname="parking.svg"
   width="15mm"
   height="12mm"
   inkscape:version="0.92.1 r"><metadata
     id="metadata49"><rdf:RDF><cc:Work
         rdf:about=""><dc:format>image/svg+xml</dc:format><dc:type
           rdf:resource="http://purl.org/dc/dcmitype/StillImage" /><dc:title></dc:title></cc:Work></rdf:RDF></metadata><defs
     id="defs47" /><sodipodi:namedview
     pagecolor="#ffffff"
     bordercolor="#666666"
     borderopacity="1"
     objecttolerance="10"
     gridtolerance="10"
     guidetolerance="10"
     inkscape:pageopacity="0"
     inkscape:pageshadow="2"
     inkscape:window-width="1920"
     inkscape:window-height="1020"
     id="namedview45"
     showgrid="false"
     fit-margin-top="0"
     fit-margin-left="0"
     fit-margin-right="0"
     fit-margin-bottom="0"
     inkscape:zoom="0.65186406"
     inkscape:cx="220.41119"
     inkscape:cy="357.54287"
     inkscape:window-x="0"
     inkscape:window-y="31"
     inkscape:window-maximized="1"
     inkscape:current-layer="g12" /><g
     id="g12"
     transform="translate(0,68.799719)"><g
       id="g4652"><g
         id="g6"><g
           id="g4"><path
             inkscape:connector-curvature="0"
             id="path2"
             d="M 105,90 H 90 v 30 h 15 c 8.276,0 15,-6.724 15,-15 0,-8.276 -6.724,-15 -15,-15 z" /></g></g><g
         id="g4618"><g
           id="g4614"><path
             d="m 512,407 v -60 c 0,-20.87 -14.348,-38.306 -33.651,-43.372 L 458.065,242.762 C 451.927,224.363 434.773,212 415.379,212 H 280.423 c -20.684,0 -38.643,14.019 -43.213,32.622 l -21.297,58.925 C 196.474,308.52 182,326.033 182,347 v 60 c 0,19.53 12.578,36.024 30,42.237 V 482 H 150 V 377 c 0,-8.291 -6.709,-15 -15,-15 H 120 V 240 h 15 c 44.019,0 75,-30.981 75,-75 V 75 C 210,33.647 176.353,0 135,0 H 75 C 33.647,0 0,33.647 0,75 v 90 c 0,41.353 33.647,75 75,75 H 90 V 362 H 75 c -8.291,0 -15,6.709 -15,15 V 482 H 15 c -8.291,0 -15,6.709 -15,15 0,8.291 6.709,15 15,15 159.851,0 321.775,0 482,0 8.291,0 15,-6.709 15,-15 0,-8.291 -6.709,-15 -15,-15 H 482 V 449.237 C 499.422,443.024 512,426.53 512,407 Z M 90,150 v 15 c 0,8.291 -6.709,15 -15,15 -8.291,0 -15,-6.709 -15,-15 0,-11.968 0,-16.732 0,-18.56 0,-0.742 0,-1.154 0,-1.126 0,-3.516 0,-18.094 0,-70.314 0,-8.291 6.709,-15 15,-15 h 30 c 24.814,0 45,20.186 45,45 0,24.814 -20.186,45 -45,45 z m 182,197 c 0,8.276 -6.724,15 -15,15 h -45 v -15 c 0,-8.276 6.724,-15 15,-15 h 45 z m 120,135 h -90 v -30 h 90 z M 317,377 c 0,-8.291 6.709,-15 15,-15 h 30 c 8.291,0 15,6.709 15,15 0,8.291 -6.709,15 -15,15 h -30 c -8.291,0 -15,-6.709 -15,-15 z m 85.606,-100.606 c -5.859,-5.859 -15.352,-5.859 -21.211,0 L 355.789,302 h -32.578 l 4.395,-4.395 c 5.859,-5.859 5.859,-15.352 0,-21.211 -5.859,-5.859 -15.352,-5.859 -21.211,0 L 280.789,302 h -32.446 l 17.519,-48.633 C 267.547,246.673 273.523,242 280.423,242 h 134.956 c 6.46,0 12.188,4.116 14.238,10.254 L 446.185,302 h -47.974 l 4.395,-4.395 c 5.859,-5.859 5.859,-15.352 0,-21.211 z M 437,362 c -8.276,0 -15,-6.724 -15,-15 v -15 h 45 c 8.276,0 15,6.724 15,15 v 15 z"
             id="path8"
             inkscape:connector-curvature="0" /></g></g><g
         transform="matrix(0.42426407,0.42426407,-0.42426407,0.42426407,192.53257,-112.85233)"
         id="g4609"><g
           id="g4548"><path
             inkscape:connector-curvature="0"
             d="M 294.779,101.49 C 255.723,62.434 203.796,40.925 148.561,40.925 93.328,40.925 41.4,62.435 2.343,101.49 c -3.124,3.125 -3.124,8.189 0,11.314 3.125,3.123 8.19,3.123 11.315,0 36.033,-36.035 83.943,-55.88 134.903,-55.88 50.961,0 98.87,19.845 134.903,55.88 1.563,1.562 3.609,2.343 5.657,2.343 2.047,0 4.095,-0.781 5.657,-2.343 3.125,-3.124 3.125,-8.189 10e-4,-11.314 z"
             id="path4536" /><path
             inkscape:connector-curvature="0"
             d="m 148.561,120.146 c -34.073,0 -66.106,13.269 -90.199,37.364 -3.124,3.124 -3.124,8.189 10e-4,11.313 3.123,3.123 8.188,3.124 11.313,-0.001 21.07,-21.072 49.086,-32.677 78.885,-32.677 29.799,0 57.813,11.604 78.884,32.677 1.563,1.563 3.609,2.344 5.657,2.344 2.047,0 4.095,-0.781 5.656,-2.343 3.125,-3.124 3.125,-8.189 10e-4,-11.313 -24.093,-24.094 -56.126,-37.364 -90.198,-37.364 z"
             id="path4538" /><path
             inkscape:connector-curvature="0"
             d="m 148.561,80.075 c -44.776,0 -86.873,17.438 -118.534,49.101 -3.124,3.124 -3.124,8.189 10e-4,11.313 1.562,1.562 3.608,2.343 5.656,2.343 2.047,0 4.095,-0.781 5.657,-2.344 28.639,-28.641 66.717,-44.413 107.22,-44.413 40.503,0 78.581,15.772 107.219,44.413 3.125,3.125 8.19,3.126 11.313,0.001 3.125,-3.124 3.125,-8.189 10e-4,-11.313 C 235.434,97.512 193.338,80.075 148.561,80.075 Z"
             id="path4540" /><path
             inkscape:connector-curvature="0"
             d="m 148.561,159.348 c -23.603,0 -45.791,9.192 -62.479,25.883 -3.124,3.124 -3.124,8.189 0.001,11.313 1.562,1.562 3.609,2.343 5.656,2.343 2.048,0 4.096,-0.781 5.657,-2.344 13.665,-13.668 31.836,-21.195 51.164,-21.195 19.328,0 37.499,7.527 51.166,21.195 3.125,3.124 8.19,3.125 11.313,0.001 3.125,-3.124 3.125,-8.189 0.001,-11.313 -16.687,-16.69 -38.877,-25.883 -62.479,-25.883 z"
             id="path4542" /><circle
             cx="148.561"
             cy="247.709"
             r="8.4899998"
             id="circle4544" /><path
             inkscape:connector-curvature="0"
             d="m 113.743,212.889 c -3.125,3.124 -3.125,8.189 -10e-4,11.314 3.125,3.125 8.19,3.125 11.313,0.001 12.961,-12.959 34.051,-12.959 47.012,0 1.563,1.563 3.608,2.343 5.656,2.343 2.048,0 4.096,-0.781 5.657,-2.344 3.124,-3.124 3.124,-8.189 -0.001,-11.314 -19.198,-19.195 -50.436,-19.195 -69.636,0 z"
             id="path4546" /></g><g
           id="g4550" /><g
           id="g4552" /><g
           id="g4554" /><g
           id="g4556" /><g
           id="g4558" /><g
           id="g4560" /><g
           id="g4562" /><g
           id="g4564" /><g
           id="g4566" /><g
           id="g4568" /><g
           id="g4570" /><g
           id="g4572" /><g
           id="g4574" /><g
           id="g4576" /><g
           id="g4578" /></g></g></g><g
     id="g14"
     transform="translate(0,68.799719)" /><g
     id="g16"
     transform="translate(0,68.799719)" /><g
     id="g18"
     transform="translate(0,68.799719)" /><g
     id="g20"
     transform="translate(0,68.799719)" /><g
     id="g22"
     transform="translate(0,68.799719)" /><g
     id="g24"
     transform="translate(0,68.799719)" /><g
     id="g26"
     transform="translate(0,68.799719)" /><g
     id="g28"
     transform="translate(0,68.799719)" /><g
     id="g30"
     transform="translate(0,68.799719)" /><g
     id="g32"
     transform="translate(0,68.799719)" /><g
     id="g34"
     transform="translate(0,68.799719)" /><g
     id="g36"
     transform="translate(0,68.799719)" /><g
     id="g38"
     transform="translate(0,68.799719)" /><g
     id="g40"
     transform="translate(0,68.799719)" /><g
     id="g42"
     transform="translate(0,68.799719)" /></svg>