<?xml version="1.0" encoding="UTF-8" standalone="no"?>
<!-- Created with Inkscape (http://www.inkscape.org/) -->

<svg
   xmlns:dc="http://purl.org/dc/elements/1.1/"
   xmlns:cc="http://creativecommons.org/ns#"
   xmlns:rdf="http://www.w3.org/1999/02/22-rdf-syntax-ns#"
   xmlns:svg="http://www.w3.org/2000/svg"
   xmlns="http://www.w3.org/2000/svg"
   xmlns:sodipodi="http://sodipodi.sourceforge.net/DTD/sodipodi-0.dtd"
   xmlns:inkscape="http://www.inkscape.org/namespaces/inkscape"
   width="663.17065mm"
   height="200.52705mm"
   viewBox="0 0 663.17065 200.52705"
   version="1.1"
   id="svg5026"
   inkscape:version="0.92.1 r15371"
   sodipodi:docname="pasmo_logo_2.svg">
  <defs
     id="defs5020" />
  <sodipodi:namedview
     id="base"
     pagecolor="#ffffff"
     bordercolor="#666666"
     borderopacity="1.0"
     inkscape:pageopacity="0.0"
     inkscape:pageshadow="2"
     inkscape:zoom="0.35"
     inkscape:cx="1164.6645"
     inkscape:cy="178.94876"
     inkscape:document-units="mm"
     inkscape:current-layer="layer1"
     showgrid="false"
     fit-margin-top="0"
     fit-margin-left="0"
     fit-margin-right="0"
     fit-margin-bottom="0"
     inkscape:window-width="2560"
     inkscape:window-height="1361"
     inkscape:window-x="-9"
     inkscape:window-y="-9"
     inkscape:window-maximized="1" />
  <metadata
     id="metadata5023">
    <rdf:RDF>
      <cc:Work
         rdf:about="">
        <dc:format>image/svg+xml</dc:format>
        <dc:type
           rdf:resource="http://purl.org/dc/dcmitype/StillImage" />
        <dc:title></dc:title>
      </cc:Work>
    </rdf:RDF>
  </metadata>
  <g
     inkscape:label="Layer 1"
     inkscape:groupmode="layer"
     id="layer1"
     transform="translate(202.31747,4.3468594)">
    <g
       id="g4328"
       transform="matrix(0.35277777,0,0,-0.35277777,321.49501,108.96842)">
      <path
         d="M 0,0 V 74.275 C -40.36,73.655 -72.899,40.795 -72.899,0.289 v -112.618 c 0,-6.103 -4.948,-11.051 -11.051,-11.051 h -27.26 c -6.104,0 -11.052,4.948 -11.052,11.051 V 0.289 c 0,67.768 54.64,122.726 122.262,123.348 v 0.031 h 0.618 c 0.178,10e-4 0.35,0.027 0.528,0.027 v -0.027 h 37.166 c 6.103,0 11.051,-4.947 11.051,-11.051 V 0 c 0,-37.595 28.018,-68.646 64.313,-73.41 5.539,-0.728 9.732,-5.329 9.732,-10.915 v -27.448 c 0,-6.482 -5.571,-11.679 -12.022,-11.056 C 48.872,-116.785 0,-64.1 0,0"
         style="fill:#2d416a;fill-opacity:1;fill-rule:nonzero;stroke:none"
         id="path4330"
         inkscape:connector-curvature="0" />
    </g>
    <g
       id="g4332"
       transform="matrix(0.35277777,0,0,-0.35277777,286.994,82.849947)">
      <path
         d="m 0,0 c 2.417,3.265 5.175,6.563 7.805,9.426 0,0 17.118,-22.488 17.15,-82.95"
         style="fill:#88bdd0;fill-opacity:1;fill-rule:nonzero;stroke:none"
         id="path4334"
         inkscape:connector-curvature="0" />
    </g>
    <g
       id="g4336"
       transform="matrix(0.35277777,0,0,-0.35277777,295.8018,108.69762)">
      <path
         d="M 0,0 C 0,-0.086 0.013,-0.169 0.013,-0.255 H -0.012 C -0.012,-0.169 0,-0.086 0,0 -0.056,27.626 -9.29,53.03 -24.68,73.56"
         style="fill:#88bdd0;fill-opacity:1;fill-rule:nonzero;stroke:none"
         id="path4338"
         inkscape:connector-curvature="0" />
    </g>
    <g
       id="g4340"
       transform="matrix(0.35277777,0,0,-0.35277777,417.31794,82.601926)">
      <path
         d="m 0,0 c 40.894,0 74.044,-33.15 74.044,-74.044 0,-40.894 -33.15,-74.044 -74.044,-74.044 -40.894,0 -74.044,33.15 -74.044,74.044 C -74.044,-33.15 -40.894,0 0,0 m 0,-197.451 c 68.156,0 123.407,55.251 123.407,123.407 0,68.156 -55.251,123.407 -123.407,123.407 -68.156,0 -123.407,-55.251 -123.407,-123.407 0,-68.156 55.251,-123.407 123.407,-123.407"
         style="fill:#2d416a;fill-opacity:1;fill-rule:nonzero;stroke:none"
         id="path4342"
         inkscape:connector-curvature="0" />
    </g>
    <g
       id="g4344"
       transform="matrix(0.35277777,0,0,-0.35277777,26.228571,82.43)">
      <path
         d="m 0,0 c 40.893,0 74.044,-33.15 74.044,-74.044 0,-40.894 -33.151,-74.044 -74.044,-74.044 -40.894,0 -74.044,33.15 -74.044,74.044 C -74.044,-33.15 -40.894,0 0,0 m 0,-197.451 c 68.156,0 123.407,55.251 123.407,123.407 0,68.156 -55.251,123.407 -123.407,123.407 -68.156,0 -123.407,-55.251 -123.407,-123.407 0,-68.156 55.251,-123.407 123.407,-123.407"
         style="fill:#2d416a;fill-opacity:1;fill-rule:nonzero;stroke:none"
         id="path4346"
         inkscape:connector-curvature="0" />
    </g>
    <g
       id="g4348"
       transform="matrix(0.35277777,0,0,-0.35277777,252.6559,108.96842)">
      <path
         d="M 0,0 V 74.275 C 40.36,73.655 72.899,40.795 72.899,0.289 v -112.618 c 0,-6.103 4.948,-11.051 11.051,-11.051 h 27.26 c 6.104,0 11.052,4.948 11.052,11.051 V 0.289 C 122.262,68.057 67.622,123.015 0,123.637 v 0.031 h -0.618 c -0.178,10e-4 -0.35,0.027 -0.528,0.027 v -0.027 h -37.166 c -6.103,0 -11.051,-4.947 -11.051,-11.051 V 0 c 0,-37.595 -28.018,-68.646 -64.313,-73.41 -5.539,-0.728 -9.732,-5.329 -9.732,-10.915 v -27.448 c 0,-6.482 5.571,-11.679 12.022,-11.056 C -48.872,-116.785 0,-64.1 0,0"
         style="fill:#2d416a;fill-opacity:1;fill-rule:nonzero;stroke:none"
         id="path4350"
         inkscape:connector-curvature="0" />
    </g>
    <g
       id="g4352"
       transform="matrix(0.35277777,0,0,-0.35277777,148.61851,82.498554)">
      <path
         d="m 0,0 h 111.928 c 6.104,0 11.052,4.948 11.052,11.051 v 27.26 c 0,6.104 -4.948,11.051 -11.052,11.051 H -0.689 c -68.156,0 -123.563,-52.952 -123.563,-121.108 v -1.027 -22.837 -15.474 c 0,-6.104 4.948,-11.052 11.051,-11.052 H -0.583 c 37.595,0 68.646,-28.018 73.411,-64.312 0.727,-5.539 5.328,-9.732 10.915,-9.732 h 27.448 c 6.481,0 11.679,5.571 11.055,12.022 -6.043,62.514 -58.729,111.385 -122.829,111.385 h -74.316 l 0.009,1.027 C -74.51,-30.742 -41.006,0 0,0"
         style="fill:#2d416a;fill-opacity:1;fill-rule:nonzero;stroke:none"
         id="path4354"
         inkscape:connector-curvature="0" />
    </g>
    <g
       id="g4356"
       transform="matrix(0.35277777,0,0,-0.35277777,-147.96118,77.328304)">
      <path
         d="m 0,0 c -0.018,-7.631 5.669,-13.764 13.18,-15.117 34.589,-6.23 60.831,-36.485 60.831,-72.868 l 0.041,-237.869 c 10e-4,-6.103 4.949,-11.049 11.052,-11.049 h 27.26 c 6.104,0 11.053,4.949 11.052,11.053 l -0.042,237.865 C 123.374,-25.9 77.525,25.471 17.84,34.13 8.522,35.482 0.068,28.549 0.046,19.132 Z"
         style="fill:#2d416a;fill-opacity:1;fill-rule:nonzero;stroke:none"
         id="path4358"
         inkscape:connector-curvature="0" />
    </g>
    <g
       id="g4360"
       transform="matrix(0.35277777,0,0,-0.35277777,-104.42995,149.25899)">
      <path
         d="M 0,0 -0.003,16.6 C -29.929,39.119 -49.372,74.593 -49.372,114.93 -49.372,114.93 -52.57,44.477 0,0"
         style="fill:#88bdd0;fill-opacity:1;fill-rule:nonzero;stroke:none"
         id="path4362"
         inkscape:connector-curvature="0" />
    </g>
    <g
       id="g4364"
       transform="matrix(0.35277777,0,0,-0.35277777,-78.311909,134.83538)">
      <path
         d="m 0,0 c -40.894,0 -74.044,33.15 -74.044,74.044 0,40.894 33.15,74.044 74.044,74.044 40.894,0 74.044,-33.15 74.044,-74.044 C 74.044,33.15 40.894,0 0,0 m 0,197.451 c -68.156,0 -123.407,-55.251 -123.407,-123.407 0,-68.156 55.251,-123.407 123.407,-123.407 68.156,0 123.408,55.251 123.408,123.407 C 123.408,142.2 68.156,197.451 0,197.451"
         style="fill:#2d416a;fill-opacity:1;fill-rule:nonzero;stroke:none"
         id="path4366"
         inkscape:connector-curvature="0" />
    </g>
    <g
       id="g4368"
       transform="matrix(0.35277777,0,0,-0.35277777,61.145651,134.56583)">
      <path
         d="m 0,0 c -2.376,-3.171 -4.9,-6.257 -7.565,-9.181 0,0 -17.119,22.488 -17.151,82.95"
         style="fill:#88bdd0;fill-opacity:1;fill-rule:nonzero;stroke:none"
         id="path4370"
         inkscape:connector-curvature="0" />
    </g>
    <g
       id="g4372"
       transform="matrix(0.35277777,0,0,-0.35277777,52.389561,108.66423)">
      <path
         d="M 0,0 C 0,0.086 -0.013,0.169 -0.013,0.255 H 0.012 C 0.012,0.169 0,0.086 0,0 0.056,-27.627 9.291,-53.03 24.681,-73.56"
         style="fill:#88bdd0;fill-opacity:1;fill-rule:nonzero;stroke:none"
         id="path4374"
         inkscape:connector-curvature="0" />
    </g>
    <path
       d="m 56.281531,64.933051 c -2.15336,0 -3.8989,1.745544 -3.8989,3.898548 v 39.728771 c 0,22.61341 17.24095,41.19951 39.2945,43.33134 2.27613,0.22014 4.24109,-1.6136 4.24109,-3.89996 v -9.68304 c 0,-1.97097 -1.47918,-3.5941 -3.43324,-3.85057 -12.80371,-1.68099 -22.68783,-12.63509 -22.68783,-25.89777 V 68.831599 c 0,-2.153004 -1.74554,-3.898548 -3.8989,-3.898548 z"
       style="fill:#2d416a;fill-opacity:1;fill-rule:nonzero;stroke:none;stroke-width:0.35277775"
       id="path4378"
       inkscape:connector-curvature="0" />
    <g
       id="g4380"
       transform="matrix(0.35277777,0,0,-0.35277777,147.22317,158.23762)">
      <path
         d="m 0,0 c -15.975,0 -30.763,5.066 -42.858,13.673 -5.657,4.026 -13.286,3.73 -18.196,-1.18 L -76.563,-3.016 c -5.781,-5.782 -5.467,-15.478 0.993,-20.491 20.88,-16.203 47.094,-25.855 75.57,-25.855 28.587,0 54.902,9.721 75.823,26.037 6.44,5.022 6.746,14.702 0.972,20.476 L 61.293,12.653 C 56.372,17.574 48.722,17.86 43.064,13.807 30.931,5.116 16.063,0 0,0"
         style="fill:#88bdd0;fill-opacity:1;fill-rule:nonzero;stroke:none"
         id="path4382"
         inkscape:connector-curvature="0" />
    </g>
    <g
       id="g4384"
       transform="matrix(0.35277777,0,0,-0.35277777,-147.96594,47.782151)">
      <path
         d="m 0,0 c 15.975,0 30.763,-5.066 42.857,-13.673 5.658,-4.026 13.287,-3.73 18.197,1.18 L 76.562,3.016 C 82.345,8.797 82.03,18.494 75.57,23.507 54.69,39.709 28.476,49.362 0,49.362 c -28.587,0 -54.902,-9.721 -75.824,-26.038 -6.439,-5.022 -6.745,-14.701 -0.971,-20.476 l 15.502,-15.501 c 4.921,-4.921 12.571,-5.207 18.228,-1.155 C -30.931,-5.117 -16.063,0 0,0"
         style="fill:#88bdd0;fill-opacity:1;fill-rule:nonzero;stroke:none"
         id="path4386"
         inkscape:connector-curvature="0" />
    </g>
    <g
       id="g4388"
       transform="matrix(0.35277777,0,0,-0.35277777,-101.22582,27.391851)">
      <path
         d="m 0,0 c -5.044,-5.11 -13.163,-5.521 -18.647,-0.888 -30.773,26.006 -70.506,41.731 -113.951,41.731 -44.336,0 -84.855,-16.322 -115.889,-43.279 -5.417,-4.705 -13.541,-4.386 -18.647,0.654 l -15.301,15.103 c -5.734,5.661 -5.447,15.012 0.601,20.337 39.802,35.047 92.033,56.31 149.235,56.31 56.043,0 107.292,-20.432 146.775,-54.221 6.161,-5.272 6.662,-14.638 0.965,-20.409 z"
         style="fill:#88bdd0;fill-opacity:1;fill-rule:nonzero;stroke:none"
         id="path4390"
         inkscape:connector-curvature="0" />
    </g>
  </g>
</svg>
