<?xml version="1.0" encoding="UTF-8" standalone="no"?>
<!-- Created with Inkscape (http://www.inkscape.org/) -->

<svg
   xmlns:ns2="http://ns.adobe.com/AdobeIllustrator/10.0/"
   xmlns:dc="http://purl.org/dc/elements/1.1/"
   xmlns:cc="http://creativecommons.org/ns#"
   xmlns:rdf="http://www.w3.org/1999/02/22-rdf-syntax-ns#"
   xmlns:svg="http://www.w3.org/2000/svg"
   xmlns="http://www.w3.org/2000/svg"
   xmlns:sodipodi="http://sodipodi.sourceforge.net/DTD/sodipodi-0.dtd"
   xmlns:inkscape="http://www.inkscape.org/namespaces/inkscape"
   width="7.4376283mm"
   height="7.8965173mm"
   viewBox="0 0 90.000003 95.552852"
   id="svg7148"
   version="1.1"
   inkscape:version="0.92.1 r"
   sodipodi:docname="road_works.svg"
   inkscape:export-filename="/home/brunofernandes/it-git-repos/it2s-android/icsi_demonstrator/app/src/main/res/drawable-xxxhdpi/road_works.png"
   inkscape:export-xdpi="639.52814"
   inkscape:export-ydpi="639.52814">
  <defs
     id="defs7150">
    <clipPath
       clipPathUnits="userSpaceOnUse"
       id="clipPath4656">
      <rect
         style="fill:#ffffff;stroke-width:0.58628535"
         id="rect4658"
         width="19.144819"
         height="20.23105"
         x="630.8186"
         y="-1130.8098"
         transform="scale(1,-1)" />
    </clipPath>
    <clipPath
       clipPathUnits="userSpaceOnUse"
       id="clipPath4656-7">
      <rect
         style="fill:#ffffff;stroke-width:0.58628535"
         id="rect4658-5"
         width="19.144819"
         height="20.23105"
         x="630.8186"
         y="-1130.8098"
         transform="scale(1,-1)" />
    </clipPath>
  </defs>
  <sodipodi:namedview
     id="base"
     pagecolor="#ffffff"
     bordercolor="#666666"
     borderopacity="1.0"
     inkscape:pageopacity="0.0"
     inkscape:pageshadow="2"
     inkscape:zoom="1.979899"
     inkscape:cx="207.42533"
     inkscape:cy="5.4272869"
     inkscape:document-units="px"
     inkscape:current-layer="layer1"
     showgrid="false"
     fit-margin-top="0"
     fit-margin-left="0"
     fit-margin-right="0"
     fit-margin-bottom="0"
     inkscape:window-width="1680"
     inkscape:window-height="1021"
     inkscape:window-x="0"
     inkscape:window-y="0"
     inkscape:window-maximized="1" />
  <metadata
     id="metadata7153">
    <rdf:RDF>
      <cc:Work
         rdf:about="">
        <dc:format>image/svg+xml</dc:format>
        <dc:type
           rdf:resource="http://purl.org/dc/dcmitype/StillImage" />
        <dc:title />
      </cc:Work>
    </rdf:RDF>
  </metadata>
  <g
     inkscape:label="Layer 1"
     inkscape:groupmode="layer"
     id="layer1"
     transform="translate(-1.1018989,-255.3646)">
    <g
       id="g4619">
      <g
         id="g4837"
         transform="translate(-288.6608,-18.684815)">
        <g
           inkscape:export-ydpi="159.61241"
           inkscape:export-xdpi="159.61241"
           inkscape:export-filename="/home/brunofernandes/it-git-repos/it2s-android/icsi_demonstrator/app/src/main/res/drawable-mdpi/road_works.png"
           transform="matrix(1.220574,0,0,1.220574,-483.12695,-763.8268)"
           id="g5393-7-9">
          <g
             transform="translate(165.6091,-62.283309)"
             id="g5273-1-2-2">
            <g
               id="g5270-0-7-2">
              <polyline
                 style="fill:#ffffff;fill-opacity:1"
                 ns2:knockout="Off"
                 points="21.883,173.875 108.918,23.168 195.953,173.875 21.883,173.875 "
                 id="polyline9-2-9-2-5-4-0-8-4-4-8"
                 transform="matrix(0.37277978,0,0,0.36896641,466.11509,912.16153)" />
            </g>
            <g
               transform="translate(-135.84607,-204.52511)"
               id="g5240-3-1-9">
              <g
                 id="g5571-8-9-9-7-7"
                 transform="translate(131.16071,130.98214)">
                <g
                   id="g5664-1-5-9-36"
                   transform="translate(3.2142857)">
                  <g
                     id="g4971-4-2-6-1-2-1"
                     transform="translate(-95.27653,60.700804)">
                    <g
                       transform="translate(7.4612941,173.13848)"
                       id="g8312-0-7-7-2-3-2-2">
                      <g
                         transform="translate(-21.740359,-189.63467)"
                         id="g7499-3-7-5-9-0-8-4-9">
                        <g
                           id="g7646-4-6-1-1-0-3-3">
                          <g
                             transform="translate(-79.770404,-0.92315349)"
                             id="g5864-5-2-7-5-1-9-4-6-19">
                            <path
                               inkscape:connector-curvature="0"
                               id="path248-3-3-5-1-5-8-0-6-5-4"
                               style="fill:#ed1e24;fill-opacity:1;fill-rule:nonzero;stroke:none"
                               d="m 693.33756,957.87671 c 1.06374,-1.95625 2.8075,-1.95625 3.87375,0 l 23.59,43.31999 c 1.065,1.9562 0.11375,3.5562 -2.11376,3.5562 h -46.8275 c -2.22624,0 -3.1775,-1.6 -2.11249,-3.5562 z m 3.87375,-13.5475 c -1.06625,-1.955 -2.81001,-1.955 -3.87375,0 l -34.49375,63.34879 c -1.06625,1.9549 -0.11625,3.5562 2.11125,3.5562 h 68.63874 c 2.22626,0 3.17625,-1.6013 2.11126,-3.5562 l -34.49375,-63.34879" />
                            <path
                               inkscape:connector-curvature="0"
                               id="path250-9-0-7-6-9-0-4-2-7-78"
                               style="fill:none;fill-opacity:1;fill-rule:nonzero;stroke:none"
                               d="m 695.27381,954.32046 -27.4625,50.43244 h 54.92625 l -27.46375,-50.43244" />
                          </g>
                        </g>
                      </g>
                    </g>
                  </g>
                </g>
              </g>
            </g>
          </g>
        </g>
        <g
           id="g5240-3-1-7-4"
           transform="matrix(1.220574,0,0,-1.220574,-446.88192,1733.1379)"
           clip-path="url(#clipPath4656-7)">
          <g
             transform="translate(131.16071,130.98214)"
             id="g5571-8-9-9-7-5-5">
            <g
               transform="translate(3.2142857)"
               id="g5664-1-5-9-3-0">
              <g
                 transform="translate(-95.27653,60.700804)"
                 id="g4971-4-2-6-1-2-5-3">
                <g
                   id="g8312-0-7-7-2-3-2-6-6"
                   transform="translate(7.4612941,173.13848)">
                  <g
                     id="g7499-3-7-5-9-0-8-4-2-1"
                     transform="translate(-21.740359,-189.63467)">
                    <g
                       id="g7646-4-6-1-1-0-3-9-0">
                      <g
                         id="g5864-5-2-7-5-1-9-4-6-1-6"
                         transform="translate(-79.770404,-0.92315349)">
                        <path
                           d="m 693.33756,957.87671 c 1.06374,-1.95625 2.8075,-1.95625 3.87375,0 l 23.59,43.31999 c 1.065,1.9562 0.11375,3.5562 -2.11376,3.5562 h -46.8275 c -2.22624,0 -3.1775,-1.6 -2.11249,-3.5562 z m 3.87375,-13.5475 c -1.06625,-1.955 -2.81001,-1.955 -3.87375,0 l -34.49375,63.34879 c -1.06625,1.9549 -0.11625,3.5562 2.11125,3.5562 h 68.63874 c 2.22626,0 3.17625,-1.6013 2.11126,-3.5562 l -34.49375,-63.34879"
                           style="fill:#ed1e24;fill-opacity:1;fill-rule:nonzero;stroke:none"
                           id="path248-3-3-5-1-5-8-0-6-5-2-3"
                           inkscape:connector-curvature="0" />
                        <path
                           d="m 695.27381,954.32046 -27.4625,50.43244 h 54.92625 l -27.46375,-50.43244"
                           style="fill:none;fill-opacity:1;fill-rule:nonzero;stroke:none"
                           id="path250-9-0-7-6-9-0-4-2-7-7-2"
                           inkscape:connector-curvature="0" />
                      </g>
                    </g>
                  </g>
                </g>
              </g>
            </g>
          </g>
        </g>
      </g>
      <g
         transform="translate(1.1823353,-1.8749999)"
         id="g4588">
        <g
           id="g5361-7-6"
           transform="matrix(1.158947,0,0,1.158947,-749.20424,-705.40862)">
          <path
             style="clip-rule:evenodd;fill:#1c1d20;fill-rule:evenodd"
             d="m 228.78516,116.5918 c -0.3529,-0.0383 -0.66797,0.041 -0.66797,0.041 l -8.1543,0.3125 c -1.25328,0 -1.25391,1.25391 -1.25391,1.25391 l -0.93945,5.33008 -1.25586,-1.25196 c 0,0 -0.44734,-0.31654 -0.88867,0.18164 -0.41502,0.5554 -0.0527,1.07032 -0.0527,1.07032 l 2.82226,2.82617 -1.56641,1.56445 0.3125,9.72461 -2.19531,6.89844 c -0.62753,1.88366 1.25391,2.50976 1.25391,2.50976 1.56989,0.62895 2.50976,-1.2539 2.50976,-1.2539 l 2.50977,-7.52539 v -5.96289 l 3.76367,4.70703 -3.76367,7.21484 c -0.6286,1.5674 0.93945,2.50781 0.93945,2.50781 1.88365,0.94236 2.82422,-0.62695 2.82422,-0.62695 l 4.07617,-7.83984 c 0.94094,-1.88366 0,-2.82617 0,-2.82617 l -0.3125,-0.9375 7.21289,6.27148 c -1.25329,0.31093 -1.2539,1.56836 -1.2539,1.56836 -2.19742,0 -2.19727,1.88086 -2.19727,1.88086 -2.50835,0 -3.44922,2.19726 -3.44922,2.19726 h 22.89453 c -0.62718,-2.82496 -3.13476,-2.50976 -3.13476,-2.50976 0,-0.93952 -1.25391,-1.25586 -1.25391,-1.25586 -0.31376,-2.82069 -2.82422,-2.50977 -2.82422,-2.50977 -3.44928,-4.38916 -7.52734,-0.62695 -7.52734,-0.62695 l -8.1543,-6.89844 c 0,0 3.76368,-7.84195 3.76368,-8.15429 0.94094,-1.56847 0,-2.19532 0,-2.19532 l -3.13672,-5.01953 c -0.15689,-0.47136 -0.5475,-0.62768 -0.90039,-0.66601 z m -7.25586,3.49023 h 2.19922 l -2.82422,2.82227 z m 5.96093,6.89649 -1.2539,3.13867 -1.88086,-1.25391 z"
             transform="translate(455.06201,749.21348)"
             id="path11-3-3-6"
             inkscape:connector-curvature="0" />
          <path
             id="path13-6-7-5"
             d="m 686.31714,867.41215 c 0,-1.55887 1.26324,-2.82069 2.82176,-2.82069 1.5603,0 2.82318,1.26182 2.82318,2.82069 0,1.5603 -1.26324,2.82318 -2.82318,2.82318 -1.55888,0 -2.82176,-1.26323 -2.82176,-2.82318"
             ns2:knockout="Off"
             inkscape:connector-curvature="0"
             style="fill:#1c1d20" />
        </g>
      </g>
    </g>
  </g>
</svg>
