<?xml version="1.0" encoding="UTF-8" standalone="no"?>
<!-- Generator: Adobe Illustrator 16.0.0, SVG Export Plug-In . SVG Version: 6.00 Build 0)  -->

<svg
   xmlns:dc="http://purl.org/dc/elements/1.1/"
   xmlns:cc="http://creativecommons.org/ns#"
   xmlns:rdf="http://www.w3.org/1999/02/22-rdf-syntax-ns#"
   xmlns:svg="http://www.w3.org/2000/svg"
   xmlns="http://www.w3.org/2000/svg"
   xmlns:sodipodi="http://sodipodi.sourceforge.net/DTD/sodipodi-0.dtd"
   xmlns:inkscape="http://www.inkscape.org/namespaces/inkscape"
   version="1.1"
   id="Capa_1"
   x="0px"
   y="0px"
   width="19.124741"
   height="19.762493"
   viewBox="0 0 19.124741 19.762494"
   xml:space="preserve"
   sodipodi:docname="search.svg"
   inkscape:version="0.92.2 2405546, 2018-03-11"><metadata
   id="metadata41"><rdf:RDF><cc:Work
       rdf:about=""><dc:format>image/svg+xml</dc:format><dc:type
         rdf:resource="http://purl.org/dc/dcmitype/StillImage" /></cc:Work></rdf:RDF></metadata><defs
   id="defs39" /><sodipodi:namedview
   pagecolor="#ffffff"
   bordercolor="#666666"
   borderopacity="1"
   objecttolerance="10"
   gridtolerance="10"
   guidetolerance="10"
   inkscape:pageopacity="0"
   inkscape:pageshadow="2"
   inkscape:window-width="1920"
   inkscape:window-height="1020"
   id="namedview37"
   showgrid="false"
   inkscape:zoom="0.33465781"
   inkscape:cx="-945.95964"
   inkscape:cy="-492.26955"
   inkscape:window-x="0"
   inkscape:window-y="31"
   inkscape:window-maximized="1"
   inkscape:current-layer="Capa_1" />
<g
   id="g4"
   transform="matrix(-0.03125,0,0,0.03125,19.443616,0)">
	<path
   d="M 255.108,0 C 119.863,0 10.204,109.66 10.204,244.904 c 0,135.245 109.659,244.905 244.904,244.905 52.006,0 100.238,-16.223 139.883,-43.854 l 185.205,185.176 c 1.671,1.672 4.379,1.672 5.964,0.115 l 34.892,-34.891 c 1.613,-1.613 1.47,-4.379 -0.115,-5.965 L 438.151,407.605 c 38.493,-43.246 61.86,-100.237 61.86,-162.702 C 500.012,109.66 390.353,0 255.108,0 Z m 0,460.996 c -119.34,0 -216.092,-96.752 -216.092,-216.092 0,-119.34 96.751,-216.091 216.092,-216.091 119.341,0 216.091,96.751 216.091,216.091 0,119.34 -96.751,216.092 -216.091,216.092 z"
   id="path2"
   inkscape:connector-curvature="0" />
</g>
<g
   id="g6"
   transform="translate(-306.63749,-306.31863)">
</g>
<g
   id="g8"
   transform="translate(-306.63749,-306.31863)">
</g>
<g
   id="g10"
   transform="translate(-306.63749,-306.31863)">
</g>
<g
   id="g12"
   transform="translate(-306.63749,-306.31863)">
</g>
<g
   id="g14"
   transform="translate(-306.63749,-306.31863)">
</g>
<g
   id="g16"
   transform="translate(-306.63749,-306.31863)">
</g>
<g
   id="g18"
   transform="translate(-306.63749,-306.31863)">
</g>
<g
   id="g20"
   transform="translate(-306.63749,-306.31863)">
</g>
<g
   id="g22"
   transform="translate(-306.63749,-306.31863)">
</g>
<g
   id="g24"
   transform="translate(-306.63749,-306.31863)">
</g>
<g
   id="g26"
   transform="translate(-306.63749,-306.31863)">
</g>
<g
   id="g28"
   transform="translate(-306.63749,-306.31863)">
</g>
<g
   id="g30"
   transform="translate(-306.63749,-306.31863)">
</g>
<g
   id="g32"
   transform="translate(-306.63749,-306.31863)">
</g>
<g
   id="g34"
   transform="translate(-306.63749,-306.31863)">
</g>
</svg>