<?xml version="1.0" encoding="UTF-8" standalone="no"?>
<!-- Generator: Adobe Illustrator 19.1.0, SVG Export Plug-In . SVG Version: 6.00 Build 0)  -->

<svg
   xmlns:dc="http://purl.org/dc/elements/1.1/"
   xmlns:cc="http://creativecommons.org/ns#"
   xmlns:rdf="http://www.w3.org/1999/02/22-rdf-syntax-ns#"
   xmlns:svg="http://www.w3.org/2000/svg"
   xmlns="http://www.w3.org/2000/svg"
   xmlns:sodipodi="http://sodipodi.sourceforge.net/DTD/sodipodi-0.dtd"
   xmlns:inkscape="http://www.inkscape.org/namespaces/inkscape"
   version="1.1"
   id="Capa_1"
   x="0px"
   y="0px"
   viewBox="0 0 317.84615 311.20736"
   xml:space="preserve"
   sodipodi:docname="temperature.svg"
   inkscape:version="0.92.1 r"
   width="15mm"
   height="12mm"><metadata
     id="metadata41"><rdf:RDF><cc:Work
         rdf:about=""><dc:format>image/svg+xml</dc:format><dc:type
           rdf:resource="http://purl.org/dc/dcmitype/StillImage" /></cc:Work></rdf:RDF></metadata><defs
     id="defs39" /><sodipodi:namedview
     pagecolor="#ffffff"
     bordercolor="#666666"
     borderopacity="1"
     objecttolerance="10"
     gridtolerance="10"
     guidetolerance="10"
     inkscape:pageopacity="0"
     inkscape:pageshadow="2"
     inkscape:window-width="1920"
     inkscape:window-height="1020"
     id="namedview37"
     showgrid="false"
     inkscape:zoom="0.52502531"
     inkscape:cx="71.54258"
     inkscape:cy="-163.9839"
     inkscape:window-x="0"
     inkscape:window-y="31"
     inkscape:window-maximized="1"
     inkscape:current-layer="Capa_1" /><path
     id="path2"
     d="m 317.84617,43.1752 v 12.854 h -49.808 v -12.854 z m -20.888,28.015 h -28.921 v 12.853999 h 28.921 z m -28.92,40.874 h 49.808 V 99.210199 h -49.808 z m 28.92,15.161 h -28.921 v 12.854 h 28.921 z m -28.92,40.868 h 49.808 v -12.853 h -49.808 z m 7.763,73.241 c 0,35.881 -29.191,65.072 -65.072,65.072 -15.187,0 -29.146,-5.27 -40.238,-14.03 -4.267,8.271 -11.703,18.882 -14.872,18.831 -4.563,-0.051 -18.047,-22.095 -18.047,-27.34 0,-0.026 0,-0.051 0,-0.051 l -0.109,-0.161 h 0.135 c 0.116,-7.121 6.26,-13.046 14.428,-14.415 -2.391,-5.006 -4.184,-10.354 -5.225,-15.971 -50.059,-4.486 -89.474,-46.46 -89.474,-97.656 0,-54.191 44.088,-98.279 98.292,-98.279 7.648,0 15.032,1.003 22.173,2.68 v -22.263 c 0,-18.162 14.775,-32.938 32.938,-32.938 18.163,0 32.938,14.775 32.938,32.938 v 147.509 c 19.922,11.677 32.133,32.815 32.133,56.074 z m -98.009,-56.075 V 73.2012 c -7.082,-1.915 -14.493,-3.027 -22.173,-3.027 -47.109,0 -85.438,38.323 -85.438,85.425 0,43.741 33.098,79.718 75.541,84.654 0.379,-22.814 12.455,-43.49 32.07,-54.994 z m 85.156,56.075 c 0,-19.73 -10.964,-37.565 -28.619,-46.53 l -3.515,-1.787 V 37.7442 c 0,-11.08 -9.01,-20.084 -20.084,-20.084 -11.073,0 -20.084,9.004 -20.084,20.084 v 155.272 l -3.515,1.787 c -17.655,8.972 -28.625,26.806 -28.625,46.53 0,28.792 23.426,52.218 52.218,52.218 28.792,0 52.224,-23.425 52.224,-52.217 z m -10.707,0 c 0,22.886 -18.619,41.505 -41.511,41.505 -22.886,0 -41.504,-18.619 -41.504,-41.505 0,-18.76 12.674,-35.232 30.823,-40.058 l 2.384,-0.636 v -142.87 h 16.601 v 142.862 l 2.384,0.643 c 18.155,4.827 30.823,21.305 30.823,40.059 z m -39.455,-27.668 c -0.99,-4.396 -5.411,-7.288 -9.917,-6.26 -15.733,3.56 -26.723,17.32 -26.723,33.465 0,4.569 3.721,8.291 8.291,8.291 4.57,0 8.291,-3.721 8.291,-8.291 0,-8.207 5.797,-15.482 13.798,-17.288 4.448,-1.022 7.263,-5.47 6.26,-9.917 z m -75.207,-186.108 c 0.148,8.136 8.149,14.73 18.027,14.73 9.91,0 17.912,-6.594 18.04,-14.73 h 0.135 l -0.116,-0.154 v -0.039 c 0,-5.257 -13.483,-27.314 -18.059,-27.36499999671 C 151.04917,-0.0768 137.55917,22.1022 137.55917,27.3652 l 0.006,0.039 -0.096,0.154 z m -110.008,110.027 v -0.122 l -0.167,0.109 c -0.006,0 -0.026,0 -0.039,0 -5.257,0 -27.31399987,13.483 -27.36499987333,18.047 C -0.07082987,160.1692 22.10217,173.6662 27.36517,173.6662 c 0.013,0 0.032,-0.013 0.039,-0.013 l 0.161,0.09 v -0.103 c 8.136,-0.148 14.724,-8.162 14.724,-18.021 0.006,-9.897 -6.588,-17.899 -14.718,-18.034 z m 24.634,-59.866001 0.045,0.167 0.064,-0.064 c 5.861,5.649 16.183,4.647 23.169,-2.346 6.986,-6.991999 7.989,-17.300999 2.333,-23.148999 l 0.084,-0.09 -0.174,-0.039 c -0.006,-0.026 -0.026,-0.039 -0.032,-0.039 -3.721,-3.715 -28.844,-9.775 -32.115,-6.588 -3.278,3.188 2.866,28.393999 6.581,32.114999 0.026,0.027 0.026,0.027 0.045,0.033 z m 23.278,158.017001 c -6.992,-6.992 -17.295,-7.982 -23.149,-2.333 l -0.09,-0.077 -0.039,0.174 c -0.013,0 -0.026,0.026 -0.026,0.026 -3.728,3.728 -9.794,28.844 -6.6,32.096 3.201,3.316 28.407,-2.834 32.115,-6.562 0.019,0 0.026,-0.026 0.026,-0.026 l 0.174,-0.064 -0.064,-0.051 c 5.661,-5.856 4.646,-16.191 -2.347,-23.183 z"
     inkscape:connector-curvature="0" /><g
     id="g6"
     transform="translate(-306.65171,-26.175841)" /><g
     id="g8"
     transform="translate(-306.65171,-26.175841)" /><g
     id="g10"
     transform="translate(-306.65171,-26.175841)" /><g
     id="g12"
     transform="translate(-306.65171,-26.175841)" /><g
     id="g14"
     transform="translate(-306.65171,-26.175841)" /><g
     id="g16"
     transform="translate(-306.65171,-26.175841)" /><g
     id="g18"
     transform="translate(-306.65171,-26.175841)" /><g
     id="g20"
     transform="translate(-306.65171,-26.175841)" /><g
     id="g22"
     transform="translate(-306.65171,-26.175841)" /><g
     id="g24"
     transform="translate(-306.65171,-26.175841)" /><g
     id="g26"
     transform="translate(-306.65171,-26.175841)" /><g
     id="g28"
     transform="translate(-306.65171,-26.175841)" /><g
     id="g30"
     transform="translate(-306.65171,-26.175841)" /><g
     id="g32"
     transform="translate(-306.65171,-26.175841)" /><g
     id="g34"
     transform="translate(-306.65171,-26.175841)" /></svg>