<?xml version="1.0" encoding="UTF-8" standalone="no"?>
<!-- Generator: Adobe Illustrator 16.0.0, SVG Export Plug-In . SVG Version: 6.00 Build 0)  -->

<svg
   xmlns:dc="http://purl.org/dc/elements/1.1/"
   xmlns:cc="http://creativecommons.org/ns#"
   xmlns:rdf="http://www.w3.org/1999/02/22-rdf-syntax-ns#"
   xmlns:svg="http://www.w3.org/2000/svg"
   xmlns="http://www.w3.org/2000/svg"
   xmlns:sodipodi="http://sodipodi.sourceforge.net/DTD/sodipodi-0.dtd"
   xmlns:inkscape="http://www.inkscape.org/namespaces/inkscape"
   version="1.1"
   id="Capa_1"
   x="0px"
   y="0px"
   width="15mm"
   height="12mm"
   viewBox="0 0 26.600575 34.940271"
   xml:space="preserve"
   inkscape:version="0.92.1 r"
   sodipodi:docname="tower-transmissions.svg"><metadata
     id="metadata4175"><rdf:RDF><cc:Work
         rdf:about=""><dc:format>image/svg+xml</dc:format><dc:type
           rdf:resource="http://purl.org/dc/dcmitype/StillImage" /><dc:title /></cc:Work></rdf:RDF></metadata><defs
     id="defs4173"><clipPath
       clipPathUnits="userSpaceOnUse"
       id="clipPath4211"><path
         style="fill:none;fill-rule:evenodd;stroke:#000000;stroke-width:0.06835937px;stroke-linecap:butt;stroke-linejoin:miter;stroke-opacity:1"
         d="m 1.6723548,0.05972698 18.0972682,0 9.197952,34.94027002 -27.2354932,0 z"
         id="path4213"
         inkscape:connector-curvature="0" /></clipPath></defs><sodipodi:namedview
     pagecolor="#ffffff"
     bordercolor="#666666"
     borderopacity="1"
     objecttolerance="10"
     gridtolerance="10"
     guidetolerance="10"
     inkscape:pageopacity="0"
     inkscape:pageshadow="2"
     inkscape:window-width="1920"
     inkscape:window-height="1020"
     id="namedview4171"
     showgrid="false"
     fit-margin-top="0"
     fit-margin-left="0"
     fit-margin-right="0"
     fit-margin-bottom="0"
     inkscape:zoom="1.1445313"
     inkscape:cx="31.09852"
     inkscape:cy="112.65543"
     inkscape:window-x="0"
     inkscape:window-y="31"
     inkscape:window-maximized="1"
     inkscape:current-layer="Capa_1" /><g
     id="g4137"
     clip-path="url(#clipPath4211)"
     transform="translate(-2.367,-0.05972698)"
     style="fill:#000000"><path
       d="M 28.928,17.914 27.635,16.621 C 31.861,12.394 31.86,5.518 27.633,1.293 L 28.928,0 c 4.939,4.938 4.939,12.976 0,17.914 z M 26.69,2.236 25.397,3.529 c 2.991,2.993 2.991,7.863 0,10.854 l 1.293,1.295 c 3.706,-3.705 3.706,-9.737 0,-13.442 z m -2.308,2.307 -1.293,1.293 c 1.722,1.722 1.722,4.521 0,6.24 l 1.294,1.293 C 26.816,10.938 26.816,6.978 24.382,4.543 Z M 6.072,17.914 7.365,16.621 C 3.139,12.395 3.14,5.519 7.367,1.293 L 6.072,0 c -4.94,4.938 -4.94,12.976 0,17.914 z M 8.308,15.679 9.602,14.384 C 6.61,11.393 6.61,6.523 9.602,3.53 L 8.308,2.236 c -3.706,3.705 -3.706,9.737 0,13.443 z m 2.308,-2.308 1.294,-1.295 C 10.19,10.356 10.19,7.557 11.911,5.838 L 10.617,4.545 c -2.434,2.433 -2.434,6.393 -0.001,8.826 z m 2.195,8.859 4.479,-3.951 -2.885,-2.545 -1.958,6.176 0.364,0.32 z m 3.274,-11.792 1.205,-1.062 -0.679,-0.6 -0.526,1.662 z M 12.811,23.23 11.725,24.189 8.297,35 8.431,35 17.29,27.186 12.811,23.23 Z m 2.834,-11.402 -0.991,3.125 3.203,2.826 3.246,-2.863 -0.859,-2.935 -2.387,-2.106 -2.212,1.953 z m 4.205,-1.196 -0.585,-2 -0.841,0.741 1.426,1.259 z M 17.857,8.873 19.032,7.838 18.013,4.357 16.86,7.995 17.857,8.873 Z m 0,18.811 -8.292,7.316 3.077,0 c 0.151,-2.641 2.319,-4.738 4.996,-4.738 2.677,0 4.845,2.1 4.997,4.738 l 3.515,0 -8.293,-7.316 z m 5.9,-3.7 -0.854,-0.754 -4.479,3.953 8.449,7.455 -3.116,-10.654 z m -5.333,-5.705 4.479,3.951 0.271,-0.238 -1.839,-6.281 -2.911,2.568 z m 3.911,4.451 -4.479,-3.951 -4.479,3.951 4.479,3.953 4.479,-3.953 z"
       id="path4139"
       inkscape:connector-curvature="0"
       style="fill:#000000" /></g><g
     id="g4141"
     transform="translate(-2.367,-0.05972698)" /><g
     id="g4143"
     transform="translate(-2.367,-0.05972698)" /><g
     id="g4145"
     transform="translate(-2.367,-0.05972698)" /><g
     id="g4147"
     transform="translate(-2.367,-0.05972698)" /><g
     id="g4149"
     transform="translate(-2.367,-0.05972698)" /><g
     id="g4151"
     transform="translate(-2.367,-0.05972698)" /><g
     id="g4153"
     transform="translate(-2.367,-0.05972698)" /><g
     id="g4155"
     transform="translate(-2.367,-0.05972698)" /><g
     id="g4157"
     transform="translate(-2.367,-0.05972698)" /><g
     id="g4159"
     transform="translate(-2.367,-0.05972698)" /><g
     id="g4161"
     transform="translate(-2.367,-0.05972698)" /><g
     id="g4163"
     transform="translate(-2.367,-0.05972698)" /><g
     id="g4165"
     transform="translate(-2.367,-0.05972698)" /><g
     id="g4167"
     transform="translate(-2.367,-0.05972698)" /><g
     id="g4169"
     transform="translate(-2.367,-0.05972698)" /></svg>