<?xml version="1.0" encoding="UTF-8" standalone="no"?>
<!-- Created with Inkscape (http://www.inkscape.org/) -->

<svg
   xmlns:ns2="http://ns.adobe.com/AdobeIllustrator/10.0/"
   xmlns:dc="http://purl.org/dc/elements/1.1/"
   xmlns:cc="http://creativecommons.org/ns#"
   xmlns:rdf="http://www.w3.org/1999/02/22-rdf-syntax-ns#"
   xmlns:svg="http://www.w3.org/2000/svg"
   xmlns="http://www.w3.org/2000/svg"
   xmlns:sodipodi="http://sodipodi.sourceforge.net/DTD/sodipodi-0.dtd"
   xmlns:inkscape="http://www.inkscape.org/namespaces/inkscape"
   width="7.4376283mm"
   height="7.8965173mm"
   viewBox="0 0 90.000003 95.552852"
   id="svg7148"
   version="1.1"
   inkscape:version="0.92.1 r"
   sodipodi:docname="visibility_fog.svg"
   inkscape:export-filename="/home/brunofernandes/it-git-repos/it2s-android/icsi_demonstrator/app/src/main/res/drawable-xxxhdpi/road_works.png"
   inkscape:export-xdpi="639.52814"
   inkscape:export-ydpi="639.52814">
  <defs
     id="defs7150">
    <clipPath
       clipPathUnits="userSpaceOnUse"
       id="clipPath4656">
      <rect
         style="fill:#ffffff;stroke-width:0.58628535"
         id="rect4658"
         width="19.144819"
         height="20.23105"
         x="630.8186"
         y="-1130.8098"
         transform="scale(1,-1)" />
    </clipPath>
    <clipPath
       clipPathUnits="userSpaceOnUse"
       id="clipPath4656-7">
      <rect
         style="fill:#ffffff;stroke-width:0.58628535"
         id="rect4658-5"
         width="19.144819"
         height="20.23105"
         x="630.8186"
         y="-1130.8098"
         transform="scale(1,-1)" />
    </clipPath>
  </defs>
  <sodipodi:namedview
     id="base"
     pagecolor="#ffffff"
     bordercolor="#666666"
     borderopacity="1.0"
     inkscape:pageopacity="0.0"
     inkscape:pageshadow="2"
     inkscape:zoom="2"
     inkscape:cx="562.44383"
     inkscape:cy="-23.125098"
     inkscape:document-units="px"
     inkscape:current-layer="layer1"
     showgrid="false"
     fit-margin-top="0"
     fit-margin-left="0"
     fit-margin-right="0"
     fit-margin-bottom="0"
     inkscape:window-width="1680"
     inkscape:window-height="1021"
     inkscape:window-x="0"
     inkscape:window-y="0"
     inkscape:window-maximized="1" />
  <metadata
     id="metadata7153">
    <rdf:RDF>
      <cc:Work
         rdf:about="">
        <dc:format>image/svg+xml</dc:format>
        <dc:type
           rdf:resource="http://purl.org/dc/dcmitype/StillImage" />
        <dc:title />
      </cc:Work>
    </rdf:RDF>
  </metadata>
  <g
     inkscape:label="Layer 1"
     inkscape:groupmode="layer"
     id="layer1"
     transform="translate(72.815411,-285.29934)">
    <g
       transform="matrix(0.12860593,-0.03206505,-0.03206505,-0.12860593,176.36117,378.42691)"
       id="g41">
      <g
         id="g227"
         transform="translate(318.68124,-9.0918831)" />
    </g>
    <g
       id="g4689">
      <g
         id="g4837"
         transform="translate(-362.57811,11.249926)">
        <g
           inkscape:export-ydpi="159.61241"
           inkscape:export-xdpi="159.61241"
           inkscape:export-filename="/home/brunofernandes/it-git-repos/it2s-android/icsi_demonstrator/app/src/main/res/drawable-mdpi/road_works.png"
           transform="matrix(1.220574,0,0,1.220574,-483.12695,-763.8268)"
           id="g5393-7-9">
          <g
             transform="translate(165.6091,-62.283309)"
             id="g5273-1-2-2">
            <g
               id="g5270-0-7-2">
              <polyline
                 style="fill:#ffffff;fill-opacity:1"
                 ns2:knockout="Off"
                 points="21.883,173.875 108.918,23.168 195.953,173.875 21.883,173.875 "
                 id="polyline9-2-9-2-5-4-0-8-4-4-8"
                 transform="matrix(0.37277978,0,0,0.36896641,466.11509,912.16153)" />
            </g>
            <g
               transform="translate(-135.84607,-204.52511)"
               id="g5240-3-1-9">
              <g
                 id="g5571-8-9-9-7-7"
                 transform="translate(131.16071,130.98214)">
                <g
                   id="g5664-1-5-9-36"
                   transform="translate(3.2142857)">
                  <g
                     id="g4971-4-2-6-1-2-1"
                     transform="translate(-95.27653,60.700804)">
                    <g
                       transform="translate(7.4612941,173.13848)"
                       id="g8312-0-7-7-2-3-2-2">
                      <g
                         transform="translate(-21.740359,-189.63467)"
                         id="g7499-3-7-5-9-0-8-4-9">
                        <g
                           id="g7646-4-6-1-1-0-3-3">
                          <g
                             transform="translate(-79.770404,-0.92315349)"
                             id="g5864-5-2-7-5-1-9-4-6-19">
                            <path
                               inkscape:connector-curvature="0"
                               id="path248-3-3-5-1-5-8-0-6-5-4"
                               style="fill:#ed1e24;fill-opacity:1;fill-rule:nonzero;stroke:none"
                               d="m 693.33756,957.87671 c 1.06374,-1.95625 2.8075,-1.95625 3.87375,0 l 23.59,43.31999 c 1.065,1.9562 0.11375,3.5562 -2.11376,3.5562 h -46.8275 c -2.22624,0 -3.1775,-1.6 -2.11249,-3.5562 z m 3.87375,-13.5475 c -1.06625,-1.955 -2.81001,-1.955 -3.87375,0 l -34.49375,63.34879 c -1.06625,1.9549 -0.11625,3.5562 2.11125,3.5562 h 68.63874 c 2.22626,0 3.17625,-1.6013 2.11126,-3.5562 l -34.49375,-63.34879" />
                            <path
                               inkscape:connector-curvature="0"
                               id="path250-9-0-7-6-9-0-4-2-7-78"
                               style="fill:none;fill-opacity:1;fill-rule:nonzero;stroke:none"
                               d="m 695.27381,954.32046 -27.4625,50.43244 h 54.92625 l -27.46375,-50.43244" />
                          </g>
                        </g>
                      </g>
                    </g>
                  </g>
                </g>
              </g>
            </g>
          </g>
        </g>
        <g
           id="g5240-3-1-7-4"
           transform="matrix(1.220574,0,0,-1.220574,-446.88192,1733.1379)"
           clip-path="url(#clipPath4656-7)">
          <g
             transform="translate(131.16071,130.98214)"
             id="g5571-8-9-9-7-5-5">
            <g
               transform="translate(3.2142857)"
               id="g5664-1-5-9-3-0">
              <g
                 transform="translate(-95.27653,60.700804)"
                 id="g4971-4-2-6-1-2-5-3">
                <g
                   id="g8312-0-7-7-2-3-2-6-6"
                   transform="translate(7.4612941,173.13848)">
                  <g
                     id="g7499-3-7-5-9-0-8-4-2-1"
                     transform="translate(-21.740359,-189.63467)">
                    <g
                       id="g7646-4-6-1-1-0-3-9-0">
                      <g
                         id="g5864-5-2-7-5-1-9-4-6-1-6"
                         transform="translate(-79.770404,-0.92315349)">
                        <path
                           d="m 693.33756,957.87671 c 1.06374,-1.95625 2.8075,-1.95625 3.87375,0 l 23.59,43.31999 c 1.065,1.9562 0.11375,3.5562 -2.11376,3.5562 h -46.8275 c -2.22624,0 -3.1775,-1.6 -2.11249,-3.5562 z m 3.87375,-13.5475 c -1.06625,-1.955 -2.81001,-1.955 -3.87375,0 l -34.49375,63.34879 c -1.06625,1.9549 -0.11625,3.5562 2.11125,3.5562 h 68.63874 c 2.22626,0 3.17625,-1.6013 2.11126,-3.5562 l -34.49375,-63.34879"
                           style="fill:#ed1e24;fill-opacity:1;fill-rule:nonzero;stroke:none"
                           id="path248-3-3-5-1-5-8-0-6-5-2-3"
                           inkscape:connector-curvature="0" />
                        <path
                           d="m 695.27381,954.32046 -27.4625,50.43244 h 54.92625 l -27.46375,-50.43244"
                           style="fill:none;fill-opacity:1;fill-rule:nonzero;stroke:none"
                           id="path250-9-0-7-6-9-0-4-2-7-7-2"
                           inkscape:connector-curvature="0" />
                      </g>
                    </g>
                  </g>
                </g>
              </g>
            </g>
          </g>
        </g>
      </g>
      <g
         id="g901"
         transform="matrix(0.09729696,0,0,0.09729696,349.74978,957.14187)">
        <path
           style="fill:#000000;fill-opacity:1;fill-rule:evenodd;stroke:none;stroke-width:1.06666672"
           d="m -3955.7067,-6336.8016 c -8.5765,-0.019 -16.361,4.9798 -19.914,12.7866 l -27.1025,59.497 c -1.2107,2.6599 -2.8156,5.1082 -4.8027,7.2498 l -4.5578,4.9251 c -2.1778,2.3472 -3.3889,5.4252 -3.3954,8.6263 l -0.1531,56.897 c -0.011,3.015 2.4299,5.4673 5.445,5.4755 h 5.4755 l -0.092,38.2067 c -0.011,3.0151 2.4299,5.4674 5.445,5.4756 l 30.0086,0.061 c 3.0151,0.011 5.4673,-2.4298 5.4756,-5.4449 l 0.092,-38.2067 h 169.3672 l 0.092,38.2067 c 0.011,3.0151 2.4604,5.4515 5.4755,5.4449 l 30.0085,-0.061 c 3.0152,-0.011 5.4517,-2.4605 5.445,-5.4756 l -0.092,-38.2067 h 5.4755 c 3.0151,-0.011 5.4516,-2.4605 5.445,-5.4755 l -0.153,-56.897 c -0.011,-3.2011 -1.2176,-6.2791 -3.3955,-8.6263 l -4.5579,-4.9251 c -1.987,-2.1416 -3.5919,-4.5899 -4.8026,-7.2498 l -27.1025,-59.497 c -3.553,-7.8068 -11.3375,-12.808 -19.9139,-12.7866 h -153.2159 z m 7.5863,21.8717 h 138.0433 c 4.6452,-0.011 8.8736,2.6858 10.7981,6.9133 l 18.1704,39.9197 c 1.2484,2.7452 0.022,5.9706 -2.7225,7.2192 -0.7074,0.3221 -1.4567,0.4875 -2.2331,0.4895 h -186.0692 c -0.7764,0 -1.5257,-0.1673 -2.2331,-0.4895 -2.7454,-1.2486 -3.9709,-4.474 -2.7225,-7.2192 l 18.1704,-39.9197 c 1.9245,-4.2275 6.1531,-6.9248 10.7982,-6.9133 z m 28.9685,97.4897 h 80.1062 v 14.5607 h -80.1062 z"
           id="path3785"
           inkscape:connector-curvature="0"
           sodipodi:nodetypes="cccccccccccccccccccccccccccccccccccccccccccccc" />
        <path
           inkscape:connector-curvature="0"
           id="path4312"
           d="m -3935.1865,-6435.5759 c 5.302,0 9.6,4.298 9.6,9.6 0,5.302 -4.298,9.6 -9.6,9.6 -5.3019,0 -9.6,-4.298 -9.6,-9.6 0,-5.302 4.2981,-9.6 9.6,-9.6 z"
           style="fill:#000000;fill-opacity:1;stroke:none;stroke-width:1.06666672"
           sodipodi:nodetypes="sssss" />
        <path
           sodipodi:nodetypes="sssss"
           style="fill:#000000;fill-opacity:1;stroke:none;stroke-width:1.06666672"
           d="m -3875.6788,-6431.6962 c 5.3019,0 9.6,4.298 9.6,9.6 0,5.302 -4.2981,9.6 -9.6,9.6 -5.302,0 -9.6,-4.298 -9.6,-9.6 0,-5.302 4.298,-9.6 9.6,-9.6 z"
           id="path3926"
           inkscape:connector-curvature="0" />
        <path
           inkscape:connector-curvature="0"
           id="path3952"
           d="m -3827.8144,-6425.2268 c 5.302,0 9.6,4.2981 9.6,9.6 0,5.302 -4.298,9.6 -9.6,9.6 -5.302,0 -9.6,-4.298 -9.6,-9.6 0,-5.3019 4.298,-9.6 9.6,-9.6 z"
           style="fill:#000000;fill-opacity:1;stroke:none;stroke-width:1.06666672"
           sodipodi:nodetypes="sssss" />
        <path
           sodipodi:nodetypes="sssss"
           style="fill:#000000;fill-opacity:1;stroke:none;stroke-width:1.06666672"
           d="m -4054.2004,-6364.4263 c 5.3019,0 9.6,4.298 9.6,9.6 0,5.3019 -4.2981,9.6 -9.6,9.6 -5.302,0 -9.6,-4.2981 -9.6,-9.6 0,-5.302 4.298,-9.6 9.6,-9.6 z"
           id="path3956"
           inkscape:connector-curvature="0" />
        <path
           sodipodi:nodetypes="sssss"
           style="fill:#000000;fill-opacity:1;stroke:none;stroke-width:1.06666672"
           d="m -4001.1607,-6403.2358 c 5.3019,0 9.6,4.298 9.6,9.6 0,5.3019 -4.2981,9.6 -9.6,9.6 -5.302,0 -9.6,-4.2981 -9.6,-9.6 0,-5.302 4.298,-9.6 9.6,-9.6 z"
           id="path4004"
           inkscape:connector-curvature="0" />
        <path
           sodipodi:nodetypes="csscc"
           style="clip-rule:evenodd;fill:#000000;fill-rule:evenodd;stroke:none;stroke-width:1.06666672"
           inkscape:connector-curvature="0"
           d="m -3758.5013,-6374.3331 c 0,-5.3587 -4.344,-9.7027 -9.7028,-9.7027 -5.3587,0 -9.7027,4.344 -9.7027,9.7027 0,5.3587 4.344,9.7027 9.7027,9.7027 5.3588,0 9.7028,-4.3454 9.7028,-9.7027 z"
           id="path4028" />
        <path
           sodipodi:nodetypes="sssss"
           style="fill:#000000;fill-opacity:1;stroke:none;stroke-width:1.06666672"
           d="m -3949.4153,-6403.2358 c 5.302,0 9.6,4.298 9.6,9.6 0,5.3019 -4.298,9.6 -9.6,9.6 -5.3019,0 -9.6,-4.2981 -9.6,-9.6 0,-5.302 4.2981,-9.6 9.6,-9.6 z"
           id="path4043"
           inkscape:connector-curvature="0" />
        <path
           inkscape:connector-curvature="0"
           id="path4058"
           d="m -3934.103,-6366.3812 c 5.3019,0 9.6,4.298 9.6,9.6 0,5.3019 -4.2981,9.6 -9.6,9.6 -5.302,0 -9.6,-4.2981 -9.6,-9.6 0,-5.302 4.298,-9.6 9.6,-9.6 z"
           style="fill:#000000;fill-opacity:1;stroke:none;stroke-width:1.06666672"
           sodipodi:nodetypes="sssss" />
        <path
           sodipodi:nodetypes="sssss"
           style="fill:#000000;fill-opacity:1;stroke:none;stroke-width:1.06666672"
           d="m -3897.6711,-6399.3548 c 5.3019,0 9.6,4.2981 9.6,9.6 0,5.302 -4.2981,9.6 -9.6,9.6 -5.302,0 -9.6,-4.298 -9.6,-9.6 0,-5.3019 4.298,-9.6 9.6,-9.6 z"
           id="path4062"
           inkscape:connector-curvature="0" />
        <path
           inkscape:connector-curvature="0"
           id="path4090"
           d="m -3878.7444,-6366.4099 c 5.3019,0 9.6,4.298 9.6,9.6 0,5.302 -4.2981,9.6 -9.6,9.6 -5.302,0 -9.6,-4.298 -9.6,-9.6 0,-5.302 4.298,-9.6 9.6,-9.6 z"
           style="fill:#000000;fill-opacity:1;stroke:none;stroke-width:1.06666672"
           sodipodi:nodetypes="sssss" />
        <path
           inkscape:connector-curvature="0"
           id="path4105"
           d="m -3853.6864,-6394.1794 c 5.302,0 9.6,4.298 9.6,9.6 0,5.302 -4.298,9.6 -9.6,9.6 -5.302,0 -9.6,-4.298 -9.6,-9.6 0,-5.302 4.298,-9.6 9.6,-9.6 z"
           style="fill:#000000;fill-opacity:1;stroke:none;stroke-width:1.06666672"
           sodipodi:nodetypes="sssss" />
        <path
           sodipodi:nodetypes="sssss"
           style="fill:#000000;fill-opacity:1;stroke:none;stroke-width:1.06666672"
           d="m -3803.2351,-6399.3548 c 5.302,0 9.6,4.2981 9.6,9.6 0,5.302 -4.298,9.6 -9.6,9.6 -5.302,0 -9.6,-4.298 -9.6,-9.6 0,-5.3019 4.298,-9.6 9.6,-9.6 z"
           id="path4120"
           inkscape:connector-curvature="0" />
        <path
           sodipodi:nodetypes="sssss"
           style="fill:#000000;fill-opacity:1;stroke:none;stroke-width:1.06666672"
           d="m -3814.8483,-6366.354 c 5.302,0 9.6,4.298 9.6,9.6 0,5.3019 -4.298,9.6 -9.6,9.6 -5.302,0 -9.6,-4.2981 -9.6,-9.6 0,-5.302 4.298,-9.6 9.6,-9.6 z"
           id="path4135"
           inkscape:connector-curvature="0" />
        <path
           inkscape:connector-curvature="0"
           id="path4137"
           d="m -3768.3068,-6383.8304 c 5.302,0 9.6,4.298 9.6,9.6 0,5.302 -4.298,9.6 -9.6,9.6 -5.3019,0 -9.6,-4.298 -9.6,-9.6 0,-5.302 4.2981,-9.6 9.6,-9.6 z"
           style="fill:#000000;fill-opacity:1;stroke:none;stroke-width:1.06666672"
           sodipodi:nodetypes="sssss" />
        <path
           sodipodi:nodetypes="sssss"
           style="fill:#000000;fill-opacity:1;stroke:none;stroke-width:1.06666672"
           d="m -3726.9104,-6368.3074 c 5.302,0 9.6,4.298 9.6,9.6 0,5.302 -4.298,9.6 -9.6,9.6 -5.302,0 -9.6,-4.298 -9.6,-9.6 0,-5.302 4.298,-9.6 9.6,-9.6 z"
           id="path4163"
           inkscape:connector-curvature="0" />
        <path
           inkscape:connector-curvature="0"
           id="path4178"
           d="m -3767.8697,-6347.6164 c 5.302,0 9.6,4.298 9.6,9.6 0,5.3019 -4.298,9.6 -9.6,9.6 -5.3019,0 -9.6,-4.2981 -9.6,-9.6 0,-5.302 4.2981,-9.6 9.6,-9.6 z"
           style="fill:#000000;fill-opacity:1;stroke:none;stroke-width:1.06666672"
           sodipodi:nodetypes="sssss" />
        <path
           sodipodi:nodetypes="scccs"
           style="clip-rule:evenodd;fill:#000000;fill-rule:evenodd;stroke:none;stroke-width:1.06666672"
           inkscape:connector-curvature="0"
           d="m -3969.3644,-6358.8101 c 0,-5.3588 -4.344,-9.7028 -9.7027,-9.7028 -5.3587,0 -9.7027,4.344 -9.7027,9.7028 0,5.3587 4.344,9.7027 9.7027,9.7027 5.3587,0 9.7027,-4.344 9.7027,-9.7027 z"
           id="path4180" />
        <path
           sodipodi:nodetypes="sssss"
           style="fill:#000000;fill-opacity:1;stroke:none;stroke-width:1.06666672"
           d="m -3979.1698,-6368.3074 c 5.302,0 9.6,4.298 9.6,9.6 0,5.302 -4.298,9.6 -9.6,9.6 -5.302,0 -9.6,-4.298 -9.6,-9.6 0,-5.302 4.298,-9.6 9.6,-9.6 z"
           id="path4182"
           inkscape:connector-curvature="0" />
        <path
           inkscape:connector-curvature="0"
           id="path4197"
           d="m -4015.3909,-6364.4263 c 5.3019,0 9.6,4.298 9.6,9.6 0,5.3019 -4.2981,9.6 -9.6,9.6 -5.302,0 -9.6,-4.2981 -9.6,-9.6 0,-5.302 4.298,-9.6 9.6,-9.6 z"
           style="fill:#000000;fill-opacity:1;stroke:none;stroke-width:1.06666672"
           sodipodi:nodetypes="sssss" />
        <path
           inkscape:connector-curvature="0"
           id="path4212"
           d="m -4076.1927,-6325.6169 c 5.3019,0 9.6,4.2981 9.6,9.6 0,5.302 -4.2981,9.6 -9.6,9.6 -5.302,0 -9.6,-4.298 -9.6,-9.6 0,-5.3019 4.298,-9.6 9.6,-9.6 z"
           style="fill:#000000;fill-opacity:1;stroke:none;stroke-width:1.06666672"
           sodipodi:nodetypes="sssss" />
        <path
           sodipodi:nodetypes="sssss"
           style="fill:#000000;fill-opacity:1;stroke:none;stroke-width:1.06666672"
           d="m -4082.9245,-6258.0432 c 5.302,0 9.6,4.298 9.6,9.6 0,5.302 -4.298,9.6 -9.6,9.6 -5.302,0 -9.6,-4.298 -9.6,-9.6 0,-5.302 4.298,-9.6 9.6,-9.6 z"
           id="path4227"
           inkscape:connector-curvature="0" />
        <path
           inkscape:connector-curvature="0"
           id="path4242"
           d="m -4072.5825,-6216.6468 c 5.302,0 9.6,4.298 9.6,9.6 0,5.3019 -4.298,9.6 -9.6,9.6 -5.302,0 -9.6,-4.2981 -9.6,-9.6 0,-5.302 4.298,-9.6 9.6,-9.6 z"
           style="fill:#000000;fill-opacity:1;stroke:none;stroke-width:1.06666672"
           sodipodi:nodetypes="sssss" />
        <path
           sodipodi:nodetypes="sssss"
           style="fill:#000000;fill-opacity:1;stroke:none;stroke-width:1.06666672"
           d="m -4035.933,-6202.7218 c 5.302,0 9.6,4.298 9.6,9.6 0,5.302 -4.298,9.6 -9.6,9.6 -5.302,0 -9.6,-4.298 -9.6,-9.6 0,-5.302 4.298,-9.6 9.6,-9.6 z"
           id="path4268"
           inkscape:connector-curvature="0" />
        <path
           sodipodi:nodetypes="sssss"
           style="fill:#000000;fill-opacity:1;stroke:none;stroke-width:1.06666672"
           d="m -4035.8583,-6241.5313 c 5.3019,0 9.6,4.298 9.6,9.6 0,5.302 -4.2981,9.6 -9.6,9.6 -5.302,0 -9.6,-4.298 -9.6,-9.6 0,-5.302 4.298,-9.6 9.6,-9.6 z"
           id="path4283"
           inkscape:connector-curvature="0" />
        <path
           sodipodi:nodetypes="sssss"
           style="fill:#000000;fill-opacity:1;stroke:none;stroke-width:1.06666672"
           d="m -4059.3742,-6286.8089 c 5.302,0 9.6,4.2981 9.6,9.6 0,5.302 -4.298,9.6 -9.6,9.6 -5.302,0 -9.6,-4.298 -9.6,-9.6 0,-5.3019 4.298,-9.6 9.6,-9.6 z"
           id="path4298"
           inkscape:connector-curvature="0" />
        <path
           inkscape:connector-curvature="0"
           id="path4313"
           d="m -4023.7536,-6279.0466 c 5.302,0 9.6,4.298 9.6,9.6 0,5.302 -4.298,9.6 -9.6,9.6 -5.302,0 -9.6,-4.298 -9.6,-9.6 0,-5.302 4.298,-9.6 9.6,-9.6 z"
           style="fill:#000000;fill-opacity:1;stroke:none;stroke-width:1.06666672"
           sodipodi:nodetypes="sssss" />
        <path
           inkscape:connector-curvature="0"
           id="path4328"
           d="m -4035.8885,-6324.0619 c 5.3019,0 9.6,4.2981 9.6,9.6 0,5.302 -4.2981,9.6 -9.6,9.6 -5.302,0 -9.6,-4.298 -9.6,-9.6 0,-5.3019 4.298,-9.6 9.6,-9.6 z"
           style="fill:#000000;fill-opacity:1;stroke:none;stroke-width:1.06666672"
           sodipodi:nodetypes="sssss" />
        <path
           inkscape:connector-curvature="0"
           id="path4343"
           d="m -3998.8691,-6331.5746 c 5.302,0 9.6,4.298 9.6,9.6 0,5.302 -4.298,9.6 -9.6,9.6 -5.302,0 -9.6,-4.298 -9.6,-9.6 0,-5.302 4.298,-9.6 9.6,-9.6 z"
           style="fill:#000000;fill-opacity:1;stroke:none;stroke-width:1.06666672"
           sodipodi:nodetypes="sssss" />
        <path
           sodipodi:nodetypes="sssss"
           style="fill:#000000;fill-opacity:1;stroke:none;stroke-width:1.06666672"
           d="m -3722.145,-6203.6878 c 5.302,0 9.6,4.298 9.6,9.6 0,5.302 -4.298,9.6 -9.6,9.6 -5.3019,0 -9.6,-4.298 -9.6,-9.6 0,-5.302 4.2981,-9.6 9.6,-9.6 z"
           id="path4358"
           inkscape:connector-curvature="0" />
        <path
           sodipodi:nodetypes="sssss"
           style="fill:#000000;fill-opacity:1;stroke:none;stroke-width:1.06666672"
           d="m -3696.905,-6231.4001 c 5.302,0 9.6,4.298 9.6,9.6 0,5.302 -4.298,9.6 -9.6,9.6 -5.3019,0 -9.6,-4.298 -9.6,-9.6 0,-5.302 4.2981,-9.6 9.6,-9.6 z"
           id="path4373"
           inkscape:connector-curvature="0" />
        <path
           inkscape:connector-curvature="0"
           id="path4388"
           d="m -3678.1647,-6263.581 c 5.302,0 9.6,4.298 9.6,9.6 0,5.302 -4.298,9.6 -9.6,9.6 -5.302,0 -9.6,-4.298 -9.6,-9.6 0,-5.302 4.298,-9.6 9.6,-9.6 z"
           style="fill:#000000;fill-opacity:1;stroke:none;stroke-width:1.06666672"
           sodipodi:nodetypes="sssss" />
        <path
           sodipodi:nodetypes="sssss"
           style="fill:#000000;fill-opacity:1;stroke:none;stroke-width:1.06666672"
           d="m -3723.3846,-6260.3134 c 5.3019,0 9.6,4.298 9.6,9.6 0,5.302 -4.2981,9.6 -9.6,9.6 -5.302,0 -9.6,-4.298 -9.6,-9.6 0,-5.302 4.298,-9.6 9.6,-9.6 z"
           id="path4403"
           inkscape:connector-curvature="0" />
        <path
           sodipodi:nodetypes="sssss"
           style="fill:#000000;fill-opacity:1;stroke:none;stroke-width:1.06666672"
           d="m -3711.3874,-6293.2768 c 5.302,0 9.6,4.298 9.6,9.6 0,5.302 -4.298,9.6 -9.6,9.6 -5.302,0 -9.6,-4.298 -9.6,-9.6 0,-5.302 4.298,-9.6 9.6,-9.6 z"
           id="path4418"
           inkscape:connector-curvature="0" />
        <path
           inkscape:connector-curvature="0"
           id="path4433"
           d="m -3699.7442,-6328.2052 c 5.302,0 9.6,4.298 9.6,9.6 0,5.3019 -4.298,9.6 -9.6,9.6 -5.302,0 -9.6,-4.2981 -9.6,-9.6 0,-5.302 4.298,-9.6 9.6,-9.6 z"
           style="fill:#000000;fill-opacity:1;stroke:none;stroke-width:1.06666672"
           sodipodi:nodetypes="sssss" />
        <path
           sodipodi:nodetypes="sssss"
           style="fill:#000000;fill-opacity:1;stroke:none;stroke-width:1.06666672"
           d="m -3739.8479,-6332.0863 c 5.302,0 9.6,4.298 9.6,9.6 0,5.302 -4.298,9.6 -9.6,9.6 -5.302,0 -9.6,-4.298 -9.6,-9.6 0,-5.302 4.298,-9.6 9.6,-9.6 z"
           id="path4448"
           inkscape:connector-curvature="0" />
        <path
           inkscape:connector-curvature="0"
           id="path4461"
           d="m -3745.0145,-6301.6567 c 5.302,0 9.6,4.298 9.6,9.6 0,5.3019 -4.298,9.6 -9.6,9.6 -5.302,0 -9.6,-4.2981 -9.6,-9.6 0,-5.302 4.298,-9.6 9.6,-9.6 z"
           style="fill:#000000;fill-opacity:1;stroke:none;stroke-width:1.06666672"
           sodipodi:nodetypes="sssss" />
      </g>
    </g>
  </g>
</svg>
